<svg width="104" height="21" viewBox="0 0 104 21" fill="none" xmlns="http://www.w3.org/2000/svg">
<path d="M12.8414 6.59262C14.7694 6.59262 16.3709 7.58773 17.1328 8.66059V6.85695H20.0715V20.2443H17.9569C17.8465 20.2448 17.7371 20.2234 17.635 20.1813C17.5329 20.1393 17.4402 20.0775 17.3621 19.9994C17.2841 19.9214 17.2223 19.8286 17.1802 19.7265C17.1382 19.6245 17.1168 19.5151 17.1172 19.4047V18.4407C16.3709 19.5291 14.7694 20.5242 12.8414 20.5242C9.17188 20.5242 6.38867 17.3834 6.38867 13.5584C6.38867 9.73345 9.15633 6.59262 12.8414 6.59262ZM13.3545 9.26699C10.9755 9.26699 9.35846 11.1484 9.35846 13.5584C9.35846 15.9684 10.96 17.8498 13.3545 17.8498C15.7334 17.8498 17.3505 15.9684 17.3505 13.5584C17.3505 11.1484 15.7645 9.26699 13.3545 9.26699ZM23.4144 6.85695H26.3687V8.67614C27.1772 7.33896 28.701 6.59262 30.4424 6.59262C33.5521 6.59262 35.5579 8.78498 35.5579 12.1901V20.2443H33.4433C33.3329 20.2448 33.2235 20.2234 33.1215 20.1813C33.0194 20.1393 32.9266 20.0775 32.8486 19.9994C32.7705 19.9214 32.7087 19.8286 32.6667 19.7265C32.6246 19.6245 32.6032 19.5151 32.6037 19.4047V12.6721C32.6037 10.5575 31.5308 9.26699 29.8205 9.26699C27.8613 9.26699 26.3687 10.7908 26.3687 13.6517V20.2443H24.2541C24.1437 20.2448 24.0343 20.2234 23.9322 20.1813C23.8301 20.1393 23.7374 20.0775 23.6593 19.9994C23.5813 19.9214 23.5195 19.8286 23.4774 19.7265C23.4354 19.6245 23.414 19.5151 23.4144 19.4047V6.85695ZM44.3429 6.59262C46.2709 6.59262 47.8724 7.58773 48.6343 8.66059V0.171035H51.573V20.2599H49.4584C49.348 20.2603 49.2386 20.2389 49.1366 20.1969C49.0345 20.1548 48.9417 20.093 48.8637 20.015C48.7856 19.9369 48.7238 19.8442 48.6818 19.7421C48.6397 19.64 48.6183 19.5306 48.6188 19.4202V18.4562C47.8724 19.5291 46.2554 20.5242 44.3273 20.5242C40.6579 20.5242 37.8747 17.3834 37.8747 13.5584C37.8902 9.73345 40.6734 6.59262 44.3429 6.59262ZM44.8716 9.26699C42.4926 9.26699 40.8756 11.1484 40.8756 13.5584C40.8756 15.9684 42.4771 17.8498 44.8716 17.8498C47.2505 17.8498 48.8675 15.9684 48.8675 13.5584C48.8675 11.1484 47.2505 9.26699 44.8716 9.26699ZM54.916 6.85695H57.8547V9.23589C58.1124 8.50398 58.5897 7.86937 59.2213 7.41861C59.853 6.96784 60.6082 6.72284 61.3842 6.71701C61.7704 6.71611 62.1557 6.75257 62.5348 6.82585V9.85784C62.0587 9.69729 61.5601 9.61332 61.0577 9.60906C59.3629 9.60906 57.8391 11.024 57.8391 13.7139V20.2443H55.7245C55.6141 20.2448 55.5047 20.2234 55.4027 20.1813C55.3006 20.1393 55.2078 20.0775 55.1298 19.9994C55.0517 19.9214 54.9899 19.8286 54.9479 19.7265C54.9058 19.6245 54.8844 19.5151 54.8849 19.4047V6.85695H54.916ZM70.4957 20.5242C66.5308 20.5242 63.4833 17.4456 63.4833 13.5584C63.4833 9.67125 66.5308 6.59262 70.4957 6.59262C74.4606 6.59262 77.5081 9.67125 77.5081 13.5584C77.5081 17.4456 74.4606 20.5242 70.4957 20.5242ZM70.4957 17.7876C72.8591 17.7876 74.5073 15.9374 74.5073 13.5584C74.5073 11.1795 72.8436 9.32918 70.4957 9.32918C68.1168 9.32918 66.4531 11.1795 66.4531 13.5584C66.4531 15.9374 68.1168 17.7876 70.4957 17.7876ZM81.3642 3.9338C80.8425 3.9338 80.3423 3.72658 79.9734 3.35771C79.6045 2.98885 79.3973 2.48856 79.3973 1.9669C79.3973 1.44525 79.6045 0.944958 79.9734 0.576092C80.3423 0.207227 80.8425 0 81.3642 0C81.8859 0 82.3862 0.207227 82.755 0.576092C83.1239 0.944958 83.3311 1.44525 83.3311 1.9669C83.3311 2.48856 83.1239 2.98885 82.755 3.35771C82.3862 3.72658 81.8859 3.9338 81.3642 3.9338ZM79.9026 6.85695H82.8413V20.2443H80.7267C80.6163 20.2448 80.5069 20.2234 80.4049 20.1813C80.3028 20.1393 80.21 20.0775 80.132 19.9994C80.0539 19.9214 79.9921 19.8286 79.9501 19.7265C79.908 19.6245 79.8866 19.5151 79.8871 19.4047C79.9026 19.4047 79.9026 6.85695 79.9026 6.85695ZM91.7196 6.59262C93.6476 6.59262 95.2491 7.58773 96.011 8.66059V0.171035H98.9497V20.2599H96.8351C96.7247 20.2603 96.6153 20.2389 96.5133 20.1969C96.4112 20.1548 96.3184 20.093 96.2404 20.015C96.1623 19.9369 96.1005 19.8442 96.0585 19.7421C96.0164 19.64 95.995 19.5306 95.9955 19.4202V18.4562C95.2491 19.5291 93.6321 20.5242 91.704 20.5242C88.0346 20.5242 85.2514 17.3834 85.2514 13.5584C85.2669 9.73345 88.0501 6.59262 91.7196 6.59262ZM92.2638 9.26699C89.8849 9.26699 88.2678 11.1484 88.2678 13.5584C88.2678 15.9684 89.8693 17.8498 92.2638 17.8498C94.6427 17.8498 96.2598 15.9684 96.2598 13.5584C96.2598 11.1484 94.6427 9.26699 92.2638 9.26699Z" fill="black"/>
</svg>
