<svg width="40" height="47" viewBox="0 0 40 47" fill="none" xmlns="http://www.w3.org/2000/svg">
<path d="M37.8149 16.0254C37.5928 16.163 32.7076 19.0217 32.7631 24.969C32.8245 32.0825 38.9673 34.4513 39.0379 34.4782C38.9828 34.6475 38.0558 37.8521 35.7999 41.1617C33.8503 44.0288 31.8308 46.8797 28.6433 46.9393C25.5117 46.9969 24.5024 45.0717 20.925 45.0717C17.3454 45.0717 16.2249 46.8797 13.2636 46.9969C10.187 47.1139 7.84466 43.9007 5.88071 41.0494C1.86583 35.214 -1.20386 24.5581 2.91801 17.367C4.96434 13.7956 8.62191 11.533 12.5905 11.4746C15.6128 11.4171 18.4631 13.5167 20.3118 13.5167C22.1341 13.5167 25.4001 11.0692 29.2498 11.3554C30.7587 11.4678 35.0419 11.9205 37.8149 16.0254ZM26.8744 7.50329C28.5094 5.51718 29.6095 2.75116 29.3066 0C26.9534 0.0937978 24.1073 1.57549 22.4195 3.56035C20.908 5.31862 19.5806 8.13469 19.941 10.8297C22.5639 11.0334 25.2408 9.49064 26.8744 7.50329Z" fill="#1D1D1F"/>
</svg>
