<svg width="200" height="200" viewBox="0 0 200 200" fill="none" xmlns="http://www.w3.org/2000/svg">
<rect width="200" height="200" rx="100" fill="#120348"/>
<path d="M137.565 84.3026C137.091 84.5954 126.643 90.6778 126.762 103.332C126.893 118.467 140.03 123.507 140.181 123.564C140.063 123.924 138.081 130.742 133.256 137.784C129.087 143.884 124.768 149.95 117.952 150.077C111.255 150.199 109.096 146.103 101.446 146.103C93.7906 146.103 91.3945 149.95 85.0615 150.199C78.4821 150.448 73.4729 143.612 69.2729 137.545C60.687 125.129 54.1223 102.457 62.9371 87.157C67.3133 79.5584 75.1351 74.7443 83.622 74.62C90.0855 74.4978 96.181 78.9651 100.135 78.9651C104.032 78.9651 111.016 73.7575 119.249 74.3666C122.476 74.6057 131.635 75.5687 137.565 84.3026ZM114.169 66.1705C117.665 61.9447 120.018 56.0596 119.37 50.2061C114.338 50.4056 108.251 53.5582 104.642 57.7813C101.41 61.5223 98.5708 67.5139 99.3415 73.248C104.951 73.6814 110.675 70.3989 114.169 66.1705Z" fill="#F8F9FA"/>
</svg>
