<svg width="200" height="200" viewBox="0 0 200 200" fill="none" xmlns="http://www.w3.org/2000/svg">
<rect width="200" height="200" rx="100" fill="#120348"/>
<path d="M70.6229 86.7093C71.008 86.6737 71.3948 86.6818 71.7817 86.6812C79.5327 86.6807 87.2842 86.6818 95.0358 86.6807C95.0381 89.1389 95.0352 91.5971 95.0369 94.0553C78.3441 94.0541 61.6518 94.0512 44.959 94.0518C46.5711 91.607 48.1821 89.161 49.7949 86.7157C54.5234 86.7163 59.252 86.7157 63.9811 86.7163C63.9869 88.6015 63.97 90.4867 63.9893 92.3714C64.4129 90.6279 65.5063 89.0654 66.9744 88.0396C68.0445 87.284 69.3176 86.8195 70.6229 86.7093Z" fill="#F8F9FA"/>
<path d="M133.454 86.7368C134.017 86.6632 134.585 86.6843 135.151 86.6813C143.349 86.6819 151.547 86.6796 159.744 86.6825C159.743 89.1401 159.743 91.5978 159.744 94.0554C148.781 94.0571 137.819 94.0531 126.855 94.0496C126.887 92.0663 127.751 90.118 129.193 88.7585C130.349 87.6517 131.865 86.9264 133.454 86.7368Z" fill="#F8F9FA"/>
<path d="M96.2154 86.7161C98.6853 86.7161 101.155 86.7155 103.625 86.7161C103.625 89.1615 103.625 91.6068 103.625 94.0522C101.155 94.0516 98.6847 94.0534 96.2148 94.051C96.2154 91.6062 96.2143 89.1609 96.2154 86.7161Z" fill="#F8F9FA"/>
<path d="M119.368 94.0521C119.37 91.6062 119.364 89.1602 119.37 86.7148C121.839 86.7178 124.308 86.7148 126.777 86.716C126.778 89.1614 126.777 91.6062 126.778 94.0516C124.308 94.0527 121.838 94.0521 119.368 94.0521Z" fill="#F8F9FA"/>
<path d="M164.356 87.0021C165.378 86.7705 166.499 87.099 167.255 87.8184C167.988 88.5379 168.348 89.6249 168.173 90.6396C168.015 91.576 167.44 92.4524 166.591 92.9C165.639 93.4414 164.411 93.4379 163.46 92.8959C162.576 92.4268 161.985 91.4949 161.862 90.5118C161.751 89.6826 162.002 88.8243 162.501 88.158C162.949 87.5611 163.632 87.1632 164.356 87.0021ZM164.469 87.5173C163.641 87.6941 162.904 88.2735 162.586 89.0659C162.092 90.1494 162.461 91.5364 163.418 92.24C164.19 92.8241 165.282 92.9472 166.157 92.5254C166.941 92.1817 167.497 91.4173 167.645 90.5812C167.794 89.7643 167.527 88.8909 166.964 88.284C166.337 87.6282 165.358 87.3155 164.469 87.5173Z" fill="#F8F9FA"/>
<path d="M163.631 88.4508C164.268 88.4683 164.912 88.4053 165.544 88.5068C166.007 88.5792 166.348 89.0629 166.265 89.5238C166.203 89.9918 165.755 90.3273 165.299 90.3483C165.573 90.4504 165.743 90.6972 165.906 90.9248C166.12 91.2364 166.312 91.5619 166.514 91.8817C166.287 91.8817 166.062 91.8817 165.837 91.8817C165.584 91.4546 165.375 90.9913 165.037 90.6208C164.824 90.3781 164.473 90.4271 164.184 90.4236C164.184 90.9096 164.185 91.3962 164.184 91.8823C163.998 91.8817 163.815 91.8817 163.631 91.8817C163.631 90.7381 163.631 89.5944 163.631 88.4508ZM164.184 88.9141C164.184 89.2601 164.184 89.6061 164.185 89.9521C164.545 89.9434 164.911 89.9795 165.268 89.9107C165.465 89.8774 165.647 89.731 165.68 89.5268C165.738 89.2764 165.563 89.0127 165.315 88.9579C164.943 88.8855 164.561 88.9234 164.184 88.9141Z" fill="#F8F9FA"/>
<path d="M96.2145 94.3672C98.685 94.4932 101.155 94.6187 103.625 94.7494C103.626 97.7736 103.626 100.798 103.625 103.823C103.609 104.244 103.667 104.677 103.869 105.053C104.23 105.764 105.006 106.235 105.804 106.223C109.323 106.224 112.843 106.224 116.362 106.224C116.755 106.214 117.151 106.248 117.542 106.196C118.255 106.088 118.893 105.595 119.18 104.935C119.323 104.621 119.375 104.275 119.368 103.933C119.368 101.143 119.369 98.3524 119.368 95.5616C121.838 95.6853 124.307 95.8148 126.777 95.9426C126.778 99.2556 126.777 102.569 126.778 105.882C134.957 105.881 143.136 105.882 151.316 105.881C151.606 105.881 151.909 105.903 152.182 105.782C152.661 105.591 152.994 105.092 152.986 104.576C152.986 104.061 152.647 103.568 152.166 103.384C151.952 103.292 151.717 103.292 151.49 103.278C146.065 102.941 140.64 102.613 135.214 102.279C133.171 102.219 131.123 101.514 129.541 100.203C128.244 99.1296 127.314 97.6113 126.99 95.9548C135.585 96.3884 144.179 96.8336 152.777 97.1988C154.644 97.3254 156.444 98.1966 157.715 99.5683C158.75 100.671 159.443 102.091 159.661 103.587C159.777 104.34 159.738 105.103 159.741 105.862C159.721 107.718 158.968 109.549 157.69 110.893C156.313 112.366 154.326 113.249 152.307 113.256C143.757 113.258 135.207 113.255 126.657 113.257C126.652 111.271 126.661 109.284 126.652 107.298C126.295 109.164 125.187 110.87 123.624 111.95C122.365 112.836 120.819 113.295 119.281 113.257C114.34 113.256 109.399 113.256 104.459 113.256C103.757 113.252 103.051 113.285 102.357 113.163C100.561 112.877 98.8979 111.88 97.7806 110.449C97.0349 109.502 96.5278 108.369 96.323 107.182C95.9461 109.118 94.7704 110.879 93.132 111.976C92.2264 112.589 91.1849 113.001 90.1037 113.167C89.5465 113.26 88.9811 113.262 88.418 113.256C77.7175 113.256 67.0176 113.256 56.3171 113.256C56.316 107.229 56.3166 101.202 56.3166 95.1753C67.1909 95.8802 78.0641 96.5978 88.9379 97.3062C90.6055 97.305 92.2737 97.8512 93.5935 98.8758C94.8661 99.8508 95.8125 101.251 96.2151 102.805C96.2139 99.9925 96.2151 97.1796 96.2145 94.3672ZM63.9829 105.882C72.126 105.88 80.2697 105.882 88.4133 105.88C89.0178 105.889 89.5797 105.415 89.6801 104.82C89.7921 104.267 89.4875 103.669 88.9805 103.426C88.6806 103.266 88.3316 103.294 88.0037 103.266C82.4414 102.916 76.8779 102.576 71.315 102.23C69.7343 102.032 68.1805 101.484 66.8852 100.545C65.4772 99.5328 64.4036 98.0332 63.9893 96.3417C63.973 99.5217 63.9853 102.702 63.9829 105.882Z" fill="#F8F9FA"/>
<path d="M32.3008 113.256C36.4219 107.005 40.5425 100.754 44.663 94.502C47.504 94.6624 50.3444 94.827 53.1854 94.9932C49.2825 101.082 45.3737 107.168 41.4696 113.256C38.4133 113.258 35.3571 113.257 32.3008 113.256Z" fill="#F8F9FA"/>
</svg>
