<svg width="217" height="25" viewBox="0 0 217 25" fill="none" xmlns="http://www.w3.org/2000/svg">
<path fill-rule="evenodd" clip-rule="evenodd" d="M22.2559 5.16667C24.4428 8.39333 24.9921 13.13 23.2391 16.68C21.5981 20.6633 17.4412 23.46 13.169 23.785C8.78999 24.2183 5.06878 22.285 2.33254 19.0517C-0.403691 15.7183 -0.732581 10.0183 1.34587 6.25167C3.37007 2.6 6.88954 0.416667 10.8498 0H13.664C13.9353 0.0283333 14.2099 0.0633333 14.4828 0.108333C17.5463 0.861667 20.3944 2.58333 22.2559 5.16667ZM46.7769 1.505C48.4179 1.82833 50.3879 2.79667 50.9372 4.625C51.5932 6.24167 51.2643 8.28333 50.2794 9.68333C49.6216 10.2233 48.9655 11.0833 48.0924 11.3C49.7318 12.4833 50.6083 14.5283 50.059 16.68C49.7318 18.5133 48.4179 20.3383 46.5582 21.2C41.5231 23.1383 35.2843 21.9533 29.7 22.2767L34.296 1.4L46.7769 1.505ZM128.55 2.68833C130.737 4.51833 131.505 7.425 130.63 10.115C129.974 12.1483 128.55 14.415 126.251 15.165C123.624 16.1317 120.572 15.6983 117.504 15.8033L115.978 22.26H109.4L113.662 1.4C118.589 1.83 124.39 0.428334 128.55 2.68833ZM58.6017 16.7883L65.1676 16.895L64.0724 22.275H50.7168L55.4246 1.4H61.9923L58.6017 16.7883ZM215.906 6.88833H210.21L207.04 22.275H200.47L203.427 6.99167L197.626 6.88667L198.719 1.39667H217L215.906 6.885V6.88833ZM87.7153 22.275H81.0408L80.6 19.2617L73.5984 19.155L71.8454 22.275H64.6065L77.2043 1.4H83.7737L87.7136 22.2767L87.7153 22.275ZM137.858 15.2833C137.966 15.82 138.078 16.25 138.403 16.68C139.488 17.6467 141.353 17.435 142.557 16.8967C143.761 16.1433 143.981 14.9583 144.303 13.775L146.831 1.4H153.619L150.442 16.4667C149.896 18.5117 148.146 20.555 146.173 21.5233C141.796 23.03 135.665 23.3517 132.163 20.0167C131.18 18.7267 130.849 17.2167 130.959 15.4967L134.024 1.39667H140.592L137.856 15.28L137.858 15.2833ZM95.2713 15.2833C95.3815 15.82 95.4917 16.25 95.8205 16.68C96.9225 17.6467 98.7873 17.435 99.991 16.8967C101.195 16.1433 101.415 14.9583 101.747 13.775L104.36 1.4H111.034L107.861 16.4667C107.313 18.5117 105.562 20.555 103.588 21.5233C99.2146 23.03 93.1911 23.3517 89.5801 20.0167C88.59 18.7267 88.2612 17.2167 88.3764 15.4967L91.3263 1.39667H98.0058L95.2645 15.28L95.2713 15.2833ZM163.143 1.4C164.347 5.81 165.444 10.3333 166.758 14.6333L169.272 1.4H175.404L171.023 22.2767H164.128C162.924 17.865 161.609 13.56 160.405 9.255L157.998 22.2767H151.976L156.245 1.4H163.143ZM79.8354 14.42L79.0692 8.71667L76.3329 14.4217L79.8354 14.42ZM38.1308 13.5583L37.3645 17C39.5514 16.7883 42.3996 17.65 43.7117 15.605C43.9321 15.0667 43.7117 14.4217 43.3828 13.9883C41.9588 13.2383 39.8786 13.775 38.1274 13.56L38.1308 13.5583ZM119.468 6.67L118.594 10.5433C120.128 10.33 121.989 10.9767 123.193 9.89833C123.741 9.34833 124.176 8.715 124.176 7.84833C123.413 5.79833 121.003 7.09833 119.47 6.665L119.468 6.67ZM39.7718 6.35L39.114 9.14667C41.084 8.93 43.7117 9.9 44.8069 7.855C44.8069 7.53333 44.9154 6.995 44.5865 6.67167C43.1624 6.025 41.3027 6.455 39.7718 6.35ZM184.596 1.4C184.155 3.87333 183.612 6.24167 183.172 8.61C185.582 6.45667 187.771 3.76667 190.288 1.39833H198.172L188.976 10L195.215 22.2667H187.993L184.158 14.6267L181.424 16.9933L180.22 22.3767H173.869L178.347 1.4H184.585H184.596Z" fill="#3B3B3B"/>
<circle cx="12" cy="12" r="12" fill="#52A5DF"/>
</svg>
