<svg width="148" height="18" viewBox="0 0 148 18" fill="none" xmlns="http://www.w3.org/2000/svg">
<path d="M86.654 0.0127379C85.9248 0.0147709 85.2084 0.210318 84.5734 0.580615C83.9385 0.950913 83.4063 1.48353 83.028 2.12738L79.698 7.95539C78.995 9.16558 79.92 10.4968 81.1472 10.4968H92.6973L90.6253 14.1146C90.4772 14.3848 90.262 14.6093 90.0018 14.765C89.7416 14.9206 89.446 15.0017 89.1453 14.9999H87.357C87.2373 15.0012 87.1194 14.9706 87.0145 14.9112C86.9096 14.8517 86.8213 14.7653 86.7581 14.6604C86.6949 14.5554 86.6589 14.4354 86.6536 14.3119C86.6484 14.1885 86.674 14.0657 86.728 13.9554C86.9438 13.5605 87.4187 12.7452 87.4187 12.7452H76.9415L75.4245 15.4076C74.7153 16.6433 75.6588 17.9872 76.8552 17.9872H96.4282C97.1723 17.9897 97.9041 17.7911 98.551 17.4112C99.1979 17.0313 99.7373 16.4833 100.116 15.8216C100.856 14.5095 102.613 11.4267 103.366 10.1146C104.124 8.80889 103.168 7.50316 101.96 7.50316H90.4095L92.5493 3.77069C92.7055 3.52855 92.9173 3.33022 93.166 3.19349C93.4146 3.05676 93.6922 2.98589 93.9738 2.98725H95.7745C96.3603 2.98725 96.607 3.63693 96.422 3.97451C96.237 4.31209 95.7005 5.24202 95.7005 5.24202H106.159L107.725 2.50317C108.305 1.48407 107.584 0.00637198 106.245 0.00637198H86.6355L86.654 0.0127379ZM78.366 0.0127379H58.8115C57.3932 0.0127379 55.9132 0.777069 55.1608 2.10827C54.3962 3.42674 48.1925 14.2802 47.5142 15.4585C46.842 16.6369 47.7732 17.9872 48.9695 17.9872H68.561C70.1335 17.9872 71.521 17.0891 72.2117 15.8853C72.8962 14.6878 79.18 3.68789 79.8398 2.54777C80.4935 1.40127 79.6548 0 78.3598 0V0.0127379H78.366ZM68.5117 4.06368C68.2342 4.54776 63.0233 13.6496 62.7397 14.1592C62.5888 14.4189 62.3756 14.6339 62.1206 14.7835C61.8656 14.933 61.5775 15.012 61.2843 15.0127H59.4652C58.8855 15.0127 58.6142 14.363 58.8362 13.9745L64.6328 3.83438C64.7853 3.5795 64.9987 3.36943 65.2525 3.22441C65.5063 3.07939 65.7919 3.0043 66.082 3.00636H67.9073C68.4315 3.00636 68.7892 3.58597 68.5055 4.07005L68.5117 4.06368ZM50.5112 0.0127379H28.4283L19.8567 15.0063H0V17.9999H40.6877C41.4276 18.0041 42.1557 17.8088 42.8002 17.4335C43.4448 17.0582 43.9834 16.5158 44.363 15.8598L46.8913 11.4203C47.4155 10.4968 46.8667 9.31207 45.88 9.00634C46.6007 8.99329 47.3068 8.79483 47.9346 8.42894C48.5623 8.06305 49.0918 7.54126 49.4752 6.9108C50.1843 5.68151 51.3128 3.68788 51.9542 2.56687C52.1007 2.30745 52.1778 2.01246 52.1776 1.71212C52.1774 1.41178 52.1 1.11689 51.9531 0.857648C51.8063 0.59841 51.5954 0.384141 51.342 0.236796C51.0887 0.0894505 50.8019 0.0143257 50.5112 0.0191099V0.0127379ZM38.7883 11.5605L37.2898 14.1783C37.1432 14.4367 36.9331 14.6505 36.6808 14.7982C36.4285 14.9458 36.143 15.022 35.853 15.0191H30.303L32.8868 10.5095H38.1717C38.2936 10.5045 38.4146 10.5336 38.5218 10.5936C38.6291 10.6537 38.7187 10.7425 38.7812 10.8507C38.8437 10.959 38.8768 11.0826 38.877 11.2086C38.8771 11.3347 38.8444 11.4584 38.7822 11.5668L38.7883 11.5605ZM43.068 4.05731L41.5757 6.66877C41.4288 6.92644 41.2184 7.13936 40.9661 7.28591C40.7137 7.43246 40.4283 7.50742 40.1388 7.50316H34.5888L37.1665 2.99362H42.4575C43.0125 2.99362 43.3208 3.58597 43.0618 4.05731H43.068ZM112.098 0.0127379L101.818 17.9936H126.743L128.445 15.0063H113.985L116.562 10.5031H131.023L132.737 7.50953H118.277L120.854 2.99362H148V0.0127379H112.098Z" fill="#3B3B3B"/>
</svg>
