<svg width="114" height="24" viewBox="0 0 114 24" fill="none" xmlns="http://www.w3.org/2000/svg">
<g clip-path="url(#clip0_1062_15049)">
<path fill-rule="evenodd" clip-rule="evenodd" d="M92.006 16.8089C90.6968 20.7689 86.9606 23.6267 82.5547 23.6267C78.1488 23.6267 74.4117 20.7689 73.1034 16.8089C72.7828 15.8311 72.6046 14.784 72.6046 13.6978C72.6046 8.21333 77.0667 3.76889 82.5618 3.76889C88.057 3.76889 92.5101 8.21333 92.5101 13.6978C92.5101 14.784 92.3373 15.8311 92.0113 16.8089H92.006ZM103.445 23.2444H96.6586V7.22133H92.8646C92.8646 7.22133 98.2021 3.89422 100.11 3.89422C101.918 3.89422 103.255 5.28089 103.423 7.04978C106.083 5.61867 108.722 3.90311 110.536 3.90311C112.413 3.90311 113.939 5.39644 113.992 7.25422V23.2542H107.082V9.11111C107.082 8.07111 106.236 7.22667 105.194 7.22667C104.393 7.22667 103.71 7.72444 103.435 8.42667V23.2444H103.445ZM63.4561 9.10489C63.4561 8.06489 62.61 7.22044 61.568 7.22044C60.7664 7.22044 60.0807 7.71822 59.8046 8.42044V23.2444H53.0269V7.22133H49.0734C49.0734 7.22133 54.5775 3.89333 56.4834 3.89333C58.2914 3.89333 59.63 5.28 59.7965 7.04622C62.4595 5.61511 65.0958 3.89422 66.9126 3.89422C68.7892 3.89422 70.3148 5.38756 70.3683 7.24533V23.2453H63.457V9.112L63.4561 9.10489ZM48.8953 16.8089L50.8101 23.2444H44.0948L42.7749 18.8373C41.8914 21.376 38.9096 23.2436 35.3649 23.2436C31.1256 23.2436 27.6877 20.568 27.6877 17.2702C27.6877 17.1102 27.6967 16.9591 27.7091 16.808C28.0119 13.7236 31.3233 11.2969 35.3649 11.2969C37.661 11.2969 39.7201 12.0791 41.1273 13.3147L39.2988 7.21689H31.5922C31.5922 7.21689 32.8747 6.44978 38.5605 4.38489C44.2462 2.32089 46.048 7.21778 46.048 7.21778L48.8998 16.8089H48.8953ZM81.005 16.8089L81.9669 19.9804C81.9847 21.3404 83.1033 22.4267 84.4784 22.4267C85.8812 22.4267 87.0194 21.2907 87.0194 19.8889C87.0194 19.7911 87.014 19.6933 87.0034 19.5956L86.1858 16.808L83.318 7.01244C83.1755 5.74133 82.0978 4.75467 80.7904 4.75467C79.4954 4.75467 78.261 5.96356 78.1025 7.21244L81.0059 16.7982L81.005 16.8089ZM8.98017 16.8133C10.806 19.8 14.1547 21.8044 17.8775 21.8044C23.3816 21.8044 26.4133 17.0631 26.4133 17.0631L26.8051 18.3253C24.2579 21.6347 19.7015 23.6276 14.608 23.6276C8.74237 23.6276 3.68451 20.8364 1.35553 16.8098C0.489844 15.2978 0 13.6 0 11.8133C0 5.28889 6.54253 0 14.6152 0C20.3187 0 24.9108 2.43911 27.3208 5.97333L17.7502 11.6907L23.2124 3.32C21.6511 2.34044 19.7336 1.42222 17.7502 1.42222C12.1481 1.42222 7.53469 6.08889 7.53469 11.68C7.53469 13.5538 8.06639 15.3156 8.9864 16.8133H8.98017ZM34.6034 16.8107C34.5749 16.9973 34.5589 17.1911 34.5589 17.3884C34.5589 19.5093 36.2849 21.2311 38.4126 21.2311C40.5386 21.2311 42.2637 19.5093 42.2637 17.3876C42.2637 17.192 42.2486 17.0053 42.2192 16.8098C41.9431 14.9609 40.3426 13.5476 38.4126 13.5476C36.4818 13.5476 34.8822 14.9698 34.6043 16.8187L34.6034 16.8107Z" fill="#CC0000"/>
</g>
<defs>
<clipPath id="clip0_1062_15049">
<rect width="114" height="24" fill="white"/>
</clipPath>
</defs>
</svg>
