<svg width="91" height="45" viewBox="0 0 91 45" fill="none" xmlns="http://www.w3.org/2000/svg">
<g clip-path="url(#clip0_2304_64867)">
<path d="M30.6018 9.12037L33.7168 9.00913C30.7493 3.07769 24.5893 0.000732422 19.1268 0.000732422C8.71676 0.000732422 0.614258 8.90041 0.614258 20.652C0.614258 32.2924 8.82676 41.4879 19.2743 41.4879C24.9193 41.4879 30.8593 38.4463 33.8268 32.8132H30.7493C28.0368 37.0027 23.2718 39.0051 19.2393 39.0051C10.6618 39.0051 3.43926 30.8487 3.43926 20.6166C3.43926 10.5691 10.3668 2.59731 19.0193 2.59731C23.7843 2.59479 27.8143 4.96888 30.6018 9.12037ZM43.4668 22.657C43.5393 26.6972 46.2893 29.663 49.6643 29.663C52.2668 29.663 54.2093 27.9943 55.1618 25.0665H57.6168C56.8118 29.1826 53.2168 32.1104 49.5143 32.1104C44.7118 32.1104 40.7893 27.5139 40.7893 22.1008C40.7893 16.6497 44.5643 12.5715 49.4043 12.5715C54.4268 12.5715 58.0543 16.9076 58.1293 22.6545H43.4668V22.657ZM43.6168 20.2424H55.1268C54.6868 17.0542 52.1193 14.9406 49.3343 14.9406C46.7318 14.9431 44.4593 16.7963 43.6168 20.2424ZM72.0593 22.657C72.1693 26.6972 74.8443 29.663 78.2543 29.663C80.8943 29.663 82.7268 27.9943 83.7168 25.0665H86.2093C85.4393 29.1826 81.7368 32.1104 78.1068 32.1104C73.3043 32.1104 69.3443 27.5139 69.3443 22.1008C69.3443 16.6497 73.1568 12.5715 77.9968 12.5715C83.0193 12.5715 86.6468 16.9076 86.7218 22.6545H72.0593V22.657ZM72.2093 20.2424H83.6843C83.2443 17.0542 80.6768 14.9406 77.8918 14.9406C75.2868 14.9431 73.0518 16.7963 72.2093 20.2424Z" fill="black"/>
<path d="M32.3267 22.5405C32.3267 28.2115 28.5142 32.4768 23.8942 32.4768C19.0192 32.4768 15.0967 27.9915 15.0967 22.6163C15.0967 17.1299 19.0192 12.8671 23.8217 12.8671C28.5842 12.8646 32.3267 17.1274 32.3267 22.5405ZM23.8592 15.2412C20.8167 15.2412 17.5167 17.7999 17.5167 22.7301C17.5167 26.7729 20.4492 30.1457 23.7867 30.1457C27.1217 30.1457 29.8717 26.9195 29.8717 22.6189C29.8692 18.7278 27.3392 15.2412 23.8592 15.2412ZM42.6642 15.269V12.8975C42.0042 12.8242 41.7117 12.7862 41.4917 12.7862C39.9517 12.7862 38.4867 13.4158 36.7267 14.6774L36.5067 13.2691H34.0867L34.0492 31.7334H36.6517V19.681C36.6517 16.3057 38.1917 15.269 42.6642 15.269ZM57.9467 42.183C57.9467 43.8896 56.8092 45.0021 55.1592 45.0021C53.5842 45.0021 52.2642 43.8517 52.2642 42.2968C52.2642 40.7393 53.5467 39.4777 55.1242 39.4777C56.9192 39.4752 57.9467 40.6255 57.9467 42.183ZM55.1217 40.4486C54.0592 40.4486 53.3617 41.2273 53.3617 42.3018C53.3617 43.341 54.1317 44.1197 55.1567 44.1197C56.1467 44.1197 56.8792 43.3789 56.8792 42.3018C56.8869 42.0627 56.8472 41.8245 56.7625 41.6011C56.6779 41.3777 56.5499 41.1737 56.3862 41.001C56.2224 40.8284 56.0262 40.6906 55.8091 40.5957C55.5919 40.5008 55.3582 40.4508 55.1217 40.4486ZM52.0092 42.5167H50.9092C50.7317 43.7 50.2517 44.1096 49.1142 44.1096C48.0142 44.1096 47.3917 43.2954 47.3917 42.2563C47.3917 41.0351 48.1242 40.3651 49.2617 40.3651C50.1217 40.3651 50.7267 40.7646 50.9117 41.8113H51.9742C51.7542 40.3297 51.0567 39.4752 49.1517 39.4752C47.2442 39.4752 46.2917 40.7368 46.2917 42.2563C46.2917 43.8137 47.3192 44.9995 49.1892 44.9995C50.7617 44.9995 51.7792 44.1753 52.0092 42.5167ZM80.2342 42.0844V42.9743H81.1517C81.1517 43.6418 80.4192 43.9756 79.6117 43.9756C78.4742 43.9756 77.9617 43.4193 77.9617 42.3448C77.9617 40.9719 78.6942 40.4157 79.7592 40.4157C80.6392 40.4157 81.2617 40.8607 81.2617 41.8973H82.3992C82.2892 40.2286 81.4092 39.599 79.6867 39.599C77.7442 39.599 76.8642 40.6003 76.8642 42.3423C76.8642 43.7505 77.8167 44.9009 79.5042 44.9009C80.4192 44.9009 80.6042 44.7897 81.0792 44.4559L81.2992 44.7164H82.3617V42.0844H80.2342ZM53.5492 33.521H52.7042L53.7692 36.6359H54.7592L55.4917 34.4868L56.2617 36.6359H57.2142L58.2767 33.4856H57.2517L56.6642 35.7105L56.0792 33.521H54.9792L54.2442 35.7105L53.5492 33.521ZM65.4267 39.9277H63.6667V44.7088H64.8042V41.1135L67.2242 44.7088H68.7642V39.9277H67.6267V43.2272L65.4267 39.9277ZM73.0492 39.9277H71.2917V44.7088H72.4267V41.1135L74.8467 44.7088H76.3492V39.9277H75.2117V43.2272L73.0492 39.9277ZM61.1342 39.8165C62.5292 39.8165 63.1517 40.1123 63.1517 41.2248C63.1517 41.9655 62.8592 42.188 62.4192 42.3372C63.2617 42.5976 62.6767 43.5609 63.2617 44.7088H62.0892C61.6867 43.9301 62.0892 42.9288 61.1717 42.9288H59.4867V44.7088H58.3492V39.8139H61.1342V39.8165ZM59.4917 42.1147H60.9592C61.6917 42.1147 61.9492 41.9655 61.9492 41.336C61.9492 40.7444 61.7292 40.6306 61.1067 40.6306H59.4917V42.1147ZM37.6042 40.001C38.5142 40.001 39.3992 40.1679 39.3992 41.1868C39.4124 41.3719 39.3789 41.5574 39.302 41.7258C39.225 41.8943 39.1071 42.0403 38.9592 42.1501C39.2517 42.3347 39.3992 42.5951 39.3992 43.1134C39.3992 43.9654 39.1092 44.7062 37.8242 44.7062H34.5242V39.9985H37.6042V40.001ZM35.6242 42.6002V43.9705H37.5317C38.0817 43.9705 38.3742 43.7859 38.3742 43.3384C38.3742 42.7822 38.1167 42.5976 37.5692 42.5976H35.6242V42.6002ZM35.6242 41.8872H37.4942C37.9342 41.8872 38.1892 41.6268 38.1892 41.293C38.1892 40.9239 37.9692 40.7368 37.5667 40.7368H35.6242V41.8872ZM41.0917 40.001H39.8092L41.6417 42.9668V44.7088H42.7792V42.9668L44.7217 40.001H43.4367L42.2292 42.0035L41.0917 40.001ZM88.6342 31.028C87.5342 31.028 86.6192 30.1381 86.6192 29.0256C86.6192 27.9132 87.5342 27.0232 88.6342 27.0232C89.7342 27.0232 90.6142 27.9157 90.6142 29.0256C90.6142 30.1355 89.7317 31.028 88.6342 31.028ZM90.2392 29.0332C90.2392 28.1053 89.5442 27.3645 88.6267 27.3645C87.7092 27.3645 86.9767 28.1053 86.9767 29.0332C86.9767 29.9586 87.7092 30.664 88.6267 30.664C89.5442 30.664 90.2392 29.9611 90.2392 29.0332ZM89.1042 30.1103L88.5917 29.3315H88.2267V30.1103H87.8242V28.0724H88.6667C89.1792 28.0724 89.5092 28.2216 89.5092 28.702C89.5092 29.0357 89.2892 29.2203 89.0317 29.3315L89.5817 30.1103H89.1042ZM88.2267 28.9624H88.7767C88.9592 28.9624 89.0692 28.8512 89.0692 28.702C89.0692 28.5174 88.9592 28.4062 88.7767 28.4062H88.2267V28.9624ZM59.1167 33.521H60.4367L61.7192 36.6359H60.8767L60.5842 36.0417H58.9717L58.7517 36.6359H57.9092L59.1167 33.521ZM59.2292 35.3692H60.2917L59.8892 34.2946H59.6317L59.2292 35.3692ZM40.2767 33.521H39.2867L40.4967 36.6359H41.5592L42.8067 33.521H41.8167L41.0467 35.7838L40.2767 33.521ZM50.7217 34.9191V35.44H51.5642C51.5642 35.9203 51.4917 36.1808 50.7217 36.1808C50.1717 36.1808 49.6942 35.8091 49.6942 35.0304C49.6942 34.2896 50.1692 33.9558 50.7942 33.9558C51.2342 33.9558 51.4167 34.1404 51.4892 34.4741H52.3692C52.2217 33.7333 51.8567 33.3617 50.7567 33.3617C49.7292 33.3617 48.9592 33.9558 48.9592 35.0658C48.9592 36.1049 49.5842 36.7724 50.7192 36.7724C51.1942 36.7724 51.6342 36.5878 51.8567 36.5878C51.9667 36.5878 52.2217 36.6257 52.3692 36.6611V34.9191H50.7217ZM46.1492 33.521H44.9367V36.6359H45.7817V34.5601L47.0642 36.6359H48.3117V33.521H47.4692V35.5967L46.1492 33.521ZM62.1267 33.521H63.6667C64.3992 33.521 64.9492 33.7435 64.9492 34.373C64.9492 34.7801 64.7292 34.9646 64.4342 35.0759C64.6917 35.2251 64.8742 35.3363 64.8742 35.67V36.0771C64.8742 36.4462 64.9117 36.5221 65.0567 36.6333H64.0667C63.9942 36.5221 63.9942 36.4462 63.9942 36.2996V35.7813C63.9942 35.5588 63.8467 35.4096 63.5917 35.4096H63.0417V36.6333H62.1242L62.1267 33.521ZM63.0467 34.77H63.5617C63.8192 34.77 64.0367 34.732 64.0367 34.4741C64.0367 34.2896 63.8892 34.1404 63.6717 34.1404H63.0467V34.77ZM65.2517 6.52612H67.9642V31.3668H65.2517V6.52612ZM59.4192 6.52612H62.0592V31.3668H59.4192V6.52612ZM35.5517 33.521H34.6342V36.6359H36.9792V35.9684H35.5517V33.521ZM67.9592 33.521H65.6117V36.6359H67.9592V35.9684H66.4917V35.3388H67.7017V34.7093H66.4917V34.1884H67.9592V33.521ZM69.4642 39.9277H70.6017V44.7113H69.4642V39.9277ZM43.3892 33.521H44.3067V36.6359H43.3892V33.521ZM37.6767 33.521H38.5567V36.6359H37.6767V33.521Z" fill="black"/>
</g>
<defs>
<clipPath id="clip0_2304_64867">
<rect width="90" height="45" fill="white" transform="translate(0.614258)"/>
</clipPath>
</defs>
</svg>
