<svg width="141" height="35" viewBox="0 0 141 35" fill="none" xmlns="http://www.w3.org/2000/svg">
<g clip-path="url(#clip0_2304_64680)">
<path d="M137.911 9.06165C136.5 9.06165 135.308 10.1621 135.308 11.6534C135.308 13.1591 136.501 14.2611 137.911 14.2611C139.307 14.2611 140.5 13.1591 140.5 11.6534C140.5 10.1621 139.307 9.06165 137.911 9.06165ZM137.911 13.8286C136.738 13.8286 135.822 12.906 135.822 11.655C135.822 10.4232 136.738 9.49574 137.911 9.49574C139.07 9.49574 139.984 10.4232 139.984 11.655C139.985 12.906 139.07 13.8286 137.911 13.8286Z" fill="black"/>
<path d="M139.09 11.0142C139.09 10.4232 138.743 10.1621 138.045 10.1621H136.921V13.1606H137.368V11.86H137.882L138.662 13.1606H139.163L138.324 11.8408C138.757 11.7847 139.09 11.5508 139.09 11.0142ZM137.368 11.4755V10.5465H137.979C138.29 10.5465 138.621 10.6154 138.621 10.987C138.621 11.4467 138.283 11.4755 137.903 11.4755H137.368ZM30.133 10.806L29.7999 9.31951H23.207V28.647H30.133V18.916C30.133 17.0915 31.3313 14.0513 35.7265 14.4565V8.57626C34.5298 8.64354 31.7986 8.71082 30.133 10.806ZM75.8235 9.31951L71.0272 20.1317L66.2326 9.31951H59.0398L67.4324 28.1728L64.4344 34.9997H71.6272L82.9499 9.31951H75.8235ZM104.197 1.8855H111.124V28.647H104.197V1.8855Z" fill="black"/>
<path d="M51.5456 10.7631C50.0474 9.38872 48.0771 8.94022 45.7863 8.94022C44.469 8.94022 43.1645 9.20348 41.9475 9.71496C40.7304 10.2265 39.6246 10.9762 38.6931 11.9213C37.7616 12.8664 37.0227 13.9884 36.5186 15.2232C36.0144 16.4581 35.755 17.7815 35.755 19.1181C35.755 20.4547 36.0144 21.7782 36.5186 23.013C37.0227 24.2479 37.7616 25.3699 38.6931 26.315C39.6246 27.2601 40.7304 28.0098 41.9475 28.5213C43.1645 29.0328 44.469 29.296 45.7863 29.296C48.0629 29.296 50.3805 28.3093 51.8471 26.8228V28.6473H57.9742V9.31985H51.8471L51.5456 10.7631ZM46.983 23.8499C44.5612 23.8499 42.5973 21.7323 42.5973 19.1181C42.5973 16.504 44.5612 14.3864 46.983 14.3864C49.4064 14.3864 51.3703 16.504 51.3703 19.1181C51.3703 21.7323 49.408 23.8499 46.983 23.8499ZM127.875 10.7631C126.377 9.38872 124.406 8.94022 122.114 8.94022C119.453 8.94022 116.902 10.0125 115.021 11.9213C113.139 13.83 112.083 16.4188 112.083 19.1181C112.083 21.8175 113.139 24.4063 115.021 26.315C116.902 28.2237 119.453 29.296 122.114 29.296C124.392 29.296 126.71 28.3093 128.176 26.8228V28.6473H134.303V9.31985H128.176L127.875 10.7631ZM123.312 23.8499C120.889 23.8499 118.925 21.7323 118.925 19.1181C118.925 16.504 120.889 14.3864 123.312 14.3864C125.734 14.3864 127.698 16.504 127.698 19.1181C127.698 21.7323 125.734 23.8499 123.312 23.8499ZM92.2078 8.85212C84.7482 8.85212 81.1881 13.3884 81.1881 18.982C81.1881 24.5771 84.7498 29.1118 92.2078 29.1118C99.6689 29.1118 103.227 24.5771 103.227 18.982C103.227 13.3884 99.6673 8.85212 92.2078 8.85212ZM92.2078 23.7618C89.2113 23.7618 87.9088 21.6218 87.9088 18.9836C87.9088 16.3454 89.2097 14.2054 92.2078 14.2054C95.2058 14.2054 96.5067 16.3438 96.5067 18.9836C96.5067 21.6234 95.2042 23.7618 92.2078 23.7618ZM15.4128 6.88029C17.8567 6.88029 20.1412 7.76449 21.4831 8.8393L21.4815 1.33161C19.5762 0.451246 17.5064 -0.00273477 15.4128 0.000505505C7.32334 0.000505505 0.5 6.65283 0.5 14.8605C0.5 23.0682 7.32334 29.7205 15.4128 29.7205C17.5064 29.7236 19.5761 29.2696 21.4815 28.3894L21.4831 20.8801C20.1412 21.9549 17.8567 22.8391 15.4128 22.8391C14.38 22.8391 13.3574 22.6327 12.4032 22.2317C11.449 21.8307 10.5821 21.243 9.85178 20.502C9.12149 19.7611 8.54219 18.8814 8.14696 17.9133C7.75173 16.9452 7.54831 15.9076 7.54831 14.8597C7.54831 13.8118 7.75173 12.7742 8.14696 11.8061C8.54219 10.838 9.12149 9.95836 9.85178 9.21741C10.5821 8.47645 11.449 7.88869 12.4032 7.48768C13.3574 7.08668 14.38 6.88029 15.4128 6.88029Z" fill="black"/>
</g>
<defs>
<clipPath id="clip0_2304_64680">
<rect width="140" height="35" fill="white" transform="translate(0.5)"/>
</clipPath>
</defs>
</svg>
