<svg width="122" height="38" viewBox="0 0 122 38" fill="none" xmlns="http://www.w3.org/2000/svg">
<g clip-path="url(#clip0_1062_15041)">
<path d="M30.0203 18.8484C30.0203 21.3683 28.3031 23.3842 26.1566 23.3842C24.0102 23.3842 22.293 21.3683 22.293 18.8484C22.293 16.3285 24.0102 14.3126 26.1566 14.3126H30.0203V18.8484ZM34.3132 0.201172H30.0203V9.37359C28.5607 9.37359 27.1011 9.37359 26.1566 9.37359C21.692 9.37359 18.0859 13.607 18.0859 18.8484C18.0859 24.0898 21.692 28.3232 26.1566 28.3232C30.6213 28.3232 34.2274 24.0898 34.2274 18.8484C34.2274 16.2277 34.2274 9.37359 34.2274 9.37359L34.3132 0.201172Z" fill="#3B3B3B"/>
<path d="M76.9848 23.3846C79.1313 23.3846 80.8485 21.3687 80.8485 18.8488C80.8485 16.3289 79.1313 14.313 76.9848 14.313C74.8384 14.313 73.1212 16.3289 73.1212 18.8488C73.2071 21.3687 74.9242 23.3846 76.9848 23.3846ZM69 18.8488C69 13.6074 72.6061 9.37402 77.0707 9.37402C81.5354 9.37402 85.1414 13.6074 85.1414 18.8488C85.1414 24.0902 81.5354 28.3236 77.0707 28.3236C72.6061 28.3236 69 24.0902 69 18.8488Z" fill="#3B3B3B"/>
<path d="M98.621 18.8488C98.621 16.4297 96.9039 14.4138 94.8432 14.4138C92.7826 14.4138 91.0655 16.4297 91.0655 18.8488C91.0655 20.0584 91.0655 27.9204 91.0655 27.9204C88.919 27.9204 86.8584 27.9204 86.8584 27.9204C86.8584 27.9204 86.8584 21.4695 86.8584 18.8488C86.8584 13.6074 90.4645 9.37402 94.9291 9.37402C99.3937 9.37402 103 13.6074 103 18.8488C103 21.4695 103 27.9204 103 27.9204C103 27.9204 100.939 27.9204 98.7927 27.9204C98.621 27.9204 98.621 20.0584 98.621 18.8488Z" fill="#3B3B3B"/>
<path d="M59.126 15.6237C58.525 15.1198 58.6967 14.3134 59.727 14.011C61.0149 13.6078 63.2472 13.9102 65.1361 14.9182L67.1109 11.6927C66.2523 10.8863 64.3634 9.77758 61.6159 9.57599C61.6159 9.57599 56.9796 8.87042 55.0907 13.003C55.0907 13.003 53.4594 16.8333 56.722 19.2524C58.6967 20.6635 62.1311 21.2683 63.2472 21.8731C64.1058 22.4778 63.8483 23.5866 62.5604 23.889C60.3281 24.4938 57.4089 22.9818 56.4644 22.1755L54.4038 25.5017C55.7775 26.7113 57.4947 27.82 60.2422 28.324C60.2422 28.324 64.621 29.2312 67.025 25.7033C67.4543 25.0985 69.4291 20.7643 65.4796 18.2444C63.419 16.9341 60.1563 16.3293 59.126 15.6237Z" fill="#3B3B3B"/>
<path d="M39.3787 31.5492C39.5505 31.65 41.5252 33.2628 43.4141 33.2628C48.0505 33.3636 48.308 27.719 48.308 26.4086C47.4494 27.5174 45.6464 28.223 44.5303 28.223C40.0656 28.223 36.5454 24.1911 36.5454 18.9498C36.5454 16.3291 36.5454 9.77734 36.5454 9.77734C36.5454 9.77734 38.606 9.77734 40.7525 9.77734C40.7525 9.77734 40.7525 17.841 40.7525 18.9498C40.7525 21.3689 42.4697 23.3848 44.5303 23.3848C46.5909 23.3848 48.308 21.3689 48.308 18.9498C48.308 17.9418 48.308 9.77734 48.308 9.77734C50.4545 9.77734 52.5151 9.77734 52.5151 9.77734V18.9498C52.5151 27.1142 52.8585 35.4803 46.0757 37.3954C41.0101 38.8065 37.404 35.0771 37.1464 34.8755L39.3787 31.5492Z" fill="#3B3B3B"/>
</g>
<defs>
<clipPath id="clip0_1062_15041">
<rect width="85" height="38" fill="white" transform="translate(18)"/>
</clipPath>
</defs>
</svg>
