<svg width="70" height="39" viewBox="0 0 70 39" fill="none" xmlns="http://www.w3.org/2000/svg">
<g clip-path="url(#clip0_1062_15043)">
<path d="M68.2145 10.8425C69.4056 13.2545 70.0011 16.2722 70.0011 19.9125C70.0011 23.5529 69.3136 26.8112 67.9381 29.6875C66.5626 32.5635 64.677 34.8326 62.2813 36.4954C59.8855 38.1581 57.1578 38.9893 54.0973 38.9893C52.1734 38.9963 50.4424 38.7321 48.9038 38.1965C47.3653 37.661 45.9593 36.9974 44.6861 36.2057C43.413 35.414 42.2311 34.6219 41.1398 33.8294C40.0485 33.037 39.005 32.3749 38.009 31.8426C37.0134 31.3108 36.0122 31.0447 35.0056 31.0447C33.9989 31.0447 32.9978 31.3104 32.0021 31.8426C31.0065 32.3749 29.963 33.0352 28.8717 33.8243C27.7164 34.6559 26.5336 35.4484 25.3254 36.2005C24.0526 36.9955 22.6466 37.6591 21.108 38.1914C19.5695 38.7236 17.8433 38.9897 15.9286 38.9897C12.8663 38.9897 10.1352 38.1581 7.73575 36.4958C5.33631 34.8334 3.44922 32.5642 2.07375 29.6879C0.698279 26.8116 0.0103593 23.5532 0.0103593 19.9129C0.00115759 16.2877 0.594484 13.2667 1.79034 10.8499C2.98582 8.43307 4.66127 6.50014 6.81594 5.05109C8.97062 3.60241 11.5066 2.51544 14.425 1.79017C17.3434 1.06491 20.5464 0.5862 24.0353 0.353673C27.5242 0.121146 31.1799 0.00488281 35.0063 0.00488281C38.8327 0.00488281 42.4895 0.118932 45.9777 0.346661C49.4662 0.57439 52.6695 1.05089 55.588 1.77615C58.5056 2.50104 61.042 3.5906 63.1967 5.04408C65.3517 6.49755 67.0246 8.43048 68.2153 10.8429L68.2145 10.8425ZM63.5736 27.267C64.4573 25.1791 64.899 22.7276 64.899 19.9129C64.899 16.5221 64.2228 13.8351 62.8709 11.8523C61.519 9.86957 59.555 8.39579 56.9796 7.43099C54.4039 6.46618 51.269 5.83947 47.5747 5.55047C43.8804 5.26147 39.6911 5.11716 35.0067 5.11716C30.3223 5.11716 26.134 5.26147 22.4412 5.55047C18.7484 5.83947 15.6135 6.46618 13.0363 7.43099C10.4591 8.39579 8.49434 9.86957 7.14242 11.8523C5.79051 13.8351 5.11436 16.5221 5.11436 19.9129C5.11436 22.7276 5.55605 25.1791 6.43978 27.267C7.32314 29.355 8.56795 30.9723 10.1738 32.1195C11.7797 33.2666 13.6764 33.8402 15.8645 33.8402C17.515 33.8472 18.9847 33.5829 20.274 33.0473C21.5458 32.5211 22.7551 31.8541 23.8792 31.0587C24.9937 30.2688 26.1005 29.4819 27.1992 28.6987C28.2979 27.9155 29.4764 27.2552 30.7363 26.7185C31.9962 26.1819 33.4122 25.9136 35.0063 25.9136C36.6004 25.9136 38.0252 26.1819 39.2799 26.7185C40.5241 27.2495 41.7075 27.9134 42.8097 28.6987C43.9077 29.4819 45.0145 30.2685 46.129 31.0587C47.2435 31.8485 48.446 32.5096 49.7368 33.0418C51.0276 33.574 52.5028 33.8402 54.1624 33.8402C56.3414 33.8402 58.2333 33.2666 59.8391 32.1195C61.445 30.9723 62.6895 29.355 63.5732 27.267H63.5736Z" fill="#3B3B3B"/>
</g>
<defs>
<clipPath id="clip0_1062_15043">
<rect width="70" height="39" fill="white"/>
</clipPath>
</defs>
</svg>
