<svg width="127" height="24" viewBox="0 0 127 24" fill="none" xmlns="http://www.w3.org/2000/svg">
<g clip-path="url(#clip0_2304_64644)">
<path d="M84.6533 10.3075C80.1215 8.87174 78.1502 7.60596 78.4886 5.52232C78.8136 3.45557 81.0824 3.57858 83.2855 3.7476C85.463 3.92789 87.2376 4.40584 88.5321 4.82557C88.5558 4.84248 88.6319 4.82182 88.6471 4.74858C88.7621 3.99174 89.1784 1.98509 89.2915 1.29774C89.3086 1.21229 89.2269 1.17003 89.1841 1.1597C86.5333 0.450756 84.1124 3.37251e-05 81.2183 0.0526179C75.7978 0.145579 73.2782 2.30247 72.9702 6.80593C72.7887 9.43421 74.6316 12.3395 78.461 13.5921C82.2904 14.8447 85.023 15.5518 84.6257 17.8834C84.275 19.859 81.9169 20.0825 79.3611 19.937C77.1228 19.8017 75.2285 19.275 73.8161 18.8515C73.7144 18.8214 73.6526 18.8712 73.6289 18.9632C73.5234 19.7745 73.2259 21.8469 73.1242 22.5774C73.1204 22.6751 73.204 22.754 73.2468 22.7634C75.0137 23.1812 78.1417 23.7681 81.9882 23.7681C87.19 23.7681 89.8884 21.5643 90.1916 17.3444C90.4263 14.0701 88.8657 11.6474 84.6533 10.3075ZM61.1931 10.3075C56.6584 8.87174 54.6929 7.60596 55.0293 5.52232C55.3563 3.45557 57.6231 3.57858 59.8196 3.7476C61.9981 3.92789 63.7736 4.40584 65.0633 4.82557C65.1004 4.84248 65.1546 4.82182 65.1707 4.74858C65.3028 3.99174 65.7087 1.98509 65.8275 1.29774C65.83 1.26597 65.8206 1.2344 65.8012 1.20898C65.7818 1.18355 65.7536 1.16603 65.722 1.1597C63.0674 0.450756 60.6475 3.37251e-05 57.7581 0.0526179C52.3367 0.145579 49.8189 2.30247 49.5005 6.80593C49.3218 9.43514 51.1667 12.3423 54.9885 13.5949C58.8131 14.8476 61.5447 15.5537 61.1607 17.8834C60.8119 19.86 58.4557 20.0825 55.8961 19.9379C53.6474 19.8046 51.7654 19.274 50.3436 18.8524C50.2523 18.8224 50.1839 18.8721 50.1649 18.9623C50.0603 19.7764 49.7609 21.8478 49.6611 22.5803C49.6583 22.676 49.7324 22.7568 49.779 22.7643C52.6419 23.4308 55.5733 23.7679 58.5147 23.769C63.7213 23.769 66.413 21.5652 66.719 17.3434C66.9623 14.0701 65.4007 11.6474 61.1931 10.3075ZM16.4549 0.570009H0.743818C0.723985 0.569383 0.704224 0.572672 0.685693 0.579682C0.667162 0.586693 0.650232 0.597284 0.635894 0.610837C0.621556 0.62439 0.610098 0.640632 0.602191 0.658613C0.594284 0.676594 0.590086 0.695952 0.589844 0.715555V23.2244C0.589844 23.307 0.650673 23.3747 0.743818 23.3747H5.96374C5.98346 23.3745 6.00295 23.3705 6.02108 23.3629C6.03921 23.3552 6.05562 23.3441 6.06934 23.3301C6.08305 23.3161 6.09381 23.2996 6.10098 23.2814C6.10814 23.2633 6.11157 23.2439 6.11106 23.2244V14.8006C6.11106 14.7236 6.1795 14.6504 6.26504 14.6504H15.3182C15.4056 14.6504 15.474 14.5903 15.474 14.5095V11.0277C15.474 10.9868 15.4577 10.9475 15.4284 10.9185C15.3992 10.8894 15.3596 10.873 15.3182 10.8728H6.26504C6.24475 10.873 6.22461 10.8692 6.20581 10.8617C6.18702 10.8541 6.16994 10.8429 6.15559 10.8288C6.14124 10.8146 6.12991 10.7977 6.12226 10.7792C6.11462 10.7606 6.11081 10.7407 6.11106 10.7206V4.49974C6.11106 4.41992 6.1795 4.3495 6.26504 4.3495H16.588C16.6076 4.34975 16.6271 4.34611 16.6452 4.33878C16.6634 4.33145 16.6799 4.32058 16.6937 4.30683C16.7076 4.29308 16.7185 4.27672 16.7258 4.25872C16.7331 4.24072 16.7366 4.22146 16.7363 4.20208L16.6165 0.716494C16.6051 0.641373 16.531 0.570009 16.4549 0.570009ZM102.971 0.553107H97.5852C97.4902 0.553107 97.4331 0.616959 97.4331 0.699592V23.2272C97.4331 23.3061 97.4911 23.3671 97.5852 23.3671H102.971C103.056 23.3671 103.117 23.3061 103.117 23.2272V0.699592C103.117 0.680375 103.114 0.661255 103.107 0.643377C103.1 0.625498 103.089 0.609231 103.075 0.595551C103.062 0.581871 103.045 0.57106 103.027 0.563767C103.009 0.556473 102.99 0.552847 102.971 0.553107ZM126.269 19.5257H117.34C117.3 19.5252 117.263 19.5097 117.235 19.4824C117.207 19.455 117.19 19.4181 117.189 19.3792L117.187 0.736213C117.187 0.643251 117.125 0.585033 117.035 0.585033H111.658C111.637 0.584387 111.617 0.587848 111.598 0.595205C111.579 0.602561 111.562 0.613658 111.548 0.627814C111.533 0.64197 111.522 0.658887 111.514 0.677527C111.507 0.696167 111.503 0.716137 111.504 0.736213V23.2263C111.504 23.3052 111.576 23.3643 111.658 23.3643H126.091C126.175 23.3643 126.247 23.3052 126.251 23.2263L126.424 19.6844C126.422 19.5923 126.362 19.5257 126.269 19.5257ZM32.9596 0.073276C25.892 0.073276 22.036 4.65374 22.036 12.039C22.036 19.4168 25.8939 24 32.9596 24C40.0244 24 43.8776 19.4168 43.8776 12.039C43.8776 4.54387 40.1242 0.073276 32.9596 0.073276ZM32.9596 20.2262C28.1598 20.2262 27.4955 16.2889 27.4955 12.039C27.4955 7.7947 28.1598 3.85652 32.9596 3.85652C37.7538 3.85652 38.4134 7.79283 38.4134 12.039C38.4134 16.288 37.7538 20.2262 32.9596 20.2262Z" fill="black"/>
</g>
<defs>
<clipPath id="clip0_2304_64644">
<rect width="126" height="24" fill="white" transform="translate(0.5)"/>
</clipPath>
</defs>
</svg>
