<svg width="200" height="200" viewBox="0 0 200 200" fill="none" xmlns="http://www.w3.org/2000/svg">
<rect width="200" height="200" rx="100" fill="#120348"/>
<g clip-path="url(#clip0_579_12202)">
<path d="M155.167 101.048C155.167 96.4596 154.795 93.1111 153.989 89.6387H101.592V110.349H132.348C131.728 115.496 128.379 123.247 120.938 128.456L120.834 129.149L137.401 141.983L138.549 142.098C149.09 132.362 155.167 118.038 155.167 101.048Z" fill="#F8F9FA"/>
<path d="M101.591 155.615C116.659 155.615 129.309 150.654 138.548 142.097L120.938 128.455C116.225 131.741 109.9 134.036 101.591 134.036C86.8334 134.036 74.3077 124.301 69.8427 110.845L69.1882 110.9L51.9616 124.232L51.7363 124.858C60.9135 143.089 79.7641 155.615 101.591 155.615Z" fill="#F8F9FA"/>
<path d="M69.8423 110.845C68.6641 107.373 67.9823 103.652 67.9823 99.8075C67.9823 95.9627 68.6641 92.2424 69.7803 88.7699L69.7491 88.0304L52.3066 74.4844L51.7359 74.7558C47.9535 82.321 45.7832 90.8163 45.7832 99.8075C45.7832 108.799 47.9535 117.294 51.7359 124.859L69.8423 110.845Z" fill="#F8F9FA"/>
<path d="M101.591 65.5788C112.071 65.5788 119.139 70.1054 123.17 73.8882L138.92 58.51C129.247 49.5188 116.659 44 101.591 44C79.7641 44 60.9135 56.5256 51.7363 74.756L69.7807 88.7701C74.3077 75.3143 86.8334 65.5788 101.591 65.5788Z" fill="#F8F9FA"/>
</g>
<defs>
<clipPath id="clip0_579_12202">
<rect width="109.435" height="112" fill="white" transform="translate(45.7832 44)"/>
</clipPath>
</defs>
</svg>
