<svg width="122" height="35" viewBox="0 0 122 35" fill="none" xmlns="http://www.w3.org/2000/svg">
<g clip-path="url(#clip0_1062_15046)">
<path d="M0.376953 27.4898C0.896814 20.7033 1.37356 13.9129 1.91498 7.12891C3.50246 7.15056 5.08994 7.12891 6.67742 7.1391C7.10979 7.14165 7.60556 7.2958 7.8097 7.71494C7.99102 8.02197 7.95425 8.39398 7.94157 8.73541C7.80336 10.5699 7.66008 12.4045 7.52948 14.239C10.4661 14.2403 13.4026 14.2403 16.3392 14.239C16.5345 11.8707 16.6828 9.49725 16.887 7.13018C18.9309 7.15694 20.9761 7.11489 23.0201 7.15057C22.4939 13.9269 22.0019 20.7058 21.4909 27.4847C19.447 27.4962 17.403 27.486 15.3591 27.4898C15.5683 24.4832 15.808 21.4791 16.026 18.4738C13.0857 18.4852 10.144 18.461 7.20362 18.4852C6.99948 21.488 6.74842 24.487 6.54555 27.4898C4.48893 27.4898 2.43357 27.4885 0.376953 27.4898ZM25.0716 10.9967C25.1718 9.70746 25.2365 8.41436 25.3683 7.12891C26.9976 7.15311 28.627 7.12381 30.255 7.14292C30.7825 7.11999 31.2707 7.52894 31.2656 8.07421C31.2618 9.04753 31.1439 10.0183 31.0855 10.9904C29.0809 10.9955 27.0763 10.9853 25.0716 10.9967ZM34.7499 13.3574C36.5136 12.5434 38.4878 12.4058 40.3999 12.3319C43.0297 12.3051 45.6607 12.5548 48.2435 13.053C48.1674 14.076 48.0482 15.0952 47.9696 16.1182C45.6835 15.699 43.3682 15.3487 41.0377 15.4073C40.4012 15.4302 39.7507 15.434 39.1345 15.6188C38.9367 15.6914 38.6869 15.7678 38.6248 15.9959C38.5018 16.3144 38.7896 16.5794 39.0166 16.7513C39.591 17.1514 40.2566 17.3858 40.8919 17.6673C42.9498 18.6024 45.1307 19.3643 46.9489 20.7453C47.5207 21.2039 48.0279 21.7849 48.2549 22.4958C48.6099 23.613 48.3018 24.9278 47.4485 25.7393C46.5711 26.5878 45.3716 26.9764 44.2051 27.2235C42.3716 27.5904 40.4887 27.6312 38.6261 27.5484C36.4274 27.4681 34.2275 27.3484 32.0466 27.049C32.0885 25.9253 32.1595 24.7889 32.2406 23.678C32.493 23.794 32.7706 23.8334 33.0433 23.8768C35.233 24.2144 37.4405 24.5036 39.6607 24.4946C40.2579 24.4602 40.8754 24.4832 41.446 24.2781C41.7427 24.1838 41.9519 23.8245 41.7871 23.5341C41.5601 23.1952 41.1658 23.0308 40.8145 22.8588C39.274 22.1913 37.703 21.5989 36.1738 20.9045C35.0377 20.3797 33.8814 19.7745 33.0648 18.7948C32.3636 17.9642 32.1113 16.7832 32.4283 15.7385C32.7504 14.6149 33.7203 13.8161 34.7499 13.3574ZM92.7094 12.5153C96.1607 12.1038 99.6615 12.4223 103.067 13.0542C102.979 14.0785 102.873 15.1028 102.785 16.1271C100.211 15.629 97.5821 15.271 94.9562 15.4468C94.4642 15.5003 93.919 15.5283 93.5196 15.8583C93.3104 16.0952 93.4498 16.4443 93.6705 16.6189C94.1003 16.9858 94.6354 17.1947 95.1451 17.4253C96.8695 18.1744 98.6155 18.8815 100.275 19.7707C101.149 20.2599 102.034 20.8103 102.632 21.6358C103.492 22.7748 103.384 24.5087 102.436 25.5622C101.664 26.4222 100.542 26.8553 99.4473 27.1293C97.0128 27.7089 94.4883 27.6121 92.0094 27.4898C90.2901 27.4095 88.572 27.2745 86.8641 27.0566C86.9034 25.9495 86.9858 24.845 87.0556 23.7404C89.7791 24.18 92.5382 24.6068 95.3061 24.4552C95.7474 24.3978 96.3294 24.4169 96.6083 24.0042C96.8442 23.5226 96.3103 23.1824 95.9414 23.0104C93.9913 22.0995 91.9359 21.4243 90.0226 20.4319C89.0107 19.8828 87.9976 19.1898 87.4537 18.1374C86.8197 16.8838 87.1063 15.2302 88.1523 14.2862C89.3937 13.1561 91.0914 12.737 92.7094 12.5153ZM56.1073 12.7103C58.5684 12.1573 61.254 12.2108 63.5451 13.3613C65.0363 14.0849 66.3068 15.3359 66.8723 16.9195C67.3896 18.3056 67.3668 19.8255 67.1474 21.2702C63.0583 21.2931 58.9691 21.2715 54.88 21.2804C54.951 22.4652 55.8157 23.4512 56.8554 23.9328C58.2413 24.5825 59.8174 24.673 61.3237 24.5902C63.1153 24.5138 64.8955 24.2539 66.6491 23.8831C66.4843 24.9138 66.3423 25.947 66.1711 26.9764C63.4462 27.7191 60.5908 27.8847 57.7823 27.7204C55.5127 27.5089 53.0909 27.1101 51.3031 25.5699C49.8944 24.3889 49.2033 22.5263 49.2173 20.7109C49.1589 18.7082 50.0452 16.7615 51.3944 15.3194C52.6357 13.969 54.336 13.1065 56.1073 12.7103ZM56.9645 15.8035C55.9755 16.322 55.3478 17.3476 55.1259 18.4241C57.5249 18.4687 59.9251 18.433 62.3254 18.4419C62.3507 17.3603 61.8347 16.2112 60.8343 15.7232C59.6297 15.1448 58.1487 15.1945 56.9645 15.8035ZM108.187 13.7587C110.004 12.7204 112.131 12.3586 114.199 12.3675C116.547 12.4236 118.994 13.2466 120.587 15.0455C122.056 16.7068 122.377 19.1159 121.948 21.232C121.803 21.3313 121.6 21.26 121.436 21.2829C117.527 21.274 113.617 21.2816 109.708 21.2804C109.757 22.4244 110.577 23.3888 111.57 23.8768C112.965 24.5685 114.57 24.6781 116.101 24.5915C117.907 24.5138 119.704 24.2602 121.47 23.878C121.309 24.9036 121.15 25.9292 121.008 26.9585C119.092 27.5306 117.083 27.7115 115.093 27.7752C113.177 27.8249 111.248 27.6694 109.385 27.2031C107.797 26.7827 106.232 25.9776 105.241 24.6233C104.098 23.0754 103.828 21.0154 104.179 19.1554C104.666 16.8928 106.183 14.8888 108.187 13.7587ZM112.094 15.6557C110.946 16.1194 110.163 17.2393 109.954 18.4432C112.356 18.4445 114.76 18.4445 117.164 18.4432C117.154 17.4062 116.71 16.3169 115.779 15.792C114.659 15.1831 113.262 15.1856 112.094 15.6557ZM69.1685 13.2364C72.1672 12.8899 75.1786 12.6096 78.1976 12.5497C79.6748 12.5803 81.1697 12.5867 82.619 12.9128C83.5687 13.123 84.5196 13.5817 85.0801 14.4123C85.7407 15.392 85.8523 16.6316 85.7698 17.782C85.5644 21.0396 85.3844 24.2997 85.1625 27.556C83.2948 27.5522 81.4271 27.5509 79.5607 27.5573C79.7407 24.2564 79.9677 20.9581 80.1591 17.6584C80.1782 17.1004 80.0755 16.4507 79.5974 16.1003C79.0408 15.7156 78.3333 15.699 77.6828 15.7016C76.6558 15.7029 75.63 15.8035 74.6131 15.9411C74.3874 19.8051 74.1389 23.6678 73.936 27.5318C72.0569 27.5828 70.1765 27.5382 68.2974 27.5548C68.5612 22.7799 68.8731 18.0088 69.1685 13.2364ZM23.8214 27.4872C24.1904 22.5505 24.5467 17.6138 24.922 12.6771C26.9266 12.6835 28.9313 12.6771 30.9372 12.6809C30.5796 17.6138 30.2081 22.5454 29.8505 27.4796C27.8408 27.5013 25.8311 27.486 23.8214 27.4872Z" fill="#00A9A6"/>
</g>
<defs>
<clipPath id="clip0_1062_15046">
<rect width="122" height="35" fill="white"/>
</clipPath>
</defs>
</svg>
