<svg width="200" height="200" viewBox="0 0 200 200" fill="none" xmlns="http://www.w3.org/2000/svg">
<rect width="200" height="200" rx="100" fill="#120348"/>
<g clip-path="url(#clip0_579_12198)">
<path d="M100.531 155H98.9091L110.077 124.365H125.426C128.109 124.365 131.041 122.306 131.977 119.748L144.081 86.5553C146.078 81.1271 142.958 76.6971 137.155 76.6971H115.817L97.973 125.738L87.8655 153.565C63.8442 147.888 46 126.299 46 100.532C46 75.5117 62.846 54.423 85.8064 47.9965L75.3869 76.6971L58.0418 124.365H69.5844L84.3716 83.873H93.044L78.2572 124.366H89.7998L103.526 86.5557C105.523 81.1275 102.403 76.6976 96.6001 76.6976H86.8673L98.0352 46.0627C98.8468 46 99.6575 46 100.469 46C130.604 46 155 70.3956 155 100.532C155.062 130.605 130.667 155 100.531 155ZM133.537 83.8094H124.864L112.698 117.127H121.37L133.537 83.8094Z" fill="#F8F9FA"/>
</g>
<defs>
<clipPath id="clip0_579_12198">
<rect width="109" height="109" fill="white" transform="translate(46 46)"/>
</clipPath>
</defs>
</svg>
