<svg width="108" height="38" viewBox="0 0 108 38" fill="none" xmlns="http://www.w3.org/2000/svg">
<path fill-rule="evenodd" clip-rule="evenodd" d="M0.617188 0.18103H107.382V37.8201H0.617188V0.18103ZM1.70317 19.0913C1.70317 9.54686 25.1976 1.80972 54.1808 1.80972C83.1634 1.80972 106.658 9.54686 106.658 19.0913C106.658 28.6358 83.1634 36.3729 54.1808 36.3729C25.1982 36.3729 1.70317 28.6358 1.70317 19.0913Z" fill="#2360A5"/>
<path fill-rule="evenodd" clip-rule="evenodd" d="M1.70312 19.0907C1.70312 9.54622 25.1976 1.80908 54.1808 1.80908C83.1634 1.80908 106.658 9.54622 106.658 19.0907C106.658 28.6351 83.1634 36.3723 54.1808 36.3723C25.1982 36.3723 1.70312 28.6351 1.70312 19.0907Z" fill="#F6D33C"/>
<path fill-rule="evenodd" clip-rule="evenodd" d="M16.0298 11.9654H25.358C25.358 11.9654 25.1092 12.3569 25.1092 12.846V24.8546C25.1092 25.5068 25.3888 26.0615 25.3888 26.0615H15.999C15.999 26.0615 16.2787 25.5063 16.2787 24.9516V12.9435C16.2787 12.487 16.0298 11.9654 16.0298 11.9654ZM30.0021 11.9974H38.872C38.872 11.9974 38.6232 12.4151 38.6232 12.8014V17.11L41.7665 13.0908C41.7665 13.0908 41.9536 12.8014 41.9536 12.5121V12.0619H50.9788L47.1507 17.3993C47.1507 17.3993 46.9641 17.6242 46.9641 17.7851C46.9641 17.946 47.1199 18.1709 47.1199 18.1709L52.0374 25.9839H41.1747C41.1747 25.9839 41.3619 25.6952 41.3619 25.4053C41.3619 25.1165 41.1747 24.7621 41.1747 24.7621L38.5913 20.55V25.1165C38.5913 25.5023 38.8715 26.0159 38.8715 26.0159H30.0021C30.0021 26.0159 30.2509 25.6626 30.2509 25.2769V12.8009C30.2509 12.4157 30.0021 11.9974 30.0021 11.9974ZM54.679 12.095H70.5453V16.3567C70.5453 16.3567 70.2029 16.0411 69.7687 16.0411H63.2659V17.2087H68.9281V20.9654C68.9281 20.9654 68.5548 20.6499 68.1502 20.6499H63.2037V21.9441H69.8611C70.2343 21.9441 70.4529 21.3444 70.4529 21.3444V26.0159H54.679C54.679 26.0159 54.9598 25.6056 54.9598 25.3214V13.137C54.9604 12.6314 54.679 12.095 54.679 12.095ZM77.5651 11.942H90.2511C90.2511 11.942 90.0023 12.5292 90.0023 12.8557C90.0023 13.1821 90.2197 13.7693 90.2197 13.7693L95.2879 26.0387H85.7737C85.7737 26.0387 85.9911 25.6797 85.8661 25.3864C85.6041 24.7348 85.3452 24.082 85.0894 23.4279H81.1718C81.1718 23.4279 80.394 25.1576 80.394 25.4846C80.394 25.8099 80.6439 26.0718 80.6439 26.0718H72.8075L77.7204 13.2471C77.7204 13.2471 77.9076 12.9858 77.9076 12.6599C77.9076 12.3341 77.5651 11.942 77.5651 11.942ZM82.9443 18.2074L82.0112 20.7201H84.0634L82.9443 18.2074Z" fill="#2360A5"/>
</svg>
