<svg width="50" height="36" viewBox="0 0 50 36" fill="none" xmlns="http://www.w3.org/2000/svg">
<path d="M0 0.000267602L4.21271 12.2644L8.42458 0.000267602H0ZM4.21271 20.3131C5.66729 20.3131 6.84937 18.8019 6.84937 16.9443C6.84937 15.0776 5.66729 13.5723 4.21271 13.5723C2.75375 13.5723 1.575 15.0776 1.575 16.9443C1.575 18.8019 2.75375 20.3131 4.21271 20.3131ZM1.93417 29.295C1.93417 31.853 3.73 36 8.83875 36C13.949 36 15.7458 32.8273 15.7458 29.295V0.000267602H11.186L11.1883 30.3126C11.1883 31.9684 10.139 33.357 8.84229 33.357C7.54417 33.357 6.4925 32.0088 6.4925 30.3532L6.48917 24.1779H1.93417V29.295ZM19.2019 35.4733V0.000267602H28.3154C30.074 0.000267602 32.8717 1.85223 32.8717 5.78011V11.8226C32.8717 13.5896 31.6637 16.7206 29.8692 16.7206C31.6637 16.7206 32.8717 18.704 32.8717 20.2067V30.8396C32.8717 32.648 31.7335 35.4733 28.3154 35.4733H19.2019ZM26.244 15.2727C27.9012 15.2727 28.3156 14.9146 28.3156 9.35416C28.3156 3.79532 27.901 3.35198 26.244 3.35198H23.7548V15.2641L26.244 15.2727ZM28.3156 25.4566C28.3156 19.8949 28.3156 18.2663 26.5165 18.2663H23.7548V32.5588L26.5162 32.566C28.3154 32.566 28.3156 31.0141 28.3156 25.4566ZM36.1885 35.4733H50V24.1779H45.4404L45.4437 30.353C45.4437 32.0088 44.3923 33.357 43.0952 33.357C41.7994 33.357 40.7467 32.0088 40.7467 30.3532V0H36.1883L36.1885 35.4733Z" fill="#FF3300"/>
</svg>
