<svg width="87" height="66" viewBox="0 0 87 66" fill="none" xmlns="http://www.w3.org/2000/svg">
<path fill-rule="evenodd" clip-rule="evenodd" d="M43.2807 14.0797C64.4638 14.5758 81.429 24.4481 81.132 36.0071C80.8834 47.6153 63.3724 56.6933 42.2394 56.1968C21.0563 55.7003 4.04092 45.8289 4.33881 34.2211C4.6358 22.6617 22.1472 13.5833 43.2807 14.0797Z" fill="#0094D6"/>
<path fill-rule="evenodd" clip-rule="evenodd" d="M43.3302 14.5756C63.0247 15.0716 78.8987 24.5467 78.6509 35.7582C78.353 46.9201 62.0322 55.6509 42.3377 55.1549C22.5935 54.709 6.76831 45.1837 7.01655 34.0228C7.31444 22.8601 23.586 14.0795 43.3302 14.5756Z" fill="white"/>
<path fill-rule="evenodd" clip-rule="evenodd" d="M40.9984 8.96979C42.189 8.96979 43.1816 7.87843 43.1816 6.53883C43.1816 5.19969 42.189 4.05823 40.9984 4.05823C39.8574 4.05823 38.8653 5.19923 38.8653 6.53883C38.8649 7.87843 39.8574 8.96979 40.9984 8.96979ZM36.9805 8.47376C37.774 8.47376 38.4189 7.72994 38.4189 6.83672C38.4189 5.94351 37.774 5.19969 36.9805 5.19969C36.1369 5.19969 35.4919 5.94351 35.4919 6.83672C35.4919 7.72994 36.1369 8.47376 36.9805 8.47376ZM33.8053 9.41618C34.4999 9.41618 35.0952 8.82085 35.0952 8.02693C35.0952 7.23301 34.4999 6.63768 33.8053 6.63768C33.1106 6.63768 32.5158 7.23301 32.5158 8.02693C32.5158 8.82085 33.1106 9.41618 33.8053 9.41618ZM31.1261 10.7553C31.7214 10.7553 32.2174 10.2096 32.2174 9.51547C32.2174 8.82085 31.7209 8.27517 31.1261 8.27517C30.5312 8.27517 30.0347 8.82085 30.0347 9.51547C30.0351 10.2096 30.5312 10.7553 31.1261 10.7553ZM29.1419 12.7399C29.638 12.7399 30.0843 12.2935 30.0843 11.6485C30.0843 11.0537 29.638 10.5572 29.1419 10.5572C28.5958 10.5572 28.1494 11.0537 28.1494 11.6485C28.1494 12.2931 28.5962 12.7399 29.1419 12.7399Z" fill="#A6D7F6"/>
<path fill-rule="evenodd" clip-rule="evenodd" d="M29.6882 14.0792C30.5313 10.3588 37.7741 8.12639 40.5521 9.76343C43.9751 12.1447 40.9488 13.9804 41.0486 16.4605C41.1975 18.4451 40.8996 20.38 40.9989 22.4138C41.2968 26.8289 34.7979 26.5315 34.3515 23.6045C33.1604 17.0058 29.0436 17.9983 29.6882 14.0792ZM55.1374 1.03211C56.1299 1.67708 56.3276 3.16518 55.5341 4.25654C54.7903 5.39754 53.3514 5.74463 52.3598 5.09965C51.3673 4.40503 51.2183 2.91694 51.9622 1.82558C52.706 0.68502 54.1449 0.337483 55.1374 1.03211ZM57.915 4.30618C58.5604 4.75257 58.7094 5.69498 58.2129 6.43925C57.7164 7.18353 56.7248 7.43132 56.0794 6.98493C55.3847 6.48845 55.2358 5.54604 55.7815 4.80221C56.278 4.05794 57.2213 3.81015 57.915 4.30618ZM59.7511 7.23317C60.346 7.67956 60.4949 8.52313 60.0481 9.1681C59.6021 9.76343 58.7586 9.96202 58.1632 9.56484C57.5675 9.1681 57.4185 8.32453 57.8653 7.67956C58.3126 7.03458 59.1553 6.83644 59.7511 7.23317ZM61.041 10.1602C61.5366 10.5073 61.6359 11.2515 61.2888 11.7972C60.8921 12.3429 60.1474 12.541 59.6518 12.1939C59.1553 11.8464 59.0569 11.1026 59.4536 10.5569C59.8504 10.0112 60.5445 9.81263 61.041 10.1602ZM61.4378 13.186C61.8837 13.4839 61.9834 14.1781 61.6359 14.6745C61.2884 15.1706 60.6434 15.3195 60.197 15.0216C59.7511 14.6745 59.6513 14.0296 59.9989 13.5335C60.3464 13.0375 60.9905 12.8886 61.4378 13.186Z" fill="#A6D7F6"/>
<path fill-rule="evenodd" clip-rule="evenodd" d="M58.9571 15.7656C60.3464 12.1941 55.5842 6.24083 52.3092 5.99304C48.0927 5.99304 49.63 9.21747 48.0927 11.2517C47.696 12.0452 46.1086 14.6251 44.8187 16.1628C42.0903 19.6851 47.6468 23.1082 49.7298 20.9751C54.4427 16.1628 57.3201 19.3872 58.9571 15.7656Z" fill="#A6D7F6"/>
<path fill-rule="evenodd" clip-rule="evenodd" d="M61.0413 35.2626C60.8432 33.9722 60.9912 31.7895 60.8924 31.641C59.5523 29.9046 57.4693 36.3039 57.3696 35.2125C57.2707 34.3689 57.4188 33.1787 57.2707 32.0377C56.9729 29.9046 55.0388 33.7244 54.8393 32.7815C54.5424 31.1941 52.6074 31.0452 52.2599 31.8883C51.665 33.6242 53.8969 34.071 54.3438 33.7731C54.244 36.1048 51.8632 36.6997 51.1189 35.0626C50.2753 32.5825 51.8135 31.8879 51.7634 31.5904C49.8294 31.6897 48.8861 32.7314 48.3896 33.1778C47.5469 32.3844 47.4973 30.8462 46.8523 31.5904C46.5047 31.8387 44.4218 35.9062 44.4218 35.4594C44.322 34.5671 44.5698 32.0368 44.0742 31.5408C42.5861 30.4002 40.6016 36.5516 40.4526 35.0626C40.3538 34.1202 40.4034 32.2851 40.3538 31.5904C40.2545 31.293 39.3613 31.293 39.0142 31.7886C38.1711 33.1282 37.5261 34.2195 36.5832 35.3109C36.5336 34.9142 36.5336 33.0284 36.5832 32.4832C36.6324 31.0443 35.1448 30.7965 34.2019 32.6321C33.7555 33.4256 33.4581 34.0214 33.1106 35.013C33.0614 34.4181 33.0113 32.3839 33.0614 31.9375C34.2019 30.7965 34.8473 29.7548 34.8965 27.1252C34.8965 25.7856 33.9045 25.736 33.2103 26.2817C32.5653 26.7281 32.1189 27.2245 31.9203 28.3655C31.7218 29.9033 32.0693 31.4907 31.5728 32.4335C31.2257 32.6317 30.9775 32.8303 30.5311 32.8795C30.4318 32.3342 29.8861 31.3918 28.9437 31.3417C28.1994 31.3417 27.9015 32.086 27.9015 32.6317C27.9015 33.2771 29.0426 34.1198 29.8857 33.872C30.3321 33.8228 30.0346 35.7568 28.3479 35.955C26.413 36.1039 26.0163 32.9296 27.554 31.59C25.1235 31.9867 23.8336 33.9708 23.8336 33.723C23.4368 31.2925 23.0893 28.9112 23.8336 26.6292C23.9825 26.381 24.131 25.9842 23.0893 26.2817C21.2541 26.877 20.4105 27.8691 19.8152 29.159C18.9224 30.8457 19.0213 33.0781 20.0138 34.6158C20.3609 35.1123 20.8569 35.509 21.4527 36.2529C20.6091 37.8899 18.9229 40.8173 19.8648 42.8511C20.1623 43.3467 21.4527 43.5457 22.3947 42.3546C23.3872 40.9157 23.4865 40.4197 23.7839 38.7827C23.9333 37.8402 23.8832 35.8561 23.8336 34.3671C23.8336 34.3179 24.0321 34.3179 24.0818 34.2683C24.0818 34.1193 25.3713 33.1277 25.5202 33.3751C25.2724 34.5156 25.5202 35.607 26.1156 36.3521C27.2566 37.791 29.3896 37.1456 30.2829 35.7067C30.6299 35.0613 30.5306 34.4172 30.5803 33.7226C30.7292 33.6228 31.4234 33.2261 31.7714 33.0776V36.451C31.7714 37.2946 32.7635 37.1456 32.9621 36.6988C33.4084 36.0051 34.7972 31.8378 35.194 33.028C35.2436 33.3755 35.1448 35.1118 35.194 36.302C35.2436 37.2454 35.69 37.1953 36.2357 36.9475C37.476 35.658 37.9224 34.2191 39.0137 33.0781C39.3112 32.6813 39.113 36.1531 39.1627 36.6496C39.262 37.1953 40.2044 37.1461 40.6011 36.5015C41.3454 35.1123 42.8831 32.6317 42.9328 33.0781C42.9824 34.4177 42.9824 35.2111 43.0321 36.5015C43.0817 37.1953 43.9248 37.1953 44.1234 36.8482C45.0659 35.8069 46.5043 33.1774 46.6532 33.3263C46.901 33.7722 47.1001 34.1198 47.3479 34.3676C46.7521 34.5666 45.8598 36.2037 46.901 36.9479C47.6458 37.2955 48.4392 37.2955 48.7868 36.6004C49.1835 35.8069 49.1343 34.9634 48.7376 34.0706C48.5394 33.6738 49.4313 33.0785 49.9278 33.0284C49.5802 33.5741 49.531 34.8636 49.9278 35.7568C50.5236 37.0472 52.607 37.7409 53.9962 36.4022C54.74 35.5587 54.7897 34.716 54.8894 33.6238L55.881 33.0785C55.9808 33.8724 55.9808 36.3531 56.1297 36.8486C56.1789 37.1465 56.6754 37.2463 56.8727 37.0477C57.9148 35.8566 58.7584 34.4181 59.5519 33.1282C59.8497 32.7806 59.5519 36.0547 59.8498 36.8482C60.0975 37.2458 60.6933 37.1461 61.1393 36.4514C61.9828 35.4093 62.7763 34.1699 63.4217 33.1282C63.5215 33.5249 63.9674 34.2195 64.0671 34.4673C63.4217 35.0622 62.6779 35.8566 63.6203 36.9479C63.9678 37.2955 66.0508 37.2458 65.8522 35.2111C65.7534 34.7156 65.5047 34.1699 65.3065 33.9708C65.2573 34.0706 66.5469 32.731 65.7042 32.6813C65.4063 32.9296 64.9595 33.4753 65.0096 32.9792C64.5131 32.3839 64.1163 31.0939 63.7192 31.3918C62.9261 32.3352 61.0905 36.205 61.0413 35.2626ZM21.6522 42.207C23.0906 40.9667 23.1403 38.2383 22.6939 36.4031C22.396 35.5596 21.3046 38.1891 20.9079 39.3297C20.6601 39.8262 20.0643 43.2492 21.6522 42.207ZM47.8448 36.354C48.0438 36.1549 47.8949 35.3614 47.597 35.2125C47.3989 35.0144 47.1511 35.5104 47.1014 36.0069C47.1014 36.2542 47.3984 36.6509 47.8448 36.354ZM21.8503 35.7085C22.0986 35.6088 22.2471 35.361 22.4457 35.212C21.9993 32.1366 21.9993 29.3585 23.0906 26.9772C21.454 27.0765 20.4615 30.003 20.4615 31.8883C20.5107 33.0794 21.0072 34.865 21.8503 35.7085ZM29.9863 33.2279C29.887 32.6827 29.0931 31.4424 28.7957 32.3848C28.6959 32.9309 29.4406 33.4766 29.9863 33.2279ZM54.2445 33.0794C54.1447 32.8312 53.8969 32.3848 53.6496 32.2359C53.0538 31.8883 52.7564 32.5834 53.2528 32.9801C53.451 33.1291 53.9967 33.1291 54.2445 33.0794ZM34.1536 26.5805C33.7068 26.2334 33.0623 27.7215 33.0623 28.2175C32.963 29.4574 32.963 30.152 33.0126 30.5984C33.5578 31.6906 34.7485 27.0765 34.1536 26.5805ZM64.3646 35.0631C64.2648 34.9151 63.8189 35.7085 63.8189 36.0556C64.0676 36.998 65.1089 36.5029 64.3646 35.0631Z" fill="#0094D6"/>
<path fill-rule="evenodd" clip-rule="evenodd" d="M61.8831 28.3165C62.4789 28.3165 63.2723 28.5643 63.2231 29.5072C63.2231 30.1522 62.7763 31.4421 61.9828 31.4913C61.6849 31.5906 62.8264 30.1021 61.8831 30.3503C61.1885 30.5484 60.9407 30.0529 60.8418 29.5072C60.7425 28.9119 61.2882 28.3165 61.8831 28.3165Z" fill="#0094D6"/>
<path fill-rule="evenodd" clip-rule="evenodd" d="M65.4063 30.7978V28.5158H66.1997C66.3487 28.5158 66.4976 28.5654 66.5473 28.6151C66.647 28.6151 66.6962 28.7144 66.7454 28.8132C66.7955 28.9125 66.7955 29.0114 66.7955 29.1607C66.7955 29.3101 66.7955 29.4582 66.6958 29.5575C66.596 29.6568 66.4976 29.7561 66.3482 29.7561L66.4972 29.905L66.6461 30.2025L66.9431 30.7978H66.6461L66.4471 30.3514L66.2494 29.9547C66.1993 29.905 66.1496 29.8554 66.1004 29.8554C66.0503 29.8057 66.0007 29.8057 65.9014 29.8057H65.6536V30.7978H65.4063ZM65.6541 29.5575H66.1505C66.2503 29.5575 66.3487 29.5078 66.3983 29.5078L66.5473 29.3589C66.5473 29.3092 66.5965 29.2596 66.5965 29.1603C66.5965 29.061 66.5473 28.9622 66.4976 28.8629C66.3979 28.8132 66.3487 28.7636 66.1997 28.7636H65.6541V29.5575ZM66.0503 27.9701C67.0428 27.9701 67.8363 28.764 67.8363 29.7064C67.8363 30.6985 67.0428 31.4428 66.0503 31.4428C65.1079 31.4428 64.3145 30.6985 64.3145 29.7064C64.3149 28.764 65.1084 27.9701 66.0503 27.9701ZM66.0503 28.3172C66.8447 28.3172 67.5384 28.9622 67.5384 29.7561C67.5384 30.5495 66.8447 31.1945 66.0503 31.1945C65.669 31.1942 65.3034 31.0425 65.0338 30.7728C64.7641 30.5031 64.6126 30.1374 64.6123 29.7561C64.6126 29.3747 64.7641 29.009 65.0337 28.7392C65.3033 28.4694 65.6689 28.3177 66.0503 28.3172Z" fill="#00ACEC"/>
<path fill-rule="evenodd" clip-rule="evenodd" d="M33.9041 43.1006L33.4577 44.4397C33.4577 44.4898 33.4081 44.6378 33.3584 44.8364V44.8865C33.5073 44.6884 33.7055 44.4898 33.9041 44.3409C34.0034 44.2411 34.1022 44.0931 34.2512 43.9933C34.5987 43.6954 34.8465 43.4968 34.995 43.4476C35.1444 43.3479 35.2929 43.2987 35.4414 43.2987C35.7393 43.2987 35.9871 43.4476 36.1856 43.6462C36.3842 43.894 36.5327 44.2411 36.5327 44.6884C36.5824 45.68 36.2849 46.5236 35.5407 47.3676C35.0943 47.9133 34.5491 48.2608 33.9041 48.459C33.5322 48.5598 33.1484 48.6096 32.7631 48.607C32.3167 48.607 31.9692 48.5082 31.6717 48.3592C31.4235 48.1611 31.275 47.9625 31.275 47.6646C31.275 47.4168 31.3246 47.0201 31.4731 46.4744L32.7134 42.0588C32.7134 42.0588 32.7631 42.0096 32.7631 41.8607C32.8127 41.7619 32.8127 41.6626 32.8127 41.6129C32.8127 41.5132 32.7134 41.464 32.6141 41.464C32.4656 41.464 32.267 41.464 31.9696 41.5132L32.0689 41.1164C32.6923 41.0202 33.3064 40.871 33.9045 40.6705C34.1027 40.5707 34.3013 40.4715 34.5495 40.3726L34.7973 40.6204C34.4994 41.3647 34.2015 42.2073 33.9041 43.1006ZM54.4919 43.2495C54.9874 43.4476 55.2348 43.7451 55.2853 44.1919C55.2853 44.4898 55.1856 44.8364 54.9378 45.2833C54.6891 45.7301 54.194 46.4238 53.4497 47.317C52.836 48.0559 52.1904 48.7678 51.5148 49.4506C50.9691 49.9962 50.5232 50.3438 50.1747 50.4927C49.8777 50.6909 49.5302 50.7897 49.2824 50.7897C49.0337 50.7897 48.8356 50.7405 48.5878 50.6417C48.4955 50.6398 48.4071 50.6043 48.3391 50.5419C48.4388 50.2941 48.5381 50.1452 48.5878 49.9471C48.6866 49.7981 48.7367 49.6492 48.7859 49.5503H49.0337C49.2319 49.7485 49.4304 49.8482 49.6286 49.8482C50.1251 49.8482 50.7208 49.4506 51.4146 48.7067C51.2164 47.2678 51.0679 46.2762 50.9686 45.7802C50.8689 45.2345 50.7705 44.9366 50.7208 44.7877C50.6211 44.6387 50.5719 44.5896 50.4722 44.5896C50.3733 44.5896 50.1743 44.6893 49.8276 44.9863L49.5297 44.7385C50.5223 43.7961 51.2665 43.2996 51.6633 43.2996C51.8122 43.2996 51.9603 43.3993 52.06 43.5975C52.1597 43.7956 52.3078 44.1432 52.4075 44.5891C52.5064 45.035 52.6057 45.8786 52.8043 47.1686C53.181 46.7112 53.529 46.2309 53.8464 45.7306C54.0446 45.2837 54.1434 44.9362 54.1434 44.738C54.1434 44.4903 53.9954 44.3413 53.6478 44.2912L53.5481 44.0935C53.8961 43.8444 54.194 43.5966 54.4919 43.2495ZM48.5882 46.2758C48.836 45.7793 48.9349 45.2336 48.8852 44.6879C48.8852 44.2903 48.7864 43.9933 48.5882 43.7446C48.5882 43.6954 48.5882 43.6954 48.539 43.6458C48.34 43.4476 48.0922 43.2982 47.7943 43.2982C47.6463 43.2982 47.4973 43.3474 47.3484 43.4472C47.1994 43.4964 46.9516 43.695 46.6046 43.9929C46.4556 44.0926 46.3559 44.191 46.257 44.3404C46.0514 44.4969 45.8678 44.6804 45.7113 44.8861V44.836C45.7605 44.6378 45.8102 44.4894 45.8102 44.4393L46.257 43.1001C46.5549 42.2069 46.8519 41.3642 47.1502 40.6195L46.9015 40.3717C46.6538 40.4705 46.4556 40.5698 46.257 40.6696C45.6612 40.8677 45.0659 41.0162 44.4218 41.1155L44.3221 41.5123C44.62 41.4631 44.8186 41.4631 44.9675 41.4631C45.0664 41.4631 45.1657 41.5123 45.1657 41.612C45.1657 41.6612 45.1657 41.761 45.1156 41.8598C45.1156 42.0087 45.0664 42.0579 45.0664 42.0579L43.8265 46.4735C43.6771 47.0192 43.6279 47.4159 43.6279 47.6637C43.6279 47.9616 43.7769 48.1602 44.0242 48.3583C44.3221 48.5072 44.6692 48.6061 45.1151 48.6061C45.5127 48.6061 45.9095 48.5569 46.2566 48.4581C46.9011 48.2599 47.4477 47.9124 47.8936 47.3667C48.1915 47.0196 48.4393 46.6716 48.5882 46.2758ZM46.2566 47.8627C46.4547 47.7138 46.6533 47.466 46.8514 47.1681C47.2482 46.5732 47.3971 45.9779 47.3479 45.2833C47.3479 44.7868 47.199 44.5395 46.9512 44.5395C46.7521 44.5395 46.5044 44.6884 46.2566 44.9362C46.1076 45.0851 45.9587 45.2837 45.7601 45.5311C45.3142 46.1765 45.0655 46.8215 45.1147 47.4168C45.1147 47.8135 45.3137 48.0117 45.7104 48.0117C45.909 48.0117 46.058 47.962 46.2566 47.8627ZM39.9558 46.9695C39.9558 46.9203 40.0054 46.9203 40.0054 46.8707C40.3529 46.5231 40.7005 45.7301 41.0476 44.4898L41.1965 44.043C40.9483 43.9432 40.7501 43.894 40.5515 43.894C40.3534 43.894 40.1548 43.9432 39.9562 44.0931C39.7084 44.2411 39.4602 44.4898 39.262 44.836C38.8648 45.4814 38.6667 46.1255 38.7164 46.7709C38.7164 47.1676 38.914 47.3667 39.1627 47.3667C39.3609 47.3671 39.6583 47.2173 39.9558 46.9695ZM39.9558 43.4973C40.3529 43.3483 40.7993 43.2991 41.2954 43.2991C41.4443 43.2991 41.841 43.2991 42.4364 43.3483C42.5853 43.3984 42.6842 43.3984 42.7839 43.3984L42.8832 43.5966C42.5353 44.2911 42.269 45.0235 42.0897 45.7793C41.8415 46.5728 41.7422 47.0688 41.7422 47.2173C41.7422 47.317 41.7918 47.3671 41.8415 47.3671C41.9904 47.3671 42.2382 47.2173 42.5853 46.9203L42.8832 47.1681C42.3872 47.6646 41.9403 48.0117 41.4939 48.2103C41.0476 48.459 40.7501 48.607 40.5019 48.607C40.3037 48.607 40.1543 48.5082 40.1543 48.31C40.1543 48.1119 40.2536 47.7643 40.4021 47.3175C40.4021 47.2683 40.4513 47.1686 40.5014 46.97H40.4513C40.3028 47.1681 40.1042 47.3676 39.9553 47.5657C39.6579 47.8135 39.4593 48.0117 39.2115 48.2103C38.8639 48.459 38.5665 48.607 38.2691 48.607C37.922 48.607 37.6737 48.459 37.4756 48.1611C37.277 47.9133 37.1777 47.5662 37.1777 47.1189C37.1285 46.1765 37.4756 45.2837 38.2691 44.4903C38.7655 43.9933 39.3112 43.6954 39.9558 43.4973ZM33.9041 44.9357C33.7551 45.0847 33.6066 45.2833 33.4081 45.5306C32.9617 46.176 32.7134 46.821 32.7631 47.4163C32.7631 47.8131 32.9617 48.0112 33.3584 48.0112C33.5565 48.0112 33.7055 47.962 33.9041 47.8623C34.1022 47.7133 34.3008 47.4655 34.4994 47.1676C34.8961 46.5728 35.0451 45.9774 34.9954 45.2828C34.9954 44.7863 34.8469 44.539 34.5992 44.539C34.4001 44.539 34.1523 44.6879 33.9041 44.9357ZM8.95132 64.2832H8.90122C8.55413 64.2832 8.25669 64.1343 8.0581 63.8373C7.85996 63.5886 7.80986 63.3408 7.80986 63.0429C7.80986 62.7951 7.85951 62.597 7.95925 62.3483C8.0581 62.1506 8.20705 62.0016 8.40564 61.9023C8.55458 61.8026 8.75318 61.7534 8.95132 61.7534C9.2984 61.7534 9.59584 61.8532 9.84408 62.151C9.99303 62.3988 10.0919 62.6466 10.0919 62.9445C10.0919 63.1923 10.0427 63.3904 9.94293 63.589C9.84363 63.8377 9.69514 63.9858 9.54619 64.0855C9.37576 64.2164 9.16619 64.2861 8.95132 64.2832ZM6.27212 60.6616C6.47026 60.6616 6.6192 60.7108 6.76815 60.7613C6.96674 60.8105 7.11569 60.9103 7.21453 61.0592C7.36302 61.2569 7.41267 61.4059 7.41267 61.6541C7.41267 61.9019 7.31338 62.1506 7.11523 62.3478C6.91709 62.4968 6.66885 62.5965 6.32131 62.5965H6.02388C5.92458 62.5965 5.82573 62.5464 5.72599 62.5464V63.5886C5.72599 63.7867 5.72599 63.9361 5.77563 63.9853C5.87493 64.0851 5.97423 64.0851 6.12317 64.0851H6.22247V64.1839H4.73438V64.0851H4.83367C4.98216 64.0851 5.08146 64.0359 5.18076 63.9361C5.18076 63.8869 5.23041 63.7872 5.23041 63.5886V61.2569C5.23041 61.0592 5.18076 60.9103 5.13111 60.8602C5.08146 60.7613 4.98216 60.7613 4.83367 60.7613H4.73438V60.6616H6.27212ZM6.27212 62.4476C6.42106 62.3984 6.52036 62.3478 6.6192 62.2494C6.76815 62.1005 6.81735 61.9019 6.81735 61.7038C6.81735 61.5056 6.76815 61.4059 6.71805 61.2569C6.67809 61.129 6.58896 61.0222 6.47026 60.9599C6.42106 60.9107 6.32131 60.9107 6.27212 60.8602H6.07352C5.97468 60.8602 5.87538 60.8602 5.72644 60.9103V62.3984C5.82573 62.3984 5.87538 62.3984 5.97468 62.4476H6.27212ZM81.4283 63.7867C81.528 63.8368 81.6273 63.8368 81.7262 63.8368C81.9243 63.8368 82.0241 63.7867 82.173 63.7371C82.2719 63.6373 82.3712 63.4893 82.47 63.2912L82.5192 63.3403C82.47 63.5385 82.3712 63.7863 82.2222 63.9849C82.0241 64.183 81.8255 64.2828 81.5276 64.2828H81.4278C81.1801 64.2336 80.9819 64.1338 80.833 63.9352C80.5852 63.6874 80.4854 63.3895 80.4854 63.042C80.4854 62.5961 80.5852 62.2982 80.833 62.0504C80.9819 61.9014 81.1805 61.7525 81.4278 61.7525C81.478 61.7525 81.5276 61.7033 81.6269 61.7033C81.8747 61.7033 82.1234 61.8022 82.2714 62.0012C82.4204 62.1501 82.5192 62.3979 82.5192 62.6958H80.8822C80.8822 63.0425 80.9819 63.3403 81.1309 63.5385C81.2297 63.6378 81.3295 63.7375 81.4283 63.7867ZM81.4283 62.5464H81.974C81.974 62.3984 81.974 62.2986 81.9248 62.2494C81.8756 62.1506 81.8259 62.0513 81.7266 62.0016C81.6278 61.9515 81.5786 61.9019 81.4789 61.9019H81.4288C81.2807 61.9019 81.181 62.0016 81.0821 62.1C80.9824 62.1998 80.8831 62.3478 80.8831 62.546L81.4283 62.5464ZM75.2778 63.8368C75.0291 64.035 74.8801 64.1338 74.831 64.1835C74.7321 64.2336 74.6328 64.2336 74.5331 64.2336C74.3349 64.2336 74.1864 64.1835 74.0871 64.0846C73.9874 63.9849 73.9382 63.8368 73.9382 63.6378C73.9382 63.4897 73.9874 63.39 74.0379 63.3408C74.0871 63.1919 74.2361 63.0921 74.3846 62.9933C74.4843 62.9441 74.6333 62.8443 74.8314 62.7951C74.9803 62.7459 75.1293 62.6963 75.2782 62.597V62.4972C75.2782 62.2991 75.2281 62.1005 75.1785 62.0016C75.0787 61.9515 74.9803 61.9019 74.831 61.9019C74.7321 61.9019 74.6328 61.9019 74.5832 62.0016C74.4834 62.0508 74.4834 62.1005 74.4834 62.1998V62.3478C74.4834 62.3979 74.4342 62.4968 74.4342 62.4968C74.3841 62.546 74.3345 62.5965 74.2361 62.5965C74.1869 62.5965 74.1363 62.5464 74.0871 62.4968C74.0379 62.4471 74.0379 62.3979 74.0379 62.3478C74.0379 62.1998 74.0871 62.0508 74.2857 61.9019C74.3846 61.8022 74.5836 61.753 74.8314 61.753H74.9303C75.1293 61.753 75.2782 61.753 75.4267 61.8527C75.5265 61.9019 75.6249 61.9516 75.6754 62.1005C75.6754 62.1506 75.7246 62.2986 75.7246 62.5464V63.7867C75.7246 63.8368 75.7246 63.8865 75.7738 63.8865L75.8239 63.9357C75.8731 63.9357 75.8731 63.8865 75.9228 63.8865C75.9228 63.8865 76.0216 63.7867 76.1209 63.6883V63.8373C75.9228 64.1343 75.7242 64.234 75.5752 64.234C75.4755 64.234 75.4263 64.234 75.3771 64.1343C75.327 64.0846 75.2778 63.9849 75.2778 63.8368ZM74.831 63.9357C74.9298 63.9357 75.0787 63.8368 75.2778 63.6879V62.7455C75.0787 62.8443 74.9298 62.8935 74.831 62.9436L74.7818 62.9928C74.6328 63.0917 74.5331 63.1418 74.4839 63.2406C74.4347 63.3403 74.3841 63.3895 74.3841 63.4893C74.3841 63.6373 74.4342 63.7371 74.4839 63.8368C74.5836 63.886 74.6328 63.9357 74.7326 63.9357H74.831ZM69.1255 61.753C69.473 61.753 69.7709 61.8527 70.0187 62.1506C70.2168 62.3984 70.2674 62.6462 70.2674 62.9441C70.2674 63.1918 70.2173 63.39 70.1184 63.5886C70.0413 63.7915 69.9025 63.9651 69.7217 64.0851C69.5236 64.234 69.325 64.2832 69.1259 64.2832C68.7292 64.2832 68.4322 64.1343 68.2336 63.8373C68.0838 63.5886 67.9849 63.3408 67.9849 63.0429C67.9849 62.7951 68.0341 62.597 68.1339 62.3483C68.2336 62.1506 68.3816 62.0016 68.5798 61.9023C68.7287 61.8021 68.9269 61.753 69.1255 61.753ZM69.1255 64.0846H69.2252C69.3742 64.0846 69.5231 64.0354 69.6219 63.8865C69.7217 63.7375 69.8201 63.4897 69.8201 63.1427C69.8201 62.7459 69.7212 62.3988 69.5231 62.151C69.4233 62.0021 69.2744 61.9023 69.1255 61.9023H69.0266C68.977 61.9023 68.8777 61.9515 68.7788 62.0021C68.6729 62.0578 68.5863 62.1442 68.5301 62.2499C68.4809 62.3988 68.4809 62.5974 68.4809 62.7956C68.4809 63.1431 68.5301 63.4401 68.6791 63.6888C68.7788 63.9357 68.9269 64.0354 69.1255 64.0846ZM66.546 61.753H66.695C66.9427 61.753 67.1409 61.8022 67.2898 62.0016C67.488 62.2494 67.5877 62.5464 67.5877 62.894C67.5877 63.3408 67.488 63.6883 67.2402 63.9361C67.042 64.1343 66.8434 64.2837 66.5456 64.2837H66.4964C66.3966 64.2837 66.2486 64.2345 66.1985 64.2345C66.0996 64.1844 66.0495 64.1347 65.9507 64.0855V65.1277C65.9999 65.1277 66.0495 65.1769 66.0996 65.2274H66.3474V65.3263H65.1071V65.2274H65.1572C65.2561 65.2766 65.3549 65.2274 65.405 65.1773C65.4542 65.1773 65.4542 65.1281 65.5038 65.0785V62.4981V62.2011L65.405 62.1014H65.1572L65.1071 62.0522L65.8509 61.7543H65.9507V62.3C66.0495 62.1019 66.1985 61.9525 66.2982 61.8541C66.3971 61.8022 66.4463 61.753 66.546 61.753ZM66.546 64.1338C66.695 64.0846 66.8439 64.035 66.9427 63.9357C67.0917 63.7375 67.1409 63.4897 67.1409 63.1422C67.1409 62.7947 67.042 62.4968 66.8931 62.2986C66.7943 62.1998 66.695 62.1005 66.5456 62.1005H66.4964C66.3966 62.1005 66.3474 62.1506 66.2486 62.1506C66.1985 62.1998 66.0996 62.2986 65.9507 62.4476V63.7375C65.9999 63.8373 66.0495 63.9357 66.1488 63.9853C66.2486 64.0851 66.347 64.1343 66.4964 64.1343H66.546V64.1338ZM60.2456 60.4635C60.2957 60.4635 60.3454 60.5136 60.3946 60.5632C60.4438 60.6129 60.4943 60.662 60.4943 60.7613C60.4943 60.8105 60.4442 60.8602 60.3946 60.9103C60.3454 60.9595 60.2957 61.0091 60.2456 61.0091C60.1459 61.0091 60.0967 60.9599 60.0475 60.9103C59.9983 60.8602 59.9487 60.8105 59.9487 60.7613C59.9487 60.6616 59.9979 60.6124 60.0475 60.5632C60.0972 60.514 60.1459 60.4635 60.2456 60.4635ZM55.1856 63.8368C54.9378 64.035 54.7888 64.1338 54.7397 64.1835H54.6896C54.5907 64.2336 54.4919 64.2336 54.3926 64.2336C54.2436 64.2336 54.0947 64.1835 53.9958 64.0846C53.8961 63.9849 53.8469 63.8368 53.8469 63.6378C53.8469 63.4897 53.8469 63.39 53.8961 63.3408C53.9958 63.1919 54.0942 63.0921 54.2928 62.9933C54.3926 62.9441 54.5415 62.8443 54.7397 62.7951C54.8385 62.7459 54.9874 62.6963 55.1856 62.597V62.4972C55.1856 62.2991 55.1364 62.1005 55.0375 62.0016C54.9874 61.9515 54.8886 61.9019 54.7397 61.9019C54.5907 61.9019 54.5415 61.9019 54.4418 62.0016C54.3926 62.0508 54.3429 62.1005 54.3429 62.1998V62.3478C54.3429 62.3979 54.3429 62.4968 54.2928 62.4968C54.2436 62.546 54.194 62.5965 54.1439 62.5965C54.0947 62.5965 54.045 62.5464 53.9958 62.4968C53.9457 62.4476 53.8961 62.3979 53.8961 62.3478C53.8961 62.1998 53.9958 62.0508 54.1439 61.9019C54.2928 61.8022 54.4919 61.753 54.7397 61.753H54.7888C54.987 61.753 55.1856 61.753 55.3345 61.8527C55.4343 61.9019 55.4835 61.9516 55.5327 62.1005C55.5828 62.1506 55.5828 62.2986 55.5828 62.5464V63.39C55.5828 63.5881 55.5828 63.7375 55.632 63.7867V63.8865C55.6812 63.8865 55.6812 63.9357 55.7308 63.9357L55.78 63.8865C55.8301 63.8865 55.8798 63.7867 56.0287 63.6883V63.8373C55.8306 64.1343 55.632 64.234 55.4338 64.234C55.3837 64.234 55.2849 64.234 55.2348 64.1343C55.1856 64.0846 55.1856 63.9849 55.1856 63.8368ZM54.7397 63.9357C54.8385 63.9357 54.9874 63.8368 55.1856 63.6879V62.7455C54.9378 62.8443 54.7888 62.8935 54.7397 62.9436C54.6896 62.9928 54.6896 62.9928 54.6399 62.9928C54.4919 63.0917 54.3921 63.1418 54.3429 63.2406C54.2928 63.3403 54.2928 63.3895 54.2928 63.4893C54.2928 63.6373 54.2928 63.7371 54.3926 63.8368C54.4418 63.886 54.5415 63.9357 54.6404 63.9357H54.7397ZM54.7397 60.9595L54.8385 60.5628H55.4343L54.7397 61.4054L54.6399 61.4555H54.5411L54.7397 60.9595ZM46.8022 61.753C47.1498 61.753 47.4477 61.8527 47.6458 62.1506C47.8435 62.3984 47.9428 62.6462 47.9428 62.9441C47.9428 63.1918 47.8936 63.39 47.7939 63.5886C47.695 63.8373 47.5461 63.9853 47.3479 64.0851C47.199 64.234 47.0004 64.2832 46.8022 64.2832H46.7521C46.4055 64.2832 46.1076 64.1343 45.9095 63.8373C45.7113 63.5886 45.6116 63.3408 45.6116 63.0429C45.6116 62.7951 45.6608 62.597 45.8097 62.3483C45.9095 62.1506 46.0584 62.0016 46.2065 61.9023C46.4055 61.8021 46.6037 61.753 46.8022 61.753ZM46.8022 64.0846H46.8514C47.0496 64.0846 47.199 64.0354 47.2974 63.8865C47.3971 63.7375 47.4472 63.4897 47.4472 63.1427C47.4472 62.7459 47.3475 62.3988 47.1985 62.151C47.0496 62.0021 46.9507 61.9023 46.8018 61.9023H46.702C46.6032 61.9023 46.5039 61.9515 46.4051 62.0021C46.3053 62.0513 46.2561 62.151 46.206 62.2499C46.1568 62.3988 46.1072 62.5974 46.1072 62.7956C46.1072 63.1431 46.1564 63.4401 46.3053 63.6888C46.4547 63.9357 46.6037 64.0354 46.8022 64.0846ZM39.2616 63.7867C39.3604 63.8368 39.4597 63.8368 39.6087 63.8368C39.7576 63.8368 39.9061 63.7867 40.0054 63.7371C40.1047 63.6373 40.204 63.4893 40.3033 63.2912L40.3529 63.3403C40.3529 63.5385 40.204 63.7863 40.055 63.9849C39.8565 64.183 39.6583 64.2828 39.4101 64.2828H39.2616C39.0133 64.2336 38.8147 64.1338 38.6663 63.9352C38.4681 63.6874 38.3187 63.3895 38.3187 63.042C38.3187 62.5961 38.4677 62.2982 38.6663 62.0504C38.8152 61.9014 39.0138 61.7525 39.2616 61.7525C39.3108 61.7525 39.4101 61.7033 39.4597 61.7033C39.708 61.7033 39.9558 61.8022 40.1047 62.0012C40.3033 62.1501 40.3529 62.3979 40.3529 62.6958H38.7159C38.7159 63.0425 38.8147 63.3403 38.9637 63.5385C39.063 63.6378 39.1627 63.7375 39.2616 63.7867ZM39.2616 62.5464H39.8073C39.8073 62.3984 39.8073 62.2986 39.7576 62.2494C39.7084 62.1506 39.6583 62.0513 39.5595 62.0016C39.4917 61.9392 39.4034 61.9037 39.3112 61.9019H39.262C39.1627 61.9019 39.0138 62.0016 38.914 62.1C38.8152 62.1998 38.7164 62.3478 38.7164 62.546L39.2616 62.5464ZM35.5407 63.7867C35.64 63.8368 35.7393 63.8368 35.8887 63.8368C36.0371 63.8368 36.1364 63.7867 36.2854 63.7371C36.3847 63.6373 36.4835 63.4893 36.5828 63.2912L36.632 63.3403C36.632 63.5385 36.4835 63.7863 36.335 63.9849C36.1364 64.183 35.9379 64.2828 35.6896 64.2828H35.5407C35.2929 64.2336 35.0943 64.1338 34.9458 63.9352C34.698 63.6874 34.5987 63.3895 34.5987 63.042C34.5987 62.5961 34.7477 62.2982 34.9458 62.0504C35.0947 61.9014 35.2933 61.7525 35.5407 61.7525C35.5903 61.7525 35.64 61.7033 35.7393 61.7033C35.9871 61.7033 36.2353 61.8022 36.3842 62.0012C36.5824 62.1501 36.632 62.3979 36.632 62.6958H34.995C34.995 63.0425 35.0943 63.3403 35.2432 63.5385C35.3425 63.6378 35.4414 63.7375 35.5407 63.7867ZM35.5407 62.5464H36.0863C36.0863 62.3984 36.0863 62.2986 36.0372 62.2494C35.9875 62.1506 35.9379 62.0513 35.839 62.0016C35.7713 61.9391 35.6829 61.9036 35.5908 61.9019H35.5411C35.3926 61.9019 35.2933 62.0016 35.194 62.1C35.0947 62.1998 34.9954 62.3478 34.9954 62.546L35.5407 62.5464ZM35.5407 60.9103L35.64 60.5628H36.2353L35.5407 61.3562L35.4915 61.456H35.3922L35.5407 60.9103ZM33.1594 61.753H33.3088C33.5565 61.753 33.7551 61.8527 33.9537 62.0508C34.1523 62.249 34.2512 62.5464 34.2512 62.8935C34.2512 63.3403 34.1022 63.6879 33.8048 63.9357C33.6066 64.1338 33.4081 64.2336 33.1598 64.2832H33.0113C32.8624 64.2832 32.7134 64.234 32.5649 64.1835C32.416 64.1343 32.267 64.0846 32.1186 63.9853V61.5056V60.9599C32.1186 60.9107 32.0689 60.8602 32.0689 60.8602C32.0193 60.811 31.9696 60.811 31.9696 60.811C31.92 60.811 31.8207 60.811 31.7715 60.8602L31.7214 60.7613L32.4656 60.4635H32.5649V62.2002C32.7631 61.9511 32.9617 61.8022 33.1594 61.753ZM33.1594 64.0846C33.3088 64.0846 33.4572 63.9849 33.5565 63.8368C33.705 63.6378 33.8043 63.39 33.8043 63.0425C33.8043 62.7455 33.705 62.4968 33.5565 62.3478C33.4572 62.1998 33.3088 62.1 33.1594 62.1H33.1102C33.0109 62.1 32.912 62.1501 32.8127 62.1501L32.5645 62.3979V63.8368C32.6638 63.886 32.7631 63.9849 32.8624 64.035C32.912 64.035 33.0113 64.0842 33.1102 64.0842L33.1594 64.0846ZM30.4811 63.7867C30.5804 63.8368 30.6797 63.8368 30.7789 63.8368C30.9766 63.8368 31.0764 63.7867 31.2253 63.7371C31.3246 63.6373 31.4235 63.4893 31.5228 63.2912L31.5724 63.3403C31.5724 63.5385 31.4235 63.7863 31.275 63.9849C31.0764 64.183 30.8778 64.2828 30.5804 64.2828H30.4811C30.2333 64.2336 30.0347 64.1338 29.8857 63.9352C29.6379 63.6874 29.5386 63.3895 29.5386 63.042C29.5386 62.5961 29.6379 62.2982 29.8857 62.0504C30.0347 61.9014 30.2337 61.7525 30.4811 61.7525C30.5307 61.7525 30.5804 61.7033 30.6797 61.7033C30.9274 61.7033 31.1757 61.8022 31.3246 62.0012C31.5228 62.1501 31.5724 62.3979 31.5724 62.6958H29.9354C29.9354 63.0425 30.0347 63.3403 30.1832 63.5385C30.2825 63.6378 30.3818 63.7375 30.4811 63.7867ZM30.4811 62.5464H31.0267C31.0267 62.3984 31.0267 62.2986 30.9771 62.2494C30.9279 62.1506 30.8778 62.0513 30.7794 62.0016C30.6801 61.9515 30.63 61.9019 30.5312 61.9019H30.4815C30.3326 61.9019 30.2337 62.0016 30.1344 62.1C30.0351 62.1998 29.9358 62.3478 29.9358 62.546L30.4811 62.5464ZM28.0998 61.753H28.2487C28.4969 61.753 28.6946 61.8527 28.8937 62.0508C29.0918 62.249 29.1911 62.5464 29.1911 62.8935C29.1911 63.3403 29.0426 63.6879 28.7447 63.9357C28.5461 64.1338 28.348 64.2336 28.0998 64.2832H27.9513C27.8023 64.2832 27.6534 64.234 27.5044 64.1835C27.3559 64.1343 27.207 64.0846 27.058 63.9853V61.5056V60.9599C27.058 60.9107 27.0088 60.8602 27.0088 60.8602C26.9592 60.811 26.9095 60.811 26.8603 60.811C26.8107 60.811 26.7611 60.811 26.7114 60.8602L26.6618 60.7613L27.406 60.4635H27.5049V62.2002C27.703 61.9511 27.9012 61.8022 28.0998 61.753ZM28.0998 64.0846C28.2487 64.0846 28.3976 63.9849 28.4969 63.8368C28.6454 63.6378 28.6946 63.39 28.6946 63.0425C28.6946 62.7455 28.6454 62.4968 28.4969 62.3478C28.3976 62.1998 28.2487 62.1 28.0998 62.1H28.0501C27.9513 62.1 27.8524 62.1501 27.7527 62.1501C27.703 62.1993 27.6033 62.2982 27.5044 62.3979V63.8368C27.6037 63.886 27.703 63.9849 27.7527 64.035C27.852 64.035 27.9513 64.0842 28.0501 64.0842L28.0998 64.0846ZM18.5745 63.7867C18.6743 63.8368 18.7731 63.8368 18.8724 63.8368C19.0213 63.8368 19.1698 63.7867 19.3188 63.7371C19.4181 63.6373 19.5169 63.4893 19.567 63.2912L19.6659 63.3403C19.6087 63.5721 19.5079 63.7908 19.3689 63.9849C19.1703 64.183 18.9717 64.2828 18.6743 64.2828H18.5745C18.3282 64.2379 18.1024 64.1163 17.9295 63.9352C17.7318 63.6874 17.6321 63.3895 17.6321 63.042C17.6321 62.5961 17.7318 62.2982 17.9796 62.0504C18.1286 61.9014 18.3272 61.7525 18.5745 61.7525C18.6242 61.7525 18.6743 61.7033 18.7239 61.7033C19.0213 61.7033 19.2199 61.8022 19.4185 62.0012C19.5675 62.1501 19.6663 62.3979 19.6663 62.6958H18.0293C18.0293 63.0425 18.0789 63.3403 18.278 63.5385C18.3768 63.6378 18.4757 63.7375 18.5745 63.7867ZM18.5745 62.5464H19.1202C19.1202 62.3984 19.071 62.2986 19.071 62.2494C19.0213 62.1506 18.9717 62.0513 18.8728 62.0016C18.7735 61.9515 18.6747 61.9019 18.6246 61.9019H18.575C18.4265 61.9019 18.3272 62.0016 18.2279 62.1C18.0789 62.1998 18.0293 62.3478 18.0293 62.546L18.5745 62.5464ZM14.3585 61.753V64.8284C14.3585 64.9774 14.3585 65.0771 14.4077 65.1263C14.4077 65.1755 14.4573 65.1755 14.507 65.2261H14.7547V65.3249H13.5641V65.2261H13.8123C13.8615 65.176 13.8615 65.176 13.9116 65.1263V63.7863C13.7627 63.9844 13.6137 64.0842 13.5149 64.183C13.4652 64.183 13.366 64.2331 13.3163 64.2331C13.2671 64.2823 13.217 64.2823 13.1674 64.2823C12.9191 64.2823 12.721 64.1826 12.5224 63.9348C12.3238 63.7366 12.2741 63.4383 12.2741 63.0912C12.2741 62.6954 12.3734 62.3474 12.6217 62.0996C12.8198 61.9015 13.0681 61.8017 13.3163 61.7521H13.7631C13.8624 61.8013 13.9121 61.8518 14.0109 61.901C14.1102 61.8518 14.2095 61.8013 14.2592 61.7521H14.3585V61.753ZM13.3163 63.8865H13.4156C13.5149 63.8865 13.6142 63.8865 13.7135 63.8373C13.7631 63.7872 13.8624 63.7375 13.9121 63.6382V62.4977C13.9121 62.3487 13.9121 62.2499 13.8624 62.2007C13.8624 62.1009 13.8132 62.0517 13.7135 62.0025C13.6142 61.9524 13.5153 61.9028 13.4156 61.9028H13.3163C13.1674 61.952 13.0184 62.0025 12.9191 62.1515C12.7569 62.3651 12.6698 62.6262 12.6713 62.8944C12.6713 63.2419 12.7706 63.4902 12.9191 63.6382C13.0189 63.7867 13.1678 63.8865 13.3163 63.8865ZM8.95132 61.9019H8.85202C8.75272 61.9019 8.70353 61.9511 8.60378 62.0016C8.50493 62.0508 8.40564 62.1506 8.35554 62.2494C8.30634 62.3984 8.25669 62.597 8.25669 62.7951C8.25669 63.1427 8.35554 63.4396 8.50448 63.6883C8.60333 63.9361 8.75227 64.0359 8.95087 64.0851H9.04971C9.19866 64.0851 9.3476 64.0359 9.44645 63.8869C9.54574 63.738 9.59539 63.4902 9.59539 63.1431C9.59539 62.7464 9.54574 62.3993 9.3476 62.1515C9.24876 62.0016 9.09981 61.9019 8.95132 61.9019ZM83.3632 63.6879C83.4124 63.6879 83.5122 63.7371 83.5614 63.7867C83.6115 63.8368 83.6611 63.8865 83.6611 63.9849C83.6611 64.0846 83.6119 64.1338 83.5614 64.183C83.5122 64.2331 83.4124 64.2828 83.3632 64.2828C83.2644 64.2828 83.2152 64.2336 83.1651 64.183C83.1159 64.1338 83.0662 64.0842 83.0662 63.9849C83.0662 63.886 83.1154 63.8368 83.1651 63.7867C83.2152 63.7375 83.2644 63.6879 83.3632 63.6879ZM79.6924 61.0091V61.8026H80.2381V62.0016H79.6924V63.5389C79.6924 63.6879 79.6924 63.7867 79.7416 63.8368C79.7917 63.886 79.8414 63.9357 79.8906 63.9357C79.9903 63.9357 80.0395 63.9357 80.0887 63.8865C80.1379 63.8373 80.1884 63.7867 80.1884 63.7375H80.2873C80.2381 63.8865 80.1384 64.0354 80.0395 64.0851C79.9398 64.1839 79.8414 64.234 79.692 64.234C79.6428 64.234 79.543 64.234 79.4938 64.1839C79.405 64.1454 79.3342 64.0746 79.2957 63.9858C79.2456 63.8869 79.2456 63.7876 79.2456 63.589V62.0021H78.8488V61.9023C78.9486 61.8532 79.047 61.8026 79.1467 61.7042C79.2456 61.6054 79.3449 61.5061 79.4437 61.3567C79.4437 61.3075 79.5435 61.2077 79.5927 61.0091H79.6924ZM77.0132 62.2494C77.261 61.9019 77.5589 61.753 77.8067 61.753C77.9556 61.753 78.0554 61.753 78.1542 61.8527C78.254 61.9019 78.3032 62.0016 78.3524 62.1506C78.4016 62.2494 78.4016 62.3984 78.4016 62.6462V63.6378C78.4016 63.7867 78.4517 63.9357 78.4517 63.9853C78.5009 63.9853 78.5009 64.0354 78.5514 64.0851H78.7992V64.1839H77.6081V64.0851H77.6573C77.757 64.0851 77.8563 64.0851 77.906 64.0359C77.906 64.0359 77.9552 63.9858 77.9552 63.8869C78.0053 63.8869 78.0053 63.7872 78.0053 63.6382V62.6967C78.0053 62.448 77.9552 62.2991 77.9055 62.2002C77.8563 62.1005 77.7566 62.0513 77.6076 62.0513C77.4095 62.0513 77.2109 62.151 77.0128 62.3988V63.9361C77.062 63.9853 77.062 64.0359 77.1116 64.0851H77.4095V64.1839H76.2193V64.0851H76.2685C76.3682 64.0851 76.4666 64.0851 76.5163 64.0359C76.5655 63.9361 76.5655 63.8377 76.5655 63.6382V62.7459V62.2494C76.5163 62.2002 76.5163 62.1506 76.4666 62.1005H76.2188L76.1687 62.0016L76.8634 61.753H77.0123V62.2494H77.0132ZM73.1443 61.0091V61.8026H73.6899V62.0016H73.1443V63.5389C73.1443 63.6879 73.1443 63.7867 73.1935 63.8368C73.2427 63.886 73.2923 63.9357 73.3424 63.9357C73.4413 63.9357 73.4913 63.9357 73.5405 63.8865C73.5897 63.8373 73.6403 63.7867 73.6403 63.7375H73.7391C73.6899 63.8865 73.5902 64.0354 73.4913 64.0851C73.3916 64.1839 73.2923 64.234 73.1438 64.234C73.0946 64.234 72.9949 64.234 72.8951 64.1839C72.8459 64.1347 72.7963 64.0851 72.7462 63.9858C72.697 63.8869 72.697 63.7876 72.697 63.589V62.0021H72.3002C72.3002 62.1009 72.251 62.151 72.2005 62.2002C72.2005 62.2494 72.1016 62.2494 72.0525 62.2494C72.0023 62.2494 71.9527 62.2494 71.8543 62.1506C71.8051 62.1005 71.7054 62.1005 71.7054 62.1005C71.6553 62.1005 71.6056 62.1005 71.6056 62.1506C71.5068 62.1998 71.4075 62.3483 71.3578 62.4972V63.6378C71.3578 63.7867 71.3578 63.8865 71.407 63.9357C71.407 63.9849 71.4562 64.0354 71.5068 64.0354C71.556 64.0846 71.6548 64.0846 71.7546 64.0846V64.1835H70.5143V64.0846C70.6632 64.0846 70.762 64.0846 70.8121 64.0354C70.8613 64.0354 70.8614 63.9853 70.911 63.9357V62.7455V62.249C70.8618 62.1998 70.8618 62.1501 70.8121 62.1H70.5143V62.0012L71.2089 61.7525H71.3578V62.249C71.556 61.9014 71.7546 61.7525 71.9527 61.7525C72.0525 61.7525 72.1508 61.7525 72.2005 61.8017C72.2506 61.8518 72.3002 61.9506 72.3002 62.0007V61.901C72.4 61.8518 72.4984 61.8012 72.5981 61.7029C72.697 61.604 72.7963 61.5047 72.8951 61.3553C72.8951 61.3061 72.9949 61.2064 73.0441 61.0078H73.1443V61.0091ZM61.8335 62.2494C61.9824 62.0513 62.0822 61.9515 62.1314 61.9515C62.1546 61.906 62.1901 61.8679 62.2339 61.8416C62.2777 61.8153 62.3281 61.8018 62.3792 61.8026C62.4789 61.7534 62.5773 61.7534 62.627 61.7534C62.7759 61.7534 62.9248 61.7534 63.0246 61.8532C63.1234 61.952 63.2227 62.0513 63.2724 62.2499C63.4213 62.0517 63.5703 61.9024 63.7183 61.8532C63.8181 61.7534 63.967 61.7534 64.116 61.7534C64.2148 61.7534 64.3141 61.7534 64.4129 61.8532C64.5127 61.9024 64.612 62.0021 64.6616 62.151C64.7108 62.2499 64.7108 62.3988 64.7108 62.6466V63.6382C64.7108 63.7872 64.7108 63.8869 64.76 63.9858C64.76 63.9858 64.8092 64.0359 64.8598 64.0855H65.1076V64.1844H63.9174V64.0855H63.9666C64.0663 64.0855 64.1155 64.0855 64.2143 64.0363C64.2143 64.0363 64.2635 63.9862 64.2635 63.9366C64.2635 63.8869 64.3136 63.7876 64.3136 63.6387V62.6471C64.3136 62.4489 64.2635 62.2995 64.2139 62.2011C64.1647 62.1014 64.0659 62.0522 63.8664 62.0522C63.8172 62.0522 63.7174 62.0522 63.6186 62.1014C63.5197 62.1515 63.4204 62.2503 63.271 62.3492V63.6387C63.271 63.8377 63.271 63.9366 63.3202 63.9862L63.42 64.086H63.6678V64.1848H62.4284V64.086C62.5764 64.086 62.6762 64.086 62.7254 64.0368C62.7746 64.0368 62.8251 63.9867 62.8251 63.937V62.6475C62.8251 62.4494 62.8251 62.3 62.775 62.2016C62.6762 62.1018 62.5769 62.0527 62.4284 62.0527C62.3286 62.0527 62.2293 62.0526 62.1305 62.1018C61.9815 62.2016 61.8818 62.3 61.8326 62.3496V63.9867C61.8818 64.0368 61.8818 64.0368 61.9323 64.0864H62.2293V64.1853H61.0391V64.0864H61.2373C61.2865 64.0372 61.3361 63.9867 61.3361 63.9375C61.3862 63.8883 61.3862 63.7885 61.3862 63.6396V62.7473C61.3862 62.4986 61.3862 62.3004 61.3361 62.2508C61.3361 62.1519 61.3361 62.1519 61.2869 62.1018H61.0391L60.989 62.003L61.6836 61.7543H61.8326V62.2494H61.8335ZM60.4438 61.753V63.6378C60.4438 63.7867 60.4438 63.8865 60.4939 63.9357C60.4939 63.9849 60.5431 64.0354 60.5927 64.0846H60.7909V64.1835H59.6503V64.0846H59.8981C59.8981 64.0354 59.9482 64.0354 59.9482 63.9357C59.9974 63.8865 59.9974 63.7867 59.9974 63.6378V62.7455V62.249C59.9482 62.1501 59.9482 62.1501 59.9482 62.1H59.6503L59.6011 62.0012L60.3449 61.7525H60.4438V61.753ZM57.7158 61.753V62.5464H57.6666C57.5669 62.2986 57.5177 62.1005 57.4179 62.0016C57.2699 61.9515 57.1702 61.9019 57.0212 61.9019C56.8723 61.9019 56.7734 61.9019 56.7242 62.0016C56.6245 62.0508 56.5753 62.1005 56.5753 62.1998C56.577 62.2918 56.6125 62.38 56.675 62.4476C56.7242 62.4968 56.8231 62.5965 57.0217 62.6963L57.3692 62.8443C57.7167 63.0425 57.9149 63.2411 57.9149 63.5389C57.9149 63.7867 57.816 63.9357 57.6671 64.0846C57.5182 64.1835 57.3196 64.2828 57.1214 64.2828C56.9725 64.2828 56.8235 64.2336 56.6249 64.183H56.476C56.4268 64.183 56.3771 64.183 56.3771 64.2331H56.2774V63.3895H56.3771C56.4263 63.6373 56.5261 63.7863 56.675 63.9352C56.7739 64.035 56.972 64.1334 57.121 64.1334C57.2207 64.1334 57.3191 64.0842 57.4179 64.0345C57.468 63.9348 57.5177 63.8364 57.5177 63.7366C57.5177 63.6369 57.4685 63.5385 57.4179 63.4387C57.3191 63.3895 57.1702 63.2907 56.8723 63.1418C56.6245 62.9928 56.4755 62.8931 56.3767 62.7942C56.3266 62.6954 56.2769 62.5961 56.2769 62.4467C56.2769 62.2485 56.3261 62.0499 56.4751 61.9502C56.624 61.8012 56.773 61.7521 57.0208 61.7521C57.1205 61.7521 57.2198 61.7521 57.3683 61.8012C57.4175 61.8012 57.5172 61.8514 57.5172 61.8514C57.5664 61.8514 57.5664 61.8012 57.617 61.8012C57.617 61.8012 57.617 61.7521 57.6662 61.7521H57.7158V61.753ZM50.3241 62.2494C50.5232 62.0513 50.622 61.9515 50.6717 61.9515C50.6951 61.906 50.7308 61.8679 50.7747 61.8416C50.8187 61.8152 50.8691 61.8017 50.9203 61.8026C51.0201 61.7534 51.0693 61.7534 51.1681 61.7534C51.3171 61.7534 51.466 61.7534 51.5658 61.8532C51.6646 61.952 51.7635 62.0513 51.7635 62.2499C51.9616 62.0517 52.111 61.9024 52.2599 61.8532C52.3597 61.7534 52.5077 61.7534 52.6075 61.7534C52.7564 61.7534 52.8553 61.7534 52.955 61.8532C53.0539 61.9024 53.1532 62.0021 53.2028 62.151C53.2529 62.2499 53.2529 62.3988 53.2529 62.6466V63.6382C53.2529 63.7872 53.2529 63.8869 53.3021 63.9858L53.401 64.0855H53.5991V64.1844H52.4089V64.0855H52.4581C52.607 64.0855 52.6562 64.0855 52.7059 64.0363C52.756 64.0363 52.8056 63.9862 52.8056 63.9366V62.6471C52.8056 62.4489 52.8056 62.2995 52.7564 62.2011C52.6567 62.1014 52.5583 62.0522 52.4089 62.0522C52.3091 62.0522 52.2107 62.0522 52.1611 62.1014C52.0614 62.1515 51.9124 62.2503 51.8136 62.3492V63.9862C51.8628 63.9862 51.8628 64.0363 51.9124 64.086H52.2103V64.1848H50.97V64.086C51.1189 64.086 51.2178 64.086 51.2679 64.0368C51.3171 64.0368 51.3171 63.9867 51.3667 63.937V62.6475C51.3667 62.4494 51.3175 62.3 51.2679 62.2016C51.2178 62.1018 51.1189 62.0527 50.97 62.0527C50.8702 62.0527 50.7719 62.0526 50.6721 62.1018C50.5241 62.2016 50.4243 62.3 50.3246 62.3496V63.6391C50.3246 63.8382 50.3747 63.937 50.3747 63.9867L50.4735 64.0864H50.7222V64.1853H49.5311V64.0864H49.7789C49.829 64.0372 49.8786 63.9867 49.8786 63.9375C49.8786 63.8883 49.9278 63.7885 49.9278 63.6396V62.7473C49.9278 62.4986 49.9278 62.3004 49.8786 62.2508C49.8786 62.1519 49.8786 62.1519 49.8294 62.1018H49.5315V62.003L50.2262 61.7543H50.325V62.2494H50.3241ZM44.9666 60.4635V63.9357C45.0158 63.9849 45.0158 64.0354 45.0655 64.0846H45.3142V64.1835H44.1731V64.0846H44.3717C44.4209 64.0354 44.4706 64.0354 44.4706 63.9357C44.5198 63.8865 44.5198 63.7867 44.5198 63.6378V61.456C44.5198 61.2073 44.5198 61.0592 44.4706 60.9595C44.4706 60.9103 44.4706 60.8597 44.4214 60.8597C44.4214 60.8105 44.3722 60.8105 44.3216 60.8105C44.2724 60.8105 44.2228 60.8105 44.1731 60.8597L44.1235 60.7609L44.8181 60.463H44.9666V60.4635ZM42.2382 61.753V62.5464H42.1389C42.0897 62.2986 41.99 62.1005 41.8911 62.0016C41.7678 61.9393 41.6321 61.9052 41.4939 61.9019C41.3946 61.9019 41.2958 61.9019 41.1965 62.0016C41.1469 62.0508 41.0972 62.1005 41.0972 62.1998C41.0972 62.2986 41.0972 62.3979 41.1965 62.4476C41.2462 62.4968 41.3455 62.5965 41.4939 62.6963L41.8911 62.8443C42.2387 63.0425 42.4368 63.2411 42.4368 63.5389C42.4368 63.7867 42.3375 63.9357 42.1886 64.0846C41.9904 64.1835 41.8415 64.2828 41.6429 64.2828C41.4939 64.2828 41.2958 64.2336 41.0972 64.183H40.9979C40.9483 64.183 40.8991 64.183 40.8991 64.2331H40.7998V63.3895H40.8991C40.9483 63.6373 41.048 63.7863 41.1469 63.9352C41.2958 64.035 41.4447 64.1334 41.6429 64.1334C41.7422 64.1334 41.8415 64.0842 41.9408 64.0345C41.9904 63.9348 42.0401 63.8364 42.0401 63.7366C42.0401 63.6369 41.9904 63.5385 41.8911 63.4387C41.8415 63.3895 41.6429 63.2907 41.3946 63.1418C41.1464 62.9928 40.9979 62.8931 40.8986 62.7942C40.7993 62.6954 40.7993 62.5961 40.7993 62.4467C40.7993 62.2485 40.849 62.0499 40.9975 61.9502C41.1464 61.8012 41.2954 61.7521 41.4935 61.7521C41.5928 61.7521 41.7417 61.7521 41.841 61.8012C41.9399 61.8012 41.99 61.8514 42.0392 61.8514L42.0888 61.8012C42.138 61.8012 42.138 61.7521 42.138 61.7521H42.2382V61.753ZM24.925 61.8021V63.7867C24.9746 63.8368 24.9746 63.8865 25.0247 63.8865C25.0247 63.9357 25.0739 63.9357 25.1236 63.9357C25.1732 63.9357 25.2224 63.9357 25.2725 63.8865L25.3217 63.9853L24.6275 64.2832H24.4786V63.7867C24.28 63.9849 24.131 64.1343 24.0322 64.1835C23.9329 64.2336 23.784 64.2832 23.6847 64.2832C23.5362 64.2832 23.4369 64.234 23.3376 64.1343C23.2383 64.0851 23.139 63.9853 23.139 63.8373C23.0893 63.7375 23.0397 63.5394 23.0397 63.3408V62.2494V62.0513C22.9905 62.0021 22.9905 61.9515 22.9408 61.9515C22.8912 61.9024 22.7919 61.9023 22.643 61.9023V61.8026H23.487V63.3904C23.487 63.6382 23.5362 63.7872 23.6355 63.8373C23.6847 63.9361 23.784 63.9361 23.8833 63.9361C23.9826 63.9361 24.0819 63.9361 24.131 63.8869C24.2303 63.8377 24.3793 63.738 24.4786 63.589V62.2499C24.4786 62.1009 24.4786 62.0021 24.4289 61.952C24.3793 61.952 24.28 61.9028 24.0819 61.9028V61.8031H24.925V61.8021ZM22.0476 61.0091V61.8026H22.5933V62.0016H22.0476V63.5389C22.0476 63.6879 22.0476 63.7867 22.0973 63.8368C22.1469 63.886 22.1966 63.9357 22.2462 63.9357C22.3455 63.9357 22.3952 63.9357 22.4448 63.8865C22.4945 63.8373 22.5441 63.7867 22.5441 63.7375H22.643C22.5933 63.8865 22.494 64.0354 22.3947 64.0851C22.2959 64.1839 22.1966 64.234 22.0476 64.234C21.9984 64.234 21.8987 64.234 21.7998 64.1839C21.7506 64.1347 21.7005 64.0851 21.6509 63.9858C21.6012 63.8869 21.6012 63.7876 21.6012 63.589V62.0021H21.2045V61.9023C21.3034 61.8532 21.4027 61.8026 21.5019 61.7042C21.6012 61.6054 21.7001 61.5061 21.7998 61.3567C21.7998 61.3075 21.8991 61.2077 21.9483 61.0091H22.0476ZM17.0372 61.8021V63.7867C17.0864 63.8368 17.0864 63.8865 17.1365 63.8865C17.1365 63.9357 17.1862 63.9357 17.2358 63.9357C17.2855 63.9357 17.3351 63.9357 17.3843 63.8865L17.4339 63.9853L16.7398 64.2832H16.5908V63.7867C16.3922 63.9849 16.2433 64.1343 16.1444 64.1835C15.9955 64.2336 15.8962 64.2832 15.7969 64.2832C15.648 64.2832 15.5491 64.234 15.4498 64.1343C15.3505 64.0851 15.2512 63.9853 15.2512 63.8373C15.2016 63.7375 15.1519 63.5394 15.1519 63.3408V62.2494V62.0513C15.1023 62.0021 15.0526 61.9515 15.0034 61.9515C14.9533 61.9024 14.9041 61.9023 14.7552 61.9023V61.8026H15.5988V63.3904C15.5988 63.6382 15.648 63.7872 15.6981 63.8373C15.7974 63.9361 15.8962 63.9361 15.996 63.9361C16.0957 63.9361 16.1449 63.9361 16.2437 63.8869C16.3426 63.8377 16.4419 63.738 16.5913 63.589V62.2499C16.5913 62.1009 16.5913 62.0021 16.5421 61.952C16.492 61.952 16.3927 61.9028 16.1941 61.9028V61.8031H17.0372V61.8021ZM11.1832 61.753V62.2494C11.3818 61.9019 11.5804 61.753 11.7786 61.753C11.8779 61.753 11.9772 61.753 12.0268 61.8021C12.0765 61.8522 12.1261 61.9511 12.1261 62.0012C12.1261 62.1 12.0765 62.1501 12.0268 62.1993C11.9772 62.2485 11.9275 62.2485 11.8779 62.2485C11.8282 62.2485 11.7289 62.2485 11.6793 62.1497C11.5804 62.0996 11.5308 62.0996 11.4811 62.0996C11.4811 62.0996 11.4319 62.0996 11.3818 62.1497C11.3322 62.1989 11.2329 62.3474 11.1832 62.4963V63.6369C11.1832 63.7858 11.1832 63.8856 11.2329 63.9348C11.2329 63.984 11.2821 64.0345 11.3322 64.0345C11.3818 64.0837 11.4811 64.0837 11.5804 64.0837V64.1826H10.3401V64.0837C10.4891 64.0837 10.5879 64.0837 10.6376 64.0345C10.6872 64.0345 10.6872 63.9844 10.7368 63.9348V62.7446C10.7368 62.4467 10.7368 62.2977 10.6872 62.2481C10.6872 62.1989 10.6872 62.1492 10.6376 62.0991H10.3406V62.0003L11.0352 61.7516H11.1832V61.753Z" fill="#0094D6"/>
</svg>
