<svg width="88" height="40" viewBox="0 0 88 40" fill="none" xmlns="http://www.w3.org/2000/svg">
<path d="M73.5252 2.40018C68.6826 2.40018 65.3346 4.29479 63.0693 6.93715C62.6855 6.14632 62.3922 5.7986 61.9834 5.34318C60.13 3.27533 57.1439 2.3091 53.1438 2.3091C49.231 2.3091 45.9735 3.51442 43.7113 5.41088C42.535 3.52766 39.733 2.27741 36.3538 2.27741C31.9386 2.27741 27.1335 2.89591 24.2769 7.4298C24.2107 5.79583 24.0585 4.93422 23.1277 3.96061C21.9972 2.78206 20.1672 2.47127 18.3843 2.47127C15.1346 2.47127 12.6908 3.87045 10.9319 6.72206C8.38081 10.7408 2.19338 23.9695 2.33472 30.3749C2.42209 34.5137 5.23873 37.4955 10.2767 37.6124C14.2144 37.7047 17.301 36.6647 19.2655 34.7137C21.0272 36.597 23.7168 37.7078 26.9338 37.7078C30.5158 37.7078 34.1228 36.6462 36.2539 34.3291C38.0481 36.4985 40.8688 37.7632 44.4976 37.7478C49.2466 37.7171 53.4121 35.5077 56.1361 32.1043C57.6276 36.1139 61.4156 37.7078 65.5561 37.7078C74.6235 37.7078 78.605 31.5597 81.9249 21.8371C82.6706 19.643 83.6691 15.9905 83.8345 12.9195C84.1091 7.80829 81.9155 2.40018 73.5252 2.40018ZM85.794 16.384C85.3728 19.7012 83.0981 25.8512 81.8906 28.3068C78.6455 34.8981 74.3115 39.9631 65.968 39.9631C61.5092 39.9631 57.8398 38.5568 55.693 35.8643C52.5541 38.5784 48.6662 40 44.4789 40C41.2526 40 38.4038 39.0799 36.2321 37.3813C33.8295 39.0492 30.5969 39.9785 27.0055 39.9785C24.0114 39.9785 21.3161 39.1692 19.2049 37.6706C16.8716 39.1938 13.8132 39.9538 10.2218 39.8708C4.2465 39.7323 0.121537 35.9935 0.00296823 30.5685C-0.154604 23.363 6.00163 10.1682 8.90408 5.59858C11.0733 2.08139 14.3888 0.191399 18.4473 0.191399C22.8544 0.191399 24.4532 1.43365 25.2364 3.01254C28.6374 0.162167 33.1462 0 36.3538 0C39.8984 0 42.12 0.926225 44.0108 2.41249C46.6256 0.867759 49.6179 0.0664665 53.1875 0.0664665C57.7493 0.0664665 61.1347 1.11209 63.4999 3.41596C66.255 1.1524 69.7092 0.122163 73.572 0.122163C78.683 0.122163 82.0435 1.94076 84.0186 4.64774C86.7987 8.46957 86.3057 12.3191 85.794 16.384ZM36.3569 2.91776C31.9511 2.91776 27.511 3.50427 24.8276 7.76552L23.7209 9.52566L23.6319 7.4578C23.5664 5.8546 23.4151 5.18994 22.6603 4.39911C21.8272 3.53135 20.4306 3.10978 18.3856 3.10978C15.3817 3.10978 13.1248 4.39911 11.4817 7.05777C8.95182 11.0396 2.84426 24.1348 2.9803 30.3599C3.06767 34.3971 5.80162 36.8711 10.2935 36.9758C13.9954 37.0588 16.9384 36.1234 18.8055 34.2648L19.2836 33.7878L19.7413 34.2802C21.4215 36.0803 23.9755 37.0681 26.9335 37.0681C30.6996 37.0681 33.9228 35.9111 35.7731 33.8986L36.2786 33.3478L36.756 33.9263C38.4846 36.0249 41.1649 37.1419 44.4973 37.1112C48.8407 37.0804 52.897 35.1202 55.6272 31.7077L56.3417 30.8153L56.7442 31.8861C58.4198 36.3942 62.9847 37.0681 65.5558 37.0681C74.2862 37.0681 78.0555 31.163 81.3099 21.6312C82.118 19.2679 83.0323 15.7261 83.1883 12.8828C83.3037 10.7411 83.0104 7.73783 80.9542 5.60228C79.3192 3.89968 76.8199 3.03716 73.528 3.03716C69.3656 3.03716 66.0114 4.48896 63.562 7.35318L62.913 8.10708L62.4824 7.21471C62.1329 6.49158 61.8802 6.19309 61.4995 5.76844C59.8239 3.89445 57.0095 2.94669 53.1435 2.94669C49.602 2.94669 46.3975 3.99508 44.1291 5.89768L43.5581 6.37772L43.1618 5.7469C42.0885 4.02769 39.4175 2.91807 36.3566 2.91807L36.3569 2.91776ZM36.5067 4.99792C38.8624 4.99792 41.5771 5.99 41.5771 8.18401C41.5771 11.2242 38.9654 12.3843 36.3756 12.532C35.2679 12.5936 33.5674 12.6551 32.5502 12.5844C32.5502 12.5844 31.6859 13.8829 30.7685 16.1877C35.5675 15.523 37.6019 16.597 36.7906 19.3326C35.6954 23.0282 32.4472 23.2713 28.472 22.5697C28.16 23.4006 27.5734 25.1318 27.0991 26.9719C28.6374 26.5934 29.7919 26.3257 31.7701 26.3749C34.023 26.4303 35.4645 27.3535 35.4645 29.1905C35.4645 33.6463 30.4721 34.9541 27.0087 34.9541C23.202 34.9541 19.8621 32.8185 19.8621 28.7167C19.8621 23.9052 22.5049 16.6154 24.9836 11.7597C28.0321 5.79306 31.1461 4.99792 36.5067 4.99792ZM53.278 5.12224C57.8023 5.12224 61.3687 6.72544 60.8445 10.9073C60.4639 13.9752 58.9069 15.7754 56.0799 15.9938C55.2874 16.0554 52.0517 15.9631 53.1251 12.9536C53.4995 11.8981 53.6555 11.0704 52.0642 11.0704C50.763 11.0704 49.9175 11.8797 49.284 12.7567C47.8955 14.6799 44.8814 22.3974 44.4134 25.5626C44.0951 27.7351 45.0436 28.1751 46.0827 28.1751C47.7489 28.1751 49.6179 26.4365 50.2544 23.5698C50.2544 23.5698 47.0812 23.4929 47.958 20.7173C48.8035 18.0248 50.4198 17.4432 53.0907 17.3355C58.3577 17.1232 57.8366 20.9573 57.4154 23.0005C56.0487 29.6398 51.256 34.9756 44.4758 34.9756C39.836 34.9756 36.956 32.44 36.956 27.7751C36.956 24.4517 38.6284 19.231 39.9545 16.1785C42.7752 9.67643 45.7363 5.12224 53.278 5.12224ZM73.8716 5.16224C82.8391 5.26687 81.2384 13.1352 80.5395 16.557C79.7438 20.4711 77.9497 25.101 76.0027 28.5536C72.8263 34.1848 68.9697 34.9725 65.6029 34.9325C62.2393 34.8925 58.4388 33.6678 58.4139 28.5443C58.3827 24.8671 59.999 19.6741 61.3687 16.2739C63.7464 10.1011 66.1802 5.07301 73.8716 5.16224ZM18.4373 5.28841C20.6883 5.28841 21.2481 6.42696 21.2144 7.79321C21.127 11.4366 15.1524 22.5143 13.1932 26.8427C17.8854 26.0395 19.0655 27.7135 18.9157 29.2582C18.4757 33.8986 14.1604 34.9325 10.414 34.8494C7.69717 34.7848 5.25465 33.557 5.18631 30.4491C5.06774 25.0056 10.696 12.4182 13.3467 8.24863C14.5686 6.26387 16.0594 5.28841 18.4373 5.28841ZM72.9355 11.1996C72.1648 11.1996 71.4908 11.335 70.8886 12.252C69.5313 13.9906 65.5655 24.6733 65.6372 26.8058C65.6684 27.5689 66.0897 28.2397 67.0476 28.2397C68.1428 28.2397 68.7512 27.495 69.2942 26.5904C70.5391 24.5071 74.0494 15.0645 74.1461 12.7013C74.1773 12.0151 74.0588 11.1996 72.9355 11.1996ZM85.3416 2.09001V1.4635H85.7722C86.0904 1.4635 86.2558 1.57243 86.2558 1.77429C86.2558 1.93584 86.1528 2.0897 85.8283 2.0897L85.3416 2.09001ZM86.8954 3.3978L86.624 2.93623C86.39 2.53004 86.3244 2.46942 86.1279 2.39772V2.38849C86.521 2.34326 86.755 2.09124 86.755 1.74598C86.755 1.38288 86.521 1.10655 86.0218 1.10655H84.8642V3.39965H85.3416V2.46019H85.4289C85.6317 2.46019 85.716 2.48173 85.8096 2.57404C85.9032 2.66728 86.0436 2.86084 86.1279 3.02546L86.3151 3.39965H86.8954V3.3978ZM85.7503 0.462805C86.7488 0.462805 87.5632 1.25887 87.5632 2.24386C87.5632 3.22302 86.7488 4.02462 85.7503 4.02462C84.755 4.02462 83.953 3.22302 83.953 2.24386C83.953 1.25917 84.755 0.462805 85.7503 0.462805ZM85.7503 0.0249248C85.4551 0.0248018 85.1628 0.0821493 84.8902 0.193678C84.6175 0.305207 84.3699 0.468724 84.1615 0.674848C83.953 0.880972 83.7879 1.12565 83.6756 1.39484C83.5632 1.66404 83.5059 1.95246 83.5069 2.24356C83.5062 2.5342 83.5639 2.8221 83.6764 3.09072C83.7889 3.35934 83.9542 3.60338 84.1627 3.80883C84.3711 4.01428 84.6187 4.17708 84.8912 4.28788C85.1636 4.39868 85.4556 4.45531 85.7503 4.4545C86.9984 4.4545 88 3.46981 88 2.24356C88 1.01454 86.9953 0.0249248 85.7503 0.0249248Z" fill="black"/>
</svg>
