<svg width="85" height="42" viewBox="0 0 85 42" fill="none" xmlns="http://www.w3.org/2000/svg">
<path d="M50.81 33.4847C46.876 34.4832 44.2907 35.4817 42.5874 36.4214C37.2427 34.0123 31.4281 32.7212 25.8485 32.7212C18.9767 32.7212 12.751 34.4832 7.46497 37.0087L0.00585938 0.417969H50.81M15.159 9.58034H10.6366V22.9715H19.6804V19.7999H15.159V9.58034ZM27.5517 20.9148C25.4961 20.9148 25.0262 20.0338 25.0262 17.5681H34.2484C34.2484 11.636 32.8388 9.16812 27.5528 9.16812C21.797 9.16812 20.2699 11.1651 20.2699 16.3336C20.2699 21.3857 22.3843 23.7927 27.2602 23.7927C32.0763 23.7927 33.8383 22.0307 33.9547 19.2702H29.7259C29.7248 20.3872 29.3137 20.9148 27.5517 20.9148ZM25.0262 14.9251C25.0262 12.9281 25.4373 11.8133 27.3755 11.8133C29.2561 11.8133 29.7248 12.6943 29.7248 14.9251H25.0262ZM39.2983 9.58034H34.3648L39.4745 22.9715H45.0542L50.2825 9.58034H45.4653L42.3536 18.3316L39.2983 9.58034Z" fill="#A50716"/>
<path d="M50.751 0.417969H84.9924L76.946 37.0087C71.66 33.9535 66.8439 32.6625 59.8546 32.6625C56.037 32.6625 53.4527 33.0138 50.751 33.4847M51.5732 9.52161V22.9715H55.9782V9.52161H51.5732ZM59.326 10.4026L59.0911 11.7524C60.5007 10.8714 61.088 10.1079 61.088 9.10939C61.088 7.99346 60.3245 7.40613 59.2086 7.40613C58.0926 7.40613 57.3878 8.05328 57.3878 8.99192C57.3889 10.2264 58.2101 10.4026 59.326 10.4026ZM65.6105 18.7427H60.8531C60.9118 21.973 62.6151 23.2641 67.7836 23.2641C72.5997 23.2641 74.5379 22.2069 74.5379 18.8591C74.5379 13.5731 65.6105 16.2161 65.6105 13.0445C65.6105 12.281 66.4915 11.6349 67.6661 11.6349C68.9006 11.6349 69.3694 12.1624 69.6631 13.2794H74.1855C74.1268 10.4603 72.4833 9.16812 67.9598 9.16812C63.2611 9.16812 61.088 10.4603 61.088 13.398C61.088 19.2126 70.0155 16.0986 70.0155 19.3888C70.0155 20.3872 69.4869 20.8571 68.1947 20.8571C66.6677 20.8571 65.729 20.2698 65.6105 18.7427ZM69.2519 36.8314C70.6615 36.8314 71.8362 38.0061 71.8362 39.4157C71.8362 40.8253 70.6615 42 69.2519 42C67.8423 42 66.6677 40.884 66.6677 39.4157C66.6739 38.7323 66.9482 38.0786 67.4315 37.5953C67.9148 37.112 68.5685 36.8377 69.2519 36.8314ZM71.4251 39.4168C71.4251 38.2421 70.4864 37.3024 69.2519 37.3024C68.0185 37.3024 67.0788 38.2421 67.0788 39.4168C67.0788 40.5915 68.0773 41.5899 69.2519 41.5899C69.5375 41.5906 69.8204 41.5349 70.0844 41.426C70.3484 41.317 70.5882 41.157 70.7902 40.955C70.9921 40.7531 71.1521 40.5132 71.2611 40.2493C71.3701 39.9853 71.4258 39.7024 71.4251 39.4168ZM68.3709 40.7089V38.1247H69.0746C69.7794 38.1247 70.3091 38.3009 70.3091 38.9469C70.3091 39.2417 70.1329 39.4755 69.7218 39.7105L70.1917 40.7089H69.7218L69.3107 39.9454H68.8995V40.7089H68.3709ZM69.7218 38.9469C69.7218 38.7707 69.4858 38.6533 68.8995 38.6533V39.2993C69.3107 39.2993 69.7218 39.2993 69.7218 38.9469Z" fill="#A50716"/>
</svg>
