<svg width="175" height="26" viewBox="0 0 175 26" fill="none" xmlns="http://www.w3.org/2000/svg">
<path d="M64.9087 4.60119V21.362H76.1224V18.4491H68.3546V14.1517H75.5909V11.3061H68.3546V7.46664L75.8467 7.46817V4.60119H64.9087ZM77.4364 21.362H80.8118V4.52921H77.4364V21.362ZM92.7422 15.0706C92.7422 11.7426 91.2398 9.40859 87.5183 9.40859C83.7967 9.40859 81.8532 11.6293 81.8532 15.4672C81.8532 19.5349 83.3342 21.6407 87.6791 21.6407C89.7359 21.6407 91.6334 21.0159 92.5355 20.414L91.9106 18.2178C90.9151 18.7263 89.4602 19.0969 88.281 19.0969C87.1017 19.0969 86.2241 18.7508 85.8535 18.3572C85.414 17.8717 85.2057 17.086 85.2057 16.2774H92.7422V15.0706ZM89.4357 14.1256H85.2057C85.2532 12.5084 86.0373 11.7227 87.4248 11.7227C88.9548 11.7227 89.4357 12.7151 89.4357 14.1256ZM103.881 10.9569C103.071 10.1253 101.499 9.47904 99.7412 9.47904C95.649 9.47904 93.7086 11.326 93.7086 15.602C93.7086 19.7187 95.2569 21.6821 99.6263 21.6821C101.43 21.6821 102.979 21.2441 103.835 20.7126L103.141 18.3985C102.285 18.8166 101.199 19.1153 99.928 19.1153C98.1255 19.1153 96.9676 18.1229 96.9676 15.6495C96.9676 12.9693 97.9631 11.9723 99.7657 11.9723C100.76 11.9723 101.614 12.3889 102.169 12.8989L103.881 10.9569ZM113.88 9.71029H109.973V6.91376L106.665 7.46051V9.71029H104.656V12.3246H106.665V17.4566C106.665 20.5304 107.615 21.6407 110.295 21.6407C111.799 21.6407 113.232 21.316 114.341 20.7142L113.856 18.3097C113.14 18.6819 112.192 18.8886 111.522 18.8886C110.388 18.8886 109.973 18.5165 109.973 17.0385V12.346H113.88V9.71029ZM115.539 9.71029V21.362H118.89V13.3384C119.468 12.5987 120.533 12.1362 121.617 12.1362C122.221 12.1362 122.89 12.2985 123.26 12.5068L124.023 9.80065C123.513 9.52498 122.66 9.40706 121.874 9.40706C120.74 9.40706 119.337 9.91705 118.62 10.8666L118.622 9.70876L115.539 9.71029ZM129.795 9.40859C125.541 9.40859 123.735 11.4225 123.735 15.4902C123.735 19.3052 125.032 21.6407 129.308 21.6407C133.446 21.6407 135.387 19.6743 135.387 15.6066C135.387 11.6308 134.094 9.40859 129.795 9.40859ZM131.99 15.3983C131.99 18.0815 131.482 19.2118 129.379 19.2118C127.621 19.2118 127.137 17.8472 127.137 15.5147C127.137 12.879 127.69 11.836 129.725 11.836C131.598 11.836 131.99 13.2251 131.99 15.3983ZM136.592 9.71029V21.362H139.945V12.784C140.361 12.4854 141.194 12.1837 141.888 12.1837C143.528 12.1837 143.876 12.8315 143.876 14.1256V21.362H147.227V13.3201C147.227 10.983 146.394 9.43309 143.597 9.43309C142.303 9.43309 140.936 9.75777 139.735 10.5006V10.4745V9.71029H136.592ZM148.866 7.18944H152.264V4.48633H148.866V7.18944ZM148.89 21.362H152.241V9.71029H148.89V21.362ZM163.548 10.911C162.736 10.0779 161.165 9.43156 159.407 9.43156C155.318 9.43156 153.374 11.2816 153.374 15.5591C153.374 19.6727 154.926 21.6392 159.292 21.6392C161.095 21.6392 162.646 21.1996 163.501 20.6682L162.807 18.3556C161.952 18.7722 160.865 19.0724 159.594 19.0724C157.79 19.0724 156.635 18.08 156.635 15.6051C156.635 12.9234 157.629 11.9294 159.431 11.9294C160.427 11.9294 161.282 12.3445 161.836 12.8529L163.548 10.911ZM174.112 10.45C172.746 9.82669 171.431 9.43309 169.536 9.43309C166.276 9.43309 164.541 10.8206 164.541 12.9709C164.541 15.167 165.951 16.161 167.755 16.576L169.072 16.8762C170.252 17.1304 170.99 17.5256 170.99 18.1029C170.99 18.8197 170.252 19.1903 169.189 19.1903C167.847 19.1903 166.276 18.7508 165.305 18.1964L164.447 20.5993C165.628 21.2242 167.107 21.6851 169.166 21.6851C172.287 21.6851 174.206 20.4615 174.206 17.8931C174.206 16.184 173.142 15.2145 171.731 14.798C171.337 14.6816 170.621 14.4733 170.114 14.3584C168.887 14.1042 167.663 13.8469 167.663 12.9249C167.663 12.2296 168.401 11.8605 169.604 11.8605C170.945 11.8605 172.239 12.2066 173.163 12.7151L174.112 10.45Z" fill="#3B3B3B"/>
<path d="M31.8105 4.59961V21.4048H36.6087H43.7333V18.1305H35.6898V4.59961H31.8105Z" fill="#3B3B3B"/>
<path d="M52.2766 14.9991H55.4391V17.9366C54.8556 18.1602 53.7193 18.3807 52.6365 18.3807C49.1431 18.3807 47.9777 16.6057 47.9777 13.0021C47.9777 9.56383 49.0865 7.53918 52.5798 7.53918C54.5233 7.53918 55.6321 8.14872 56.5464 9.31266L58.9601 7.09504C57.4898 4.98769 54.9108 4.35059 52.4987 4.35059C47.0618 4.35059 44.2056 7.31558 44.2056 12.973C44.2056 18.6043 46.7846 21.6551 52.4696 21.6551C55.0762 21.6551 57.6292 20.9889 59.0152 20.0179V11.8657H52.2766V14.9991Z" fill="#3B3B3B"/>
<path d="M12.9994 26.0004C20.1791 26.0004 25.9988 20.1776 25.9988 13.001C25.9988 5.81972 20.1791 0 12.9994 0C5.81971 0 0 5.81972 0 13.001C0 20.1776 5.81971 26.0004 12.9994 26.0004Z" fill="#C5023C"/>
<path d="M13.5151 7.29297H12.4829V18.6904H16.1034V17.672H13.5151V7.29297Z" fill="white"/>
<path d="M8.85002 10.4041C9.71072 10.4041 10.4106 9.70425 10.4106 8.8466C10.4106 7.98743 9.71072 7.28906 8.85002 7.28906C7.99238 7.28906 7.29248 7.98743 7.29248 8.8466C7.29248 9.70425 7.99238 10.4041 8.85002 10.4041Z" fill="white"/>
<path d="M13.5149 2.12094C13.3847 2.11481 13.1259 2.11328 12.9988 2.11328C7.00297 2.11328 2.12207 6.99419 2.12207 12.9946C2.12207 15.8999 3.24772 18.6321 5.30147 20.6858C7.36287 22.7442 10.0966 23.876 12.9988 23.876C15.9025 23.876 18.6363 22.7442 20.6946 20.6858C22.7483 18.6321 23.8771 15.8999 23.8771 12.9946V12.5H23.4421H16.1108V13.5123H22.8448V13.6578C22.4987 18.7883 18.2136 22.8575 12.9988 22.8575C10.3661 22.8575 7.89124 21.8329 6.02587 19.9706C4.16203 18.1068 3.13592 15.6288 3.13592 12.9946C3.13592 10.362 4.16203 7.88246 6.02587 6.01862C7.89124 4.15325 10.3661 3.12867 12.9988 3.12867C13.1183 3.12867 13.397 3.13173 13.5149 3.1348V2.12094Z" fill="white"/>
</svg>
