<svg width="99" height="51" viewBox="0 0 99 51" fill="none" xmlns="http://www.w3.org/2000/svg">
<path d="M79.9104 1.19943H80.0612C80.1623 1.19943 80.2335 1.1842 80.2756 1.15071C80.3169 1.11722 80.3368 1.07459 80.3368 1.02359C80.3368 0.971829 80.3177 0.929964 80.2787 0.897232C80.2404 0.859173 80.1715 0.843949 80.0796 0.843949H79.9173V1.1941L79.9104 1.19943ZM79.562 0.605695H80.1883C80.3659 0.605695 80.4946 0.641471 80.5742 0.712262C80.6538 0.784576 80.6936 0.879725 80.6936 0.999232C80.6936 1.09362 80.663 1.17431 80.6018 1.24281C80.542 1.31132 80.4463 1.36156 80.3162 1.39201C80.3698 1.40723 80.408 1.43007 80.4348 1.4529C80.4701 1.48335 80.5076 1.52902 80.5459 1.58992L80.774 1.99335H80.3606C80.2258 1.72693 80.1355 1.56937 80.0903 1.51761C80.0444 1.46584 79.9984 1.44149 79.9525 1.44149C79.9418 1.44149 79.928 1.44149 79.9096 1.44529V1.99335H79.5574V0.605695H79.562ZM81.2135 1.30371C81.2135 1.01293 81.1101 0.764785 80.9042 0.559262C80.6974 0.35374 80.4486 0.250979 80.1562 0.250979C79.8652 0.250979 79.6202 0.354501 79.4135 0.559262C79.2068 0.764785 79.1072 1.01293 79.1072 1.30371C79.1072 1.59296 79.2114 1.84187 79.4173 2.0474C79.624 2.25292 79.8736 2.35568 80.1646 2.35568C80.4578 2.35568 80.7066 2.25292 80.9134 2.0474C81.1201 1.84187 81.2234 1.59373 81.2234 1.30371H81.2135ZM81.4684 1.30371C81.4684 1.5374 81.4103 1.75434 81.2923 1.95605C81.176 2.15777 81.0167 2.31686 80.8138 2.43332C80.6109 2.54902 80.3927 2.60687 80.1569 2.60687C79.9234 2.60687 79.7052 2.54902 79.5031 2.43332C79.3002 2.31686 79.1402 2.15777 79.023 1.95605C78.9082 1.75434 78.8469 1.5374 78.8469 1.30371C78.8469 1.07155 78.9082 0.854606 79.023 0.652128C79.1455 0.44965 79.3063 0.290561 79.5054 0.174098C79.7121 0.052307 79.9265 -0.000976562 80.1638 -0.000976562C80.3996 -0.000976562 80.6186 0.052307 80.8223 0.174098C81.0244 0.288277 81.1844 0.448128 81.3015 0.646038C81.4187 0.846232 81.4776 1.0647 81.4776 1.2961L81.4684 1.30371ZM16.754 32.3962H16.9071C17.0082 32.3962 17.0794 32.381 17.1215 32.3467C17.1621 32.3148 17.1827 32.2721 17.1827 32.2211C17.1827 32.1678 17.1628 32.1267 17.1238 32.0948C17.0832 32.0613 17.0166 32.0453 16.9209 32.0453H16.7547V32.3954L16.754 32.3962ZM16.4079 31.8025H17.0342C17.2118 31.8025 17.3405 31.8382 17.4201 31.909C17.4989 31.9813 17.5387 32.0765 17.5387 32.1968C17.5387 32.2896 17.5081 32.3718 17.4484 32.4404C17.3872 32.5089 17.2915 32.5576 17.1613 32.5888C17.2149 32.6093 17.2547 32.6314 17.2807 32.6535C17.3152 32.6855 17.3535 32.7334 17.3917 32.7951L17.6199 33.1985H17.2065C17.0763 32.9344 16.9844 32.7745 16.9385 32.7235C16.8926 32.6718 16.8466 32.6451 16.8007 32.6451C16.793 32.6451 16.7777 32.6451 16.7624 32.6504V33.1985H16.4163V31.8025H16.4079ZM18.0594 32.5005C18.0594 32.2097 17.9552 31.9623 17.7493 31.7568C17.5426 31.5513 17.2937 31.4485 17.002 31.4485C16.7111 31.4485 16.4615 31.5505 16.2548 31.7568C16.0481 31.9623 15.9455 32.2097 15.9455 32.5005C15.9455 32.7897 16.0481 33.0394 16.2548 33.2449C16.4615 33.4505 16.7103 33.5532 17.002 33.5532C17.293 33.5532 17.5426 33.4497 17.7493 33.2449C17.956 33.0394 18.0594 32.7905 18.0594 32.5005ZM18.3143 32.5005C18.3143 32.7342 18.2561 32.9511 18.1382 33.1528C18.0219 33.3545 17.8611 33.5136 17.6582 33.6301C17.4591 33.7519 17.2371 33.8052 17.0074 33.8052C16.7777 33.8052 16.5557 33.7519 16.3566 33.6301C16.1545 33.5159 15.9937 33.3561 15.8766 33.1582C15.7602 32.9587 15.7005 32.7395 15.7005 32.5081C15.7005 32.2752 15.7602 32.059 15.8766 31.8565C15.9937 31.654 16.1545 31.4949 16.3574 31.3792C16.561 31.2635 16.7785 31.2042 17.0128 31.2042C17.247 31.2042 17.4645 31.2635 17.6681 31.3792C17.8718 31.4957 18.0326 31.6533 18.1505 31.8573C18.2653 32.0613 18.325 32.2759 18.325 32.5119L18.3143 32.5005ZM13.7083 26.4147H19.8349L24.2449 14.9017L23.7549 26.4147H30.2497L40.1744 0.00891896H34.1107L29.5759 11.6742L30.3109 0.00891896H23.7556L13.7083 26.4147ZM41.156 0.00891896L31.2909 26.4147H37.4174L47.3407 0.00891896H41.1544H41.156ZM55.6745 24.5879L64.5596 0.707695L55.1225 10.6991L55.6738 24.5871L55.6745 24.5879ZM12.8034 17.5506C12.8034 17.5506 10.2768 22.302 10.2768 26.414C10.2768 26.414 10.0471 36.104 20.1105 36.104H21.4886C21.4886 36.104 23.5099 36.7434 58.3397 26.4216H49.5181L49.0588 15.5479L44.9229 26.4178H38.582L48.5994 0.0112025H54.6647L51.9084 7.59422L58.4315 0.0104413H77.5477L75.8924 4.39644H69.3677L67.3465 9.9699H73.4118L71.4824 14.9024H65.509L63.1202 21.3893H70.288L69.7368 23.3075C69.7368 23.3075 95.7435 16.638 98.4998 15.9072C98.4998 15.9072 24.3796 50.8293 12.2483 50.8293C12.2483 50.8293 0.535748 50.9001 0.535748 41.3981C0.535748 41.3981 -0.79644 32.5363 12.8041 17.5514L12.8034 17.5506Z" fill="black"/>
</svg>
