<svg width="200" height="200" viewBox="0 0 200 200" fill="none" xmlns="http://www.w3.org/2000/svg">
<rect width="200" height="200" rx="100" fill="#120348"/>
<g clip-path="url(#clip0_579_12187)">
<path d="M169.758 77L67.5126 120.535C59.0339 124.122 51.912 125.921 46.1527 125.921C39.6306 125.921 34.8963 123.639 31.9614 119.067C30.1154 116.133 29.5738 112.411 30.3308 107.898C31.0879 103.385 33.1027 98.5811 36.3638 93.4683C39.0833 89.3337 43.5381 83.9006 49.7399 77.1631C47.6363 80.4746 46.0937 84.1106 45.1744 87.9245C43.5439 94.8833 45.0114 99.9904 49.5768 103.251C51.7489 104.771 54.7363 105.534 58.5447 105.534C61.5845 105.534 65.0086 105.045 68.817 104.067L169.758 77Z" fill="#F8F9FA"/>
</g>
<defs>
<clipPath id="clip0_579_12187">
<rect width="139.759" height="139.759" fill="white" transform="translate(29.8008 31.2598)"/>
</clipPath>
</defs>
</svg>
