<svg width="161" height="38" viewBox="0 0 161 38" fill="none" xmlns="http://www.w3.org/2000/svg">
<path d="M21.8406 15.6406C22.1066 11.1284 18.5846 7.25974 13.9753 7H0.793945V30.3636H8.02062V23.1849H12.4206C13.5273 23.1849 14.6406 23.0543 15.7273 22.7998C19.0406 22.1276 21.5273 19.4062 21.8406 16.1105V15.6406ZM14.634 15.6733C14.557 16.2078 14.2891 16.6983 13.8778 17.0579C13.4666 17.4175 12.9385 17.6229 12.3873 17.6376C11.8473 17.6833 11.3873 17.6833 10.854 17.6833H8.02062V12.6125H12.234C12.8331 12.6099 13.4115 12.8267 13.8557 13.2204C14.2998 13.6141 14.5774 14.1561 14.634 14.74C14.6686 15.0502 14.6686 15.3631 14.634 15.6733ZM39.1547 25.1362C39.1547 23.3219 39.088 21.8013 39.088 20.0066C39.0819 19.0808 38.9542 18.1596 38.708 17.2656C38.5612 16.6719 38.2883 16.1151 37.9069 15.6316C37.5255 15.148 37.0443 14.7486 36.4947 14.4594C35.8396 14.0928 35.1281 13.8327 34.388 13.6893C32.0552 13.1722 29.639 13.1278 27.288 13.5588C26.6213 13.6567 25.9746 13.8394 25.3546 14.0939C24.6288 14.3761 23.9782 14.8167 23.4526 15.3822C22.9269 15.9476 22.54 16.6231 22.3213 17.357C22.1397 17.9062 22.0851 18.488 22.1613 19.0603C22.1704 19.1699 22.2021 19.2765 22.2546 19.3736L27.988 19.5041C27.974 19.1637 28.0307 18.824 28.1546 18.5056C28.2411 18.2608 28.3832 18.0385 28.5703 17.8553C28.7574 17.6722 28.9846 17.533 29.2346 17.4484C29.97 17.1803 30.7793 17.1803 31.5146 17.4484C31.762 17.5198 31.987 17.6511 32.1688 17.8302C32.3506 18.0093 32.4833 18.2304 32.5546 18.473C32.5997 18.615 32.6111 18.7652 32.588 18.9123C32.5649 19.0593 32.5079 19.1992 32.4213 19.3214C32.255 19.5514 32.0231 19.7285 31.7546 19.8304L31.2613 19.9871C30.508 20.1828 29.7413 20.346 28.9746 20.4765C28.3591 20.5729 27.7456 20.6817 27.1346 20.8028C26.3119 20.9632 25.4995 21.1702 24.7013 21.4228C23.9691 21.6535 23.2977 22.0389 22.7346 22.5518C21.9723 23.2131 21.4857 24.1262 21.368 25.1166C21.2677 25.7661 21.2949 26.4284 21.448 27.0679C21.6265 27.9046 22.038 28.6766 22.6369 29.2985C23.2358 29.9205 23.9987 30.3682 24.8413 30.5921C26.688 31.1402 28.668 31.0358 30.448 30.3114C31.3427 29.9754 32.1329 29.4177 32.7413 28.6929C32.8613 29.078 32.9946 29.4565 33.1213 29.8415C33.2013 30.0504 33.3213 30.2396 33.4613 30.4093H39.7813C39.5097 30.0067 39.3532 29.5403 39.328 29.0584C39.236 27.7532 39.178 26.4453 39.1547 25.1362ZM32.7813 24.5619C32.7377 25.0107 32.5845 25.4427 32.3346 25.8214C32.0332 26.246 31.6114 26.5749 31.1213 26.7677C30.6791 26.9639 30.2053 27.0831 29.7213 27.1201C29.3568 27.1566 28.9886 27.1279 28.6346 27.0353C28.3252 26.9549 28.047 26.7869 27.8346 26.5524C27.6398 26.3644 27.5074 26.1233 27.4546 25.8606C27.4058 25.6512 27.4202 25.4324 27.4959 25.2309C27.5717 25.0293 27.7055 24.8536 27.8813 24.725C28.0848 24.5443 28.3227 24.4046 28.5813 24.3139C29.2146 24.0855 29.848 23.8832 30.5013 23.707C31.288 23.4851 32.048 23.1979 32.7813 22.852C32.8658 23.419 32.8658 23.9949 32.7813 24.5619ZM54.528 13.3891C52.8647 12.8822 51.0673 13.008 49.4947 13.7415C48.5426 14.1865 47.6604 14.7622 46.8747 15.4514L46.7213 13.6893H40.5947V30.3897H47.1413V21.1226C47.1331 20.6145 47.2718 20.1146 47.5413 19.6803C47.8542 19.1521 48.3538 18.7543 48.9458 18.5619C49.5378 18.3695 50.1812 18.3959 50.7547 18.6361C51.2947 18.845 51.7013 19.2888 51.868 19.8304C51.9547 20.111 52.0013 20.3982 52.0013 20.6853V30.3702H58.7347V19.589C58.7481 18.7161 58.6129 17.8471 58.3347 17.0177C58.0679 16.1433 57.5777 15.3499 56.9105 14.7127C56.2432 14.0755 55.4209 13.6154 54.5213 13.3761L54.528 13.3891ZM94.1954 21.5468C93.3897 20.8446 92.4326 20.3293 91.3954 20.0393L90.6887 19.8435C89.4189 19.496 88.1273 19.23 86.822 19.0473C86.4727 18.9966 86.1257 18.9313 85.782 18.8515C85.625 18.8173 85.4728 18.7647 85.3287 18.6949C85.1442 18.6121 84.9999 18.4622 84.9265 18.277C84.853 18.0918 84.8562 17.8858 84.9354 17.7029V17.6507C85.1236 17.3192 85.4372 17.0731 85.8087 16.9654C86.4917 16.7382 87.2323 16.7382 87.9154 16.9654C88.6287 17.1612 89.102 17.8334 89.0487 18.5578H95.062C95.0622 17.8676 94.9381 17.1828 94.6954 16.5347C94.4603 15.8751 94.0341 15.2968 93.4687 14.8705C92.9853 14.4853 92.4402 14.181 91.8554 13.9699C91.2935 13.7466 90.7075 13.5868 90.1087 13.4935C88.6975 13.2418 87.2601 13.1607 85.8287 13.2521C85.0061 13.2967 84.1894 13.4146 83.3887 13.6045C82.3072 13.8351 81.2944 14.3062 80.4287 14.9815C79.8763 15.3817 79.4221 15.8976 79.0992 16.4914C78.7763 17.0853 78.5928 17.7422 78.562 18.4142C78.518 19.1184 78.6365 19.8233 78.9087 20.4765C79.1344 21.0616 79.4848 21.5929 79.9365 22.0351C80.3883 22.4773 80.931 22.8203 81.5287 23.0413C82.1287 23.2762 82.7487 23.459 83.382 23.5764L87.0754 24.2552C87.542 24.3204 87.9954 24.4379 88.442 24.588C88.842 24.7055 89.1287 25.0448 89.1954 25.4429C89.2414 25.6474 89.2337 25.8601 89.1731 26.0609C89.1125 26.2618 89.0009 26.4443 88.8487 26.5915C88.5421 26.8926 88.1448 27.0894 87.7154 27.1528C87.1288 27.2547 86.525 27.1983 85.9687 26.9896C85.7145 26.8958 85.4779 26.7612 85.2687 26.5915C84.9859 26.373 84.7787 26.0745 84.6754 25.7366C84.5787 25.446 84.5336 25.1414 84.542 24.836H78.3287V25.1949C78.3467 25.8805 78.5074 26.5553 78.8008 27.1781C79.0942 27.8008 79.5143 28.3585 80.0354 28.8169C80.8334 29.5633 81.8098 30.1018 82.8754 30.3832C85.0687 31.0228 87.382 31.1664 89.6354 30.8074C90.702 30.6573 91.722 30.331 92.6687 29.8415C93.0884 29.6292 93.482 29.3708 93.842 29.0715C94.6614 28.4185 95.2575 27.5361 95.5506 26.5424C95.8436 25.5488 95.8197 24.4912 95.482 23.5112C95.2564 22.7464 94.8096 22.0685 94.1954 21.5468ZM135.517 7.01958H141.897V11.4313H135.517V7.01958ZM135.517 13.7024H141.897V30.3963H135.517V13.7024ZM154.663 23.5242C154.646 23.8615 154.606 24.1972 154.543 24.5293C154.461 25.0132 154.239 25.4639 153.903 25.828C153.584 26.1797 153.147 26.4068 152.67 26.4675C152.291 26.5297 151.903 26.503 151.536 26.3896C151.17 26.2761 150.837 26.0791 150.563 25.8149C150.065 25.3571 149.713 24.7677 149.55 24.1181C149.095 22.6171 149.123 21.0152 149.63 19.5302C149.822 18.8999 150.245 18.3609 150.817 18.0162C151.228 17.7642 151.707 17.64 152.191 17.6598C152.675 17.6796 153.142 17.8425 153.53 18.1271C154.143 18.5709 154.55 19.2365 154.663 19.9805H160.49C160.552 19.0364 160.345 18.094 159.89 17.2591C159.397 16.3467 158.712 15.547 157.88 14.9126C157.048 14.2781 156.088 13.8234 155.063 13.5784C153.309 13.1165 151.466 13.0717 149.69 13.4478C146.49 14.0613 143.937 16.4238 143.13 19.5172C142.748 20.8352 142.677 22.2211 142.923 23.5699C143.077 24.5423 143.423 25.469 143.937 26.3109C144.57 27.4269 145.45 28.3993 146.503 29.1498C147.763 30.1156 149.277 30.7095 150.87 30.8596C152.07 30.9901 153.27 30.9379 154.457 30.6965C156.213 30.3746 157.815 29.5045 159.023 28.2165C159.64 27.6015 160.115 26.8648 160.417 26.0556C160.72 25.2465 160.842 24.3834 160.777 23.5242H154.663ZM129.97 13.3891C128.307 12.8822 126.509 13.008 124.937 13.7415C123.984 14.186 123.102 14.7618 122.317 15.4514L122.11 13.6893H115.989V30.3897H122.549V21.0704C122.545 20.5629 122.684 20.064 122.949 19.6281C123.273 19.1071 123.775 18.7158 124.366 18.5244C124.958 18.3331 125.599 18.3542 126.176 18.5839C126.709 18.7993 127.109 19.2365 127.269 19.7782C127.365 20.0737 127.412 20.382 127.409 20.6919V30.3702H134.183V19.589C134.197 18.716 134.062 17.8469 133.783 17.0177C133.516 16.1433 133.026 15.3499 132.359 14.7127C131.691 14.0755 130.869 13.6154 129.969 13.3761L129.97 13.3891ZM77.442 25.1362C77.442 23.3219 77.3754 21.8013 77.362 20.0066C77.362 19.0799 77.242 18.1597 77.002 17.2656C76.851 16.6727 76.5757 16.1171 76.1935 15.634C75.8113 15.1508 75.3306 14.7508 74.782 14.4594C74.1285 14.0945 73.4196 13.8345 72.682 13.6893C70.3448 13.1717 67.9241 13.1273 65.5687 13.5588C64.902 13.6567 64.262 13.8394 63.642 14.0939C62.9138 14.3736 62.261 14.8133 61.734 15.379C61.2069 15.9448 60.8196 16.6215 60.602 17.357C60.4224 17.9065 60.3656 18.4874 60.4353 19.0603C60.4503 19.1695 60.4841 19.2755 60.5353 19.3736L66.2687 19.5041C66.2522 19.1641 66.3066 18.8244 66.4287 18.5056C66.5158 18.2601 66.659 18.0373 66.8473 17.8541C67.0356 17.6709 67.2641 17.5322 67.5153 17.4484C68.2507 17.1803 69.06 17.1803 69.7953 17.4484C70.0427 17.5198 70.2677 17.6511 70.4495 17.8302C70.6313 18.0093 70.764 18.2304 70.8354 18.473C70.8795 18.6155 70.8898 18.766 70.8655 18.913C70.8413 19.06 70.7831 19.1997 70.6954 19.3214C70.5346 19.5513 70.307 19.7287 70.042 19.8304L69.542 19.9871C68.7887 20.1828 68.022 20.346 67.2553 20.4765C66.6441 20.5721 66.035 20.6809 65.4287 20.8028C64.6036 20.9623 63.7888 21.1693 62.9887 21.4228C62.2518 21.6475 61.577 22.0336 61.0153 22.5518C60.2386 23.2062 59.7394 24.1208 59.6153 25.1166C59.5084 25.7657 59.5356 26.4293 59.6953 27.0679C60.0687 28.7647 61.3753 30.1287 63.082 30.5921C64.9287 31.1402 66.9153 31.0358 68.6953 30.3114C69.5693 29.9779 70.3391 29.4268 70.9287 28.7125C71.042 29.091 71.1687 29.4695 71.3087 29.8415C71.3754 30.0504 71.502 30.2462 71.6554 30.4093H77.9754C77.7377 29.9972 77.6136 29.5317 77.6154 29.0584C77.5278 27.7524 77.47 26.4447 77.442 25.1362ZM70.9754 24.588C70.9206 25.0292 70.7607 25.4517 70.5087 25.8214C70.2445 26.2403 69.8561 26.5704 69.3954 26.7677C68.9623 26.957 68.5007 27.076 68.0287 27.1201C67.637 27.1602 67.2411 27.127 66.862 27.0222C66.5492 26.9445 66.2665 26.7789 66.0487 26.5458C65.863 26.3558 65.7359 26.1182 65.682 25.8606C65.635 25.6593 65.6456 25.4493 65.7127 25.2536C65.7797 25.0578 65.9006 24.884 66.062 24.7511C66.2684 24.5742 66.5054 24.435 66.762 24.34C67.3954 24.1181 68.0357 23.9157 68.682 23.7331C69.4687 23.5046 70.2353 23.2175 70.9754 22.8781C71.042 23.4459 71.042 24.0202 70.9754 24.588ZM107.529 13.363C106.254 13.1669 104.956 13.1669 103.682 13.363C101.8 13.6265 100.054 14.4753 98.702 15.7842C97.2096 17.1422 96.2974 19.0027 96.1487 20.9921C96.0154 22.1994 96.1287 23.4198 96.4687 24.588C96.9554 26.4023 98.062 27.9946 99.6021 29.1106C100.582 29.8742 101.735 30.3963 102.962 30.6443C104.695 31.0032 106.475 31.0032 108.209 30.6443C109.435 30.3963 110.602 29.8742 111.589 29.1106C113.122 28.0012 114.229 26.4023 114.709 24.588C115.059 23.4244 115.173 22.2049 115.043 20.9986C114.897 19.0066 113.984 17.143 112.489 15.7842C111.144 14.4827 109.408 13.6365 107.536 13.3695L107.529 13.363ZM107.929 25.2014C107.645 25.8119 107.126 26.2874 106.485 26.5235C105.844 26.7596 105.133 26.7372 104.509 26.461C103.929 26.2178 103.467 25.7673 103.215 25.2014C102.978 24.6914 102.817 24.1508 102.735 23.596C102.553 22.4803 102.58 21.3412 102.815 20.235C102.923 19.6588 103.15 19.1102 103.482 18.6231C103.71 18.2893 104.018 18.0156 104.38 17.8263C104.742 17.6371 105.145 17.538 105.555 17.538C105.965 17.538 106.369 17.6371 106.731 17.8263C107.093 18.0156 107.401 18.2893 107.629 18.6231C107.978 19.1046 108.217 19.6546 108.329 20.235C108.555 21.3445 108.582 22.48 108.395 23.596C108.32 24.1505 108.163 24.6912 107.929 25.2014Z" fill="#0057A7"/>
</svg>
