<svg width="122" height="34" viewBox="0 0 122 34" fill="none" xmlns="http://www.w3.org/2000/svg">
<path d="M14.065 4.18409V16.7943C14.065 25.8301 14.1112 29.2358 14.2343 29.3278C14.3267 29.3739 14.696 29.5119 15.05 29.6193C15.3886 29.7267 15.9272 29.8955 16.2196 30.0028C16.512 30.1102 17.1738 30.325 17.6817 30.4631C18.1895 30.6165 18.759 30.8006 18.959 30.8619C19.1591 30.9386 19.3746 31 19.4515 31C19.5439 31 19.6054 26.9807 19.6054 20.292C19.6054 10.4125 19.6208 9.55341 19.8824 9.0625C20.1133 8.58693 20.2056 8.52557 20.7135 8.54091C21.1136 8.55625 21.3753 8.66364 21.5907 8.92443C21.8831 9.27727 21.8985 9.53807 21.9139 14.1557V19.0187L22.6219 19.3409C23.7146 19.8165 25.4075 19.7705 26.3155 19.2489C27.6852 18.4511 28.3777 16.7943 28.3777 14.2938C28.3777 11.7318 27.7929 9.99829 26.454 8.66364C25.7153 7.91193 23.9454 6.76136 23.5453 6.76136C23.4375 6.76136 23.2221 6.65398 23.0528 6.53125C22.8989 6.40852 22.6373 6.30114 22.4987 6.30114C22.3448 6.30114 22.0063 6.20909 21.7292 6.08636C20.9444 5.76421 20.2056 5.51875 19.6054 5.38068C19.313 5.31932 18.8667 5.18125 18.6051 5.10455C17.4816 4.72102 14.6652 4 14.3267 4C14.1881 4 14.065 4.09204 14.065 4.18409ZM45.1836 9.55341C44.9528 9.78352 44.9374 10.6273 45.1836 10.8727C45.3221 11.0108 47.5383 11.0568 54.2021 11.0568C60.4813 11.0568 63.2361 11.1028 63.6824 11.2409C65.6215 11.7778 66.2833 14.2784 64.8212 15.5977C63.8978 16.4415 64.0825 16.4261 56.0028 16.4261H48.5232L47.7076 16.7943C47.1997 17.0244 46.6303 17.4693 46.1993 17.9449C45.199 19.0955 44.9681 20.1233 45.0297 23.1761L45.0759 25.554H48.6156L48.6925 22.6392C48.7695 19.433 48.8156 19.3102 49.8006 18.5585L50.3085 18.1903L58.0804 18.0983C62.3588 18.0523 66.0217 17.9602 66.2371 17.8835C67.2836 17.5307 68.1455 16.7176 68.7765 15.5057C69.2074 14.6773 69.1612 12.729 68.6995 11.8392C68.2532 10.9955 67.4991 10.2438 66.6527 9.79886L66.0063 9.44602L55.695 9.4C47.646 9.36932 45.3375 9.4 45.1836 9.55341ZM82.5505 9.50739C81.7502 9.67614 81.0423 10.0903 80.3344 10.8114C79.2263 11.9466 79.1647 12.3455 79.1647 17.4693V21.9489L78.7954 22.5472C78.5799 22.8693 78.1798 23.2989 77.9027 23.4983C77.3949 23.8665 77.3487 23.8665 72.9318 23.9125C70.4848 23.9278 68.3763 23.9432 68.284 23.9432C68.1455 23.9432 68.0839 24.2193 68.0839 24.7869V25.6307H73.6859C79.6726 25.6307 79.6572 25.6307 80.873 24.8176C81.3655 24.4955 82.2119 23.3295 82.4428 22.6699C82.5351 22.3784 82.6429 20.2307 82.689 17.3926L82.7814 12.6063L83.3816 11.9926C83.7048 11.6705 84.1511 11.3483 84.3819 11.2716C84.5974 11.2102 86.8289 11.1182 89.3221 11.0722L93.8622 10.9801V9.44602L88.4757 9.43068C85.5208 9.41534 82.8429 9.44602 82.5505 9.50739ZM97.6327 9.59943C97.5096 9.75284 97.4634 10.704 97.5096 13.1585C97.5558 16.871 97.5712 16.9017 98.6946 17.6688L99.2179 18.0369L107.621 18.1136C115.701 18.1903 116.039 18.2057 116.485 18.4972C117.563 19.2182 117.948 19.9085 117.948 21.1051C117.948 22.1943 117.532 22.9 116.47 23.5903C116.07 23.8511 115.439 23.8665 106.944 23.9125C101.957 23.9278 97.7712 23.9739 97.6635 24.0199C97.525 24.0659 97.4788 24.3267 97.5096 24.8176L97.5558 25.554L107.713 25.6C119.025 25.646 118.363 25.692 119.764 24.5875C122.057 22.7619 122.057 19.2795 119.764 17.4693C118.378 16.3801 118.825 16.4261 109.899 16.4261C103.82 16.4108 101.803 16.3648 101.634 16.2267C100.957 15.7051 100.865 15.3523 100.865 13.358C100.865 12.054 100.926 11.3636 101.049 11.2409C101.188 11.1028 103.604 11.0568 110.96 11.0568C119.687 11.0568 120.687 11.0261 120.779 10.8114C120.933 10.4125 120.887 9.75284 120.687 9.55341C120.548 9.41534 117.778 9.36932 109.16 9.36932C99.4334 9.36932 97.802 9.4 97.6327 9.59943ZM11.9874 19.525C11.7411 19.617 11.3256 19.7705 11.064 19.8778C10.8177 19.9852 10.4638 20.108 10.2945 20.154C10.1252 20.2 9.60193 20.3841 9.14023 20.5682C8.67853 20.7523 8.09371 20.9517 7.83208 21.0284C7.58584 21.1051 6.98563 21.3045 6.52393 21.4886C6.06223 21.6574 5.26195 21.9489 4.75408 22.1176C1.84537 23.1148 0.444881 24.2347 0.829631 25.2472C1.10665 25.9989 2.09161 26.6739 3.36898 27.0114C3.63061 27.0881 4.04614 27.2108 4.29238 27.3028C5.73904 27.7937 7.26265 27.9625 9.802 27.9011C12.9108 27.8398 12.8338 27.8858 12.8338 26.0602C12.8338 24.6335 12.8492 24.6335 11.4487 25.1705C9.47881 25.9222 8.63236 26.1216 7.66279 26.0602C6.53932 25.9835 5.96989 25.6307 6.21613 25.1551C6.30847 25.0017 6.60088 24.8176 6.8779 24.7256C7.13953 24.6489 7.75513 24.4341 8.21683 24.25C8.67853 24.0659 9.23257 23.8818 9.44803 23.8358C9.66349 23.7898 9.90973 23.6824 10.0175 23.6057C10.1252 23.5136 10.433 23.3909 10.71 23.3295C11.6026 23.0994 12.603 22.7006 12.7107 22.5165C12.8492 22.3017 12.88 19.9239 12.7415 19.5864C12.6338 19.3102 12.6338 19.3102 11.9874 19.525Z" fill="#1355E1"/>
<path d="M27.0776 20.1925C25.9524 20.3507 24.553 20.6959 24.048 20.9403C23.7018 21.0985 23.6874 21.156 23.6874 22.6085C23.6874 24.3486 23.6585 24.3198 25.0579 23.7589C25.4907 23.5864 26.0534 23.3994 26.2842 23.3275C26.5294 23.2556 27.0776 23.0687 27.5105 22.8961C27.9433 22.7235 28.5059 22.5366 28.7367 22.4791C28.982 22.4215 29.3138 22.2921 29.4869 22.2058C29.66 22.1052 30.4247 22.0333 31.247 22.0333C32.5742 22.0333 32.7041 22.062 32.8628 22.3353C32.9782 22.5797 32.9782 22.6804 32.8195 22.8386C32.6031 23.0543 31.3047 23.5864 30.6843 23.7158C30.4824 23.7589 30.266 23.8452 30.1794 23.9028C30.1073 23.9603 29.8043 24.0897 29.5302 24.1616C29.2561 24.2479 28.6646 24.4492 28.2318 24.6218C27.799 24.7944 27.2508 24.9813 27.0055 25.0532C26.7747 25.1251 26.212 25.3121 25.7792 25.4846C25.3464 25.6572 24.7694 25.8441 24.5097 25.9161C23.6729 26.1174 23.6152 26.2468 23.6152 27.7999C23.6152 29.2092 23.6152 29.2236 23.9615 29.2236C24.1634 29.2236 24.351 29.1661 24.3943 29.0942C24.4376 29.0223 24.654 28.936 24.8704 28.8929C25.1012 28.8497 25.534 28.7203 25.8514 28.5909C26.1688 28.4758 26.7891 28.2313 27.2219 28.0732C27.6547 27.9006 28.2174 27.7136 28.4482 27.6417C28.6934 27.5698 29.2417 27.3829 29.6745 27.2103C31.2037 26.6207 31.6221 26.4769 32.0549 26.3475C32.3001 26.29 32.8483 26.0886 33.2811 25.9161C33.7139 25.7435 34.2333 25.5565 34.4353 25.4846C37.3062 24.4924 38.3449 23.457 37.5803 22.3209C37.0032 21.458 34.6805 20.5377 32.1559 20.1782C30.944 19.9912 28.4193 20.0056 27.0776 20.1925Z" fill="#1355E1"/>
</svg>
