<svg width="96" height="49" viewBox="0 0 96 49" fill="none" xmlns="http://www.w3.org/2000/svg">
<path fill-rule="evenodd" clip-rule="evenodd" d="M78.5975 43.5326H78.5525C77.0752 43.5326 75.8544 44.7608 75.8544 46.2821C75.8544 47.7702 77.0745 49 78.554 49H78.599C80.0928 48.9849 81.2821 47.771 81.2821 46.2806C81.2821 44.7774 80.0928 43.5635 78.5975 43.5326ZM80.7332 46.5118C80.5652 47.6637 79.6661 48.432 78.5983 48.4471C78.3133 48.4471 78.0208 48.4017 77.7359 48.2937C76.836 47.848 76.3336 47.0806 76.4086 46.0669C76.5788 44.8379 77.5694 44.0704 78.6058 44.0855C79.2019 44.0855 79.7959 44.331 80.2533 44.8839C80.6192 45.4127 80.7707 45.8584 80.7407 46.5156L80.7332 46.5118ZM77.4097 47.9243L77.4247 44.6535H78.5983C78.9057 44.6687 79.1982 44.7767 79.4081 44.9451C79.6556 45.1143 79.7756 45.3455 79.7756 45.6061C79.7756 45.8977 79.6706 46.1424 79.4756 46.3275C79.2627 46.4967 79.0332 46.619 78.8052 46.619L79.8101 47.9092H79.2927L78.6065 47.0028L78.347 46.65H77.9346L77.9496 47.9191H77.4172L77.4097 47.9243ZM11.5327 24.2749H0.830137C0.0374948 24.2749 0.0374949 24.2749 0.0374949 24.8581V46.5888C0.0224969 46.5737 0.0224969 46.5888 0 46.6039V46.619C0.014998 46.7422 0.152229 47.0949 0.608917 47.0949H5.79746C6.29989 47.0949 6.29989 47.0949 6.29989 46.6342V42.2575C6.29989 41.6592 6.29989 41.5671 6.88031 41.5671H11.5297C14.0006 41.4598 14.6103 40.8759 14.6103 38.05V27.2073C14.6103 24.7976 14.0006 24.2749 11.5304 24.2749H11.5327ZM53.8097 24.2749H36.1548C34.0506 24.2749 33.4252 24.7961 33.4252 26.8696V46.6357C33.4252 47.0964 33.4252 47.0964 34.0506 47.0964H39.0059C39.6913 47.0964 39.6913 47.0964 39.6913 46.6357V28.0208C39.6913 26.393 41.6733 26.2245 41.6733 28.0208V46.6334C41.6733 47.0942 41.6733 47.0942 42.4232 47.0942H47.365C47.9469 47.0942 47.9469 47.0942 47.9469 46.6334V28.0231C47.9469 26.4874 49.9289 26.3953 49.9289 28.0231V46.6357C49.9289 47.0964 49.9289 47.0964 50.5536 47.0964H55.6304C56.1951 47.0964 56.1951 47.0964 56.1951 46.6357V26.748C56.1951 24.7991 55.5682 24.2764 53.8149 24.2764L53.8097 24.2749ZM70.9448 24.2749H60.9299C59.2674 24.2749 58.5812 24.7961 58.5812 26.7624V46.6364C58.5812 47.0972 58.5812 47.0972 59.2674 47.0972H64.222C64.8474 47.0972 64.8474 47.0972 64.8474 46.6364V42.2016C64.9074 41.5104 65.3648 41.1576 65.8372 41.1418C66.3412 41.1267 66.8444 41.4968 66.8444 42.2635V46.6402C66.8444 47.101 66.8444 47.101 67.4698 47.101H72.6141C73.1165 47.101 73.1165 47.101 73.1165 46.6402V26.7465C73.1165 24.7976 72.5991 24.2749 70.9531 24.2749H70.9448ZM78.4925 46.2353H77.9429L77.9278 45.0071H78.4918C78.5368 45.0071 78.5668 45.0222 78.5968 45.0222C78.7617 45.0373 78.9267 45.0977 79.0392 45.1914C79.1742 45.2986 79.2642 45.4678 79.2642 45.6068C79.2642 45.7896 79.1892 45.9286 79.034 46.051C78.9117 46.159 78.7587 46.2194 78.5915 46.2353H78.4843H78.4925ZM31.4889 24.7976C31.4889 24.2749 31.3825 24.4426 30.91 24.2749H25.7882C25.2236 24.2749 25.2236 24.2749 25.2236 24.7961L25.2086 42.7802C25.2086 44.5463 23.2266 44.5002 23.2266 42.7802V24.7976C23.2266 24.2749 23.2266 24.2749 22.7076 24.2749H17.3564C16.7317 24.2749 16.7317 24.2749 16.7317 24.7961V43.8241C16.7317 46.6342 17.3616 47.0949 19.0714 47.0949H28.9775C30.9123 47.0949 31.5549 46.5737 31.4942 43.9933V24.7976H31.4889ZM8.34711 37.7577C8.31561 38.433 7.81318 38.7699 7.325 38.7699C6.80757 38.7699 6.30364 38.4179 6.30364 37.6957V27.7912C6.30364 27.1159 6.80607 26.7624 7.325 26.7624C7.84243 26.7624 8.34636 27.1174 8.34636 27.8426V37.7607L8.34711 37.7577ZM66.8444 37.7577C66.8444 38.3718 66.3419 38.6792 65.838 38.6641C65.3506 38.6641 64.8481 38.3567 64.8481 37.7577V28.0208C64.8481 27.3455 65.3506 27.0237 65.838 27.0237C66.3404 27.0388 66.8444 27.3757 66.8444 28.0208V37.7577ZM95.6284 1.05376C95.156 0.285534 94.1361 0.515925 92.8988 1.11419C91.3015 1.80611 88.4219 5.03083 87.717 6.82788C87.0946 9.41128 85.6323 11.7907 83.2551 14.359C80.863 16.326 76.6095 15.5427 74.1544 13.9738C74.0021 13.9738 63.9258 6.06495 63.9258 6.06495C60.3113 3.1945 57.7961 1.94813 54.762 1.58177C54.6098 1.48885 54.4726 1.33551 54.4268 1.22674C53.9544 0.169205 53.8621 0.259851 53.5269 0C53.1295 0.30744 52.84 0.47589 52.4441 0.599016C52.2611 0.599016 52.2304 0.599017 52.1239 0.538586C51.8794 0.430567 51.6214 0.213773 51.359 0.198665C51.056 0.262117 50.8116 0.876241 50.3991 1.49037C50.3991 1.49037 49.6995 2.10222 49.0568 2.64232C48.8146 2.8576 48.7846 3.19601 48.6144 3.39543C48.2814 3.76406 47.8847 4.36232 47.824 4.36232C47.6717 4.79289 47.6102 5.17662 47.884 5.37453C47.884 5.85042 48.1284 5.9743 48.2214 6.08232C48.2964 6.23642 48.3114 6.29761 48.4186 6.40562C48.6009 6.48343 48.7531 6.51364 48.9361 6.55972C49.9109 7.46618 50.3084 7.45107 51.4362 7.29773C53.3875 7.43596 53.221 8.09617 53.176 9.09553C53.053 9.24661 53.0223 9.2315 52.885 9.30931C52.0151 9.30931 51.1003 9.10913 50.2319 9.10913C48.3271 9.27909 46.6774 9.61523 46.8304 11.9343C46.9533 12.8407 48.5851 14.1007 49.4385 12.395C49.5585 11.6132 50.2154 11.9645 50.7808 12.1503C54.1951 13.6384 56.9225 14.4089 58.7372 12.8581C59.2869 12.1684 59.6221 12.6594 60.1868 13.0741C62.9314 16.36 66.8631 18.4947 72.9155 18.571C74.9283 19.0771 76.4678 19.9232 77.2304 21.9174C79.1052 26.7541 81.4839 30.6548 84.9769 32.6966C84.6859 35.7529 84.8074 38.2864 87.8715 38.9474C88.6799 38.2872 87.552 37.2886 88.4819 35.0466C88.4054 34.0473 87.552 33.2337 87.2618 31.3302C83.6953 28.3804 85.2049 27.168 84.6709 25.2017C84.6259 22.3313 84.0013 20.1331 82.7962 17.9539C82.6597 17.6026 82.8884 17.342 83.2086 17.1577C85.2214 15.6379 86.3207 14.1483 86.8081 12.7047C87.5535 10.138 88.8194 8.12714 90.6176 6.68436C92.1429 5.45309 93.591 5.07011 95.237 3.9801C96.2591 2.28956 96.1069 1.82878 95.6344 1.06055L95.6284 1.05376Z" fill="black"/>
</svg>
