<svg width="200" height="200" viewBox="0 0 200 200" fill="none" xmlns="http://www.w3.org/2000/svg">
<rect width="200" height="200" rx="100" fill="#120348"/>
<g clip-path="url(#clip0_579_12194)">
<path fill-rule="evenodd" clip-rule="evenodd" d="M144.566 128.094H144.5C142.349 128.094 140.57 129.87 140.57 132.07C140.57 134.222 142.347 136 144.503 136H144.568C146.744 135.978 148.476 134.223 148.476 132.068C148.476 129.894 146.744 128.139 144.566 128.094ZM147.677 132.402C147.432 134.068 146.122 135.179 144.567 135.201C144.152 135.201 143.726 135.135 143.311 134.979C142 134.335 141.268 133.225 141.377 131.759C141.625 129.982 143.068 128.872 144.578 128.894C145.446 128.894 146.311 129.249 146.978 130.048C147.511 130.813 147.731 131.457 147.688 132.408L147.677 132.402ZM142.836 134.445L142.858 129.715H144.567C145.015 129.737 145.441 129.893 145.747 130.137C146.107 130.382 146.282 130.716 146.282 131.093C146.282 131.514 146.129 131.868 145.845 132.136C145.535 132.38 145.201 132.557 144.869 132.557L146.332 134.423H145.579L144.579 133.112L144.201 132.602H143.6L143.622 134.437H142.847L142.836 134.445ZM46.8787 100.247H31.2893C30.1347 100.247 30.1347 100.247 30.1347 101.09V132.514C30.1128 132.492 30.1128 132.514 30.0801 132.536V132.557C30.1019 132.735 30.3018 133.246 30.967 133.246H38.5247C39.2566 133.246 39.2566 133.246 39.2566 132.579V126.25C39.2566 125.385 39.2566 125.252 40.102 125.252H46.8743C50.4735 125.097 51.3615 124.253 51.3615 120.166V104.487C51.3615 101.003 50.4735 100.247 46.8754 100.247H46.8787ZM108.46 100.247H82.7435C79.6785 100.247 78.7675 101.001 78.7675 103.999V132.581C78.7675 133.248 78.7675 133.248 79.6785 133.248H86.8965C87.8948 133.248 87.8948 133.248 87.8948 132.581V105.664C87.8948 103.31 90.7818 103.066 90.7818 105.664V132.578C90.7818 133.244 90.7818 133.244 91.8741 133.244H99.0724C99.92 133.244 99.92 133.244 99.92 132.578V105.667C99.92 103.446 102.807 103.313 102.807 105.667V132.581C102.807 133.248 102.807 133.248 103.717 133.248H111.112C111.934 133.248 111.934 133.248 111.934 132.581V103.823C111.934 101.005 111.021 100.249 108.467 100.249L108.46 100.247ZM133.419 100.247H118.831C116.41 100.247 115.41 101.001 115.41 103.844V132.583C115.41 133.249 115.41 133.249 116.41 133.249H123.626C124.537 133.249 124.537 133.249 124.537 132.583V126.17C124.625 125.17 125.291 124.66 125.979 124.637C126.713 124.615 127.446 125.15 127.446 126.259V132.588C127.446 133.254 127.446 133.254 128.357 133.254H135.85C136.582 133.254 136.582 133.254 136.582 132.588V103.821C136.582 101.003 135.829 100.247 133.431 100.247H133.419ZM144.413 132.003H143.612L143.591 130.226H144.412C144.477 130.226 144.521 130.248 144.565 130.248C144.805 130.27 145.045 130.357 145.209 130.493C145.406 130.648 145.537 130.893 145.537 131.094C145.537 131.358 145.428 131.559 145.202 131.736C145.024 131.892 144.801 131.98 144.557 132.003H144.401H144.413ZM75.9472 101.003C75.9472 100.247 75.7921 100.489 75.1039 100.247H67.6434C66.8209 100.247 66.8209 100.247 66.8209 101.001L66.7991 127.006C66.7991 129.56 63.9121 129.493 63.9121 127.006V101.003C63.9121 100.247 63.9121 100.247 63.1562 100.247H55.3615C54.4516 100.247 54.4516 100.247 54.4516 101.001V128.516C54.4516 132.579 55.3692 133.246 57.8596 133.246H72.289C75.1072 133.246 76.0433 132.492 75.9548 128.761V101.003H75.9472ZM42.2386 119.744C42.1927 120.72 41.4608 121.207 40.7497 121.207C39.996 121.207 39.262 120.698 39.262 119.654V105.332C39.262 104.355 39.9939 103.844 40.7497 103.844C41.5034 103.844 42.2375 104.357 42.2375 105.406V119.748L42.2386 119.744ZM127.446 119.744C127.446 120.632 126.714 121.076 125.98 121.054C125.27 121.054 124.538 120.61 124.538 119.744V105.664C124.538 104.687 125.27 104.222 125.98 104.222C126.712 104.244 127.446 104.731 127.446 105.664V119.744ZM169.373 66.6683C168.685 65.5574 167.2 65.8906 165.397 66.7557C163.071 67.7562 158.876 72.4193 157.849 75.0179C156.943 78.7536 154.813 82.1944 151.35 85.9082C147.866 88.7526 141.67 87.6199 138.094 85.3511C137.872 85.3511 123.195 73.9147 123.195 73.9147C117.93 69.7639 114.266 67.9616 109.847 67.4318C109.625 67.2975 109.425 67.0757 109.359 66.9184C108.671 65.3892 108.536 65.5203 108.048 65.1445C107.469 65.5891 107.047 65.8327 106.471 66.0107C106.204 66.0107 106.159 66.0107 106.004 65.9233C105.648 65.7671 105.272 65.4537 104.89 65.4318C104.449 65.5236 104.093 66.4116 103.492 67.2997C103.492 67.2997 102.473 68.1844 101.537 68.9654C101.184 69.2767 101.14 69.7661 100.892 70.0545C100.407 70.5875 99.8294 71.4526 99.7409 71.4526C99.5192 72.0752 99.4296 72.6301 99.8283 72.9163C99.8283 73.6045 100.184 73.7836 100.32 73.9398C100.429 74.1626 100.451 74.2511 100.607 74.4073C100.873 74.5198 101.094 74.5635 101.361 74.6301C102.781 75.9409 103.36 75.9191 105.003 75.6973C107.845 75.8972 107.602 76.8519 107.537 78.297C107.358 78.5155 107.313 78.4936 107.113 78.6061C105.846 78.6061 104.513 78.3167 103.248 78.3167C100.474 78.5624 98.0708 79.0485 98.2936 82.4019C98.4727 83.7127 100.85 85.5346 102.093 83.0682C102.267 81.9377 103.224 82.4456 104.048 82.7143C109.021 84.8661 112.994 85.9803 115.637 83.7378C116.438 82.7405 116.926 83.4505 117.749 84.0502C121.747 88.8017 127.474 91.8886 136.29 91.9989C139.221 92.7308 141.464 93.9541 142.575 96.8378C145.305 103.832 148.77 109.473 153.858 112.425C153.434 116.845 153.611 120.508 158.075 121.464C159.252 120.509 157.609 119.065 158.964 115.823C158.852 114.378 157.609 113.202 157.186 110.449C151.991 106.184 154.19 104.43 153.413 101.587C153.347 97.4364 152.437 94.2578 150.682 91.1065C150.483 90.5986 150.816 90.2217 151.283 89.9552C154.214 87.7575 155.816 85.6035 156.526 83.5161C157.611 79.8044 159.455 76.8967 162.075 74.8104C164.296 73.0299 166.406 72.4761 168.803 70.8999C170.292 68.4553 170.07 67.789 169.382 66.6781L169.373 66.6683Z" fill="#F8F9FA"/>
</g>
<defs>
<clipPath id="clip0_579_12194">
<rect width="139.815" height="71" fill="white" transform="translate(30.0918 65)"/>
</clipPath>
</defs>
</svg>
