<svg width="110" height="36" viewBox="0 0 110 36" fill="none" xmlns="http://www.w3.org/2000/svg">
<g clip-path="url(#clip0_1062_15038)">
<path d="M109.932 8.5709C108.436 0.104887 82.6311 -2.5371 52.2926 2.66964C39.5515 4.85743 28.0469 8.0843 19.0877 11.7146C20.4639 11.7443 21.4846 12.0554 22.1048 12.6651C22.5897 13.1436 22.8345 13.8003 22.8345 14.6185V15.4583H19.8596V14.7168C19.8596 14.099 19.4838 13.7161 18.8182 13.7161C18.2588 13.7161 17.9142 13.965 17.803 14.4554C17.7657 14.6493 17.7698 14.8486 17.815 15.0408C18.1333 16.3235 22.5508 17.1201 23.0312 19.4872C23.0942 19.7918 23.1797 20.4436 23.0449 21.3763C22.7693 23.2854 21.0677 24.0221 18.9014 24.0221C15.8778 24.0221 14.6495 22.6104 14.6495 20.664L14.6517 19.7432H17.8408L17.8424 20.8903C17.8424 21.5351 18.318 21.891 18.9655 21.891C19.5791 21.891 19.9374 21.6474 20.0613 21.1495C20.1188 20.9205 20.144 20.583 20.0393 20.3248C19.4493 18.8656 15.3244 18.184 14.8166 15.8245C14.7032 15.2941 14.6938 14.8426 14.7881 14.2718C14.8364 13.9888 14.9253 13.7141 15.0522 13.4558C5.11446 18.0371 -0.69891 23.078 0.0691935 27.4304C1.5665 35.8975 27.3709 38.5368 57.7088 33.33C71.0448 31.0418 83.0343 27.6162 92.1589 23.7774C92.0269 23.7839 91.8987 23.7979 91.7617 23.7979C89.6853 23.7979 87.8314 23.0311 87.6391 20.9389C87.6051 20.5581 87.5991 20.3988 87.598 20.1817L87.5991 15.3719C87.5991 15.1645 87.6237 14.8005 87.6473 14.6126C87.8933 12.5906 89.515 11.7567 91.7628 11.7567C93.5023 11.7567 95.6351 12.2487 95.8696 14.6142C95.9008 14.9112 95.8976 15.2282 95.897 15.3325V15.7867H92.8925V15.1089C92.8925 15.0943 92.8881 14.841 92.8553 14.6828C92.806 14.4414 92.5972 13.8819 91.7415 13.8819C90.8961 13.8819 90.677 14.4425 90.6222 14.6833C90.591 14.8156 90.5762 15.0057 90.5762 15.2164V20.4436C90.5734 20.6251 90.5827 20.7671 90.6014 20.8714C90.6162 20.9534 90.7679 21.6739 91.7519 21.6739C92.7287 21.6739 92.8799 20.9534 92.8936 20.8714C92.9194 20.7299 92.9227 20.5614 92.9216 20.4436V18.824H91.7393V17.0796H95.92V20.1828C95.9189 20.3939 95.9156 20.55 95.8795 20.9389C95.8291 21.4876 95.6538 21.952 95.3787 22.349C105.056 17.8195 110.69 12.8601 109.932 8.5709ZM31.2651 23.5754L29.7431 13.3812H29.6883L28.1274 23.5754H24.9197L27.0772 12.0629H32.3109L34.4553 23.5754H31.2651ZM46.694 23.5754L46.6233 13.5784H46.5718L44.6844 23.5754H41.6739L39.7958 13.5784H39.7421L39.6737 23.5754H36.6906L36.9491 12.0629H41.7473L43.1444 20.6148H43.2129L44.6137 12.0629H49.4097L49.6672 23.5754H46.694ZM60.7417 21.3444C60.4207 23.5744 58.2046 23.9643 56.6382 23.9643C54.0375 23.9643 52.429 22.8685 52.429 20.6386L52.4307 19.7291H55.5814L55.5836 20.8622C55.5836 21.4773 56.0235 21.8537 56.7029 21.8537C57.3088 21.8537 57.6638 21.6139 57.7871 21.1214C57.8441 20.8919 57.8676 20.557 57.7668 20.3043C57.1861 18.8726 53.0936 18.171 52.5961 15.8482C52.4822 15.3217 52.4739 14.8745 52.5676 14.3096C52.9139 12.2039 54.964 11.7664 56.6141 11.7664C58.0901 11.7664 59.1644 12.084 59.8087 12.7191C60.2892 13.1933 60.5325 13.8441 60.5325 14.6536V15.4842H57.586V14.7514C57.586 14.1238 57.191 13.7609 56.5561 13.7609C55.9929 13.7609 55.6521 14.0077 55.5403 14.4932C55.5041 14.6851 55.5089 14.8823 55.5546 15.0722C55.8701 16.3489 60.2487 17.1293 60.728 19.4742C60.7899 19.7734 60.8749 20.4155 60.7417 21.3444ZM71.6541 20.2983C71.6584 20.5144 71.6371 20.9459 71.625 21.0566C71.4453 22.9533 70.0691 23.9173 67.5451 23.9173C65.0112 23.9173 63.6339 22.9533 63.4553 21.0566C63.4351 20.8051 63.4254 20.5528 63.4263 20.3005V12.0602H66.4406V20.5603C66.4373 20.7504 66.4472 20.8908 66.4664 20.9885C66.5036 21.1776 66.6943 21.7911 67.5451 21.7911C68.3932 21.7911 68.5838 21.177 68.6238 20.9907C68.6408 20.8903 68.6512 20.7428 68.6512 20.5597V12.0602H71.6541V20.2983ZM84.6412 23.4583H80.4467L77.6313 14.3393H77.5841L77.7403 23.4583H74.8169V12.0629H79.1872L81.7895 20.8227H81.8503L81.6964 12.0629H84.6412V23.4583Z" fill="#0057A7"/>
</g>
<defs>
<clipPath id="clip0_1062_15038">
<rect width="110" height="36" fill="white"/>
</clipPath>
</defs>
</svg>
