<svg width="200" height="200" viewBox="0 0 200 200" fill="none" xmlns="http://www.w3.org/2000/svg">
<rect width="200" height="200" rx="100" fill="#120348"/>
<g clip-path="url(#clip0_579_12171)">
<path d="M145.863 90.6683L146.132 106.353H145.997L141.441 90.6683H133.935V110.424H138.894L138.626 94.206H138.761L143.652 110.424H150.822V90.6683H145.863ZM51.4436 90.6683L47.6912 110.625H53.1193L55.8667 92.4706H56.0006L58.6814 110.624H64.0423L60.3565 90.6683H51.4436ZM81.7328 90.6683L79.2538 105.886H79.1193L76.6403 90.6683H68.4648L68.0625 110.625H73.0884L73.2229 92.6704H73.2895L76.6397 110.624H81.7328L85.0836 92.671H85.2181L85.3514 110.624H90.3773L89.9084 90.6683H81.7328ZM39.2478 104.951C39.4484 105.418 39.3817 106.086 39.3145 106.42C39.1806 107.087 38.7117 107.754 37.371 107.754C36.0982 107.754 35.3609 107.021 35.3609 105.952V104.017H30V105.552C30 110.024 33.5513 111.358 37.3044 111.358C40.9229 111.358 43.9381 110.09 44.4076 106.82C44.6754 105.084 44.4743 103.95 44.4076 103.549C43.4692 99.345 35.8304 98.1437 35.2937 95.8074C35.227 95.4067 35.227 95.0067 35.2937 94.7394C35.4281 94.072 35.8971 93.4047 37.1032 93.4047C38.3094 93.4047 38.9801 94.1384 38.9801 95.207V96.4084H44.0054V95.0067C44.0054 90.6683 40.0518 90.001 37.2371 90.001C33.6858 90.001 30.7373 91.2023 30.2011 94.4057C30.0667 95.2734 30 96.0747 30.2678 97.0757C31.0723 101.214 38.2434 102.415 39.2478 104.951ZM104.45 104.951C104.651 105.419 104.584 106.019 104.517 106.42C104.383 107.087 103.914 107.754 102.574 107.754C101.3 107.754 100.564 107.021 100.564 105.952V104.017H95.2021V105.552C95.2021 109.957 98.6867 111.292 102.44 111.292C106.058 111.292 109.007 110.091 109.476 106.753C109.744 105.018 109.543 103.95 109.476 103.483C108.672 99.345 101.099 98.0767 100.564 95.808C100.496 95.4073 100.496 95.0067 100.564 94.7394C100.697 94.072 101.166 93.4047 102.373 93.4047C103.511 93.4047 104.249 94.1384 104.249 95.207V96.4084H109.207V95.0067C109.207 90.6683 105.321 90.001 102.507 90.001C98.9551 90.001 96.0732 91.1354 95.5377 94.4057C95.4032 95.2734 95.4032 96.0747 95.6043 97.0757C96.4088 101.214 103.445 102.348 104.45 104.951ZM121.337 107.621C122.744 107.621 123.146 106.686 123.28 106.152C123.347 105.953 123.347 105.618 123.347 105.419V90.6683H128.44V105.018C128.44 105.419 128.44 106.152 128.373 106.353C128.038 110.091 125.09 111.292 121.404 111.292C117.719 111.292 114.77 110.091 114.434 106.353C114.434 106.152 114.368 105.419 114.368 105.018V90.6683H119.46V105.419C119.46 105.685 119.46 105.952 119.528 106.152C119.528 106.686 119.93 107.621 121.337 107.621ZM163.152 107.421C164.627 107.421 165.096 106.486 165.229 105.952C165.297 105.752 165.297 105.418 165.297 105.218V102.348H163.219V99.4114H170.323V104.751C170.323 105.151 170.323 105.418 170.255 106.086C169.92 109.757 166.771 111.025 163.219 111.025C159.667 111.025 156.518 109.757 156.183 106.086C156.116 105.418 156.116 105.151 156.116 104.751V96.342C156.116 96.0077 156.183 95.3404 156.183 95.0067C156.652 91.2687 159.668 90.0674 163.219 90.0674C166.771 90.0674 169.854 91.2687 170.255 95.0067C170.323 95.6071 170.323 96.3414 170.323 96.3414V97.0087H165.297V95.8744C165.297 95.8744 165.297 95.4067 165.229 95.14C165.163 94.673 164.761 93.672 163.219 93.672C161.745 93.672 161.343 94.606 161.209 95.14C161.142 95.4067 161.142 95.741 161.142 96.0747V105.218C161.142 105.485 161.142 105.752 161.209 105.952C161.209 106.486 161.745 107.421 163.152 107.421Z" fill="#F8F9FA"/>
</g>
<defs>
<clipPath id="clip0_579_12171">
<rect width="140.323" height="139.759" fill="white" transform="translate(29.8379 30.5225)"/>
</clipPath>
</defs>
</svg>
