<svg width="93" height="72" viewBox="0 0 93 72" fill="none" xmlns="http://www.w3.org/2000/svg">
<g clip-path="url(#clip0_2304_64898)">
<path d="M28.1335 31.7116C28.1651 31.7116 26.6445 30.4184 26.0788 29.8596C25.2099 29.0016 25.2166 27.7213 25.2166 27.042C25.2166 26.3623 25.2166 23.6354 25.2166 22.8936C25.2166 22.1525 26.095 21.686 26.7225 21.7166C27.3493 21.7478 28.1806 22.1193 28.1806 22.8936V28.236H32.18C32.18 28.236 32.18 22.8936 32.18 21.7166C32.18 20.7856 30.927 17.3813 26.7225 17.3657C22.5173 17.3504 21.2646 19.7364 21.2646 21.7166C21.2646 23.6971 21.2646 27.7555 21.2646 28.8379C21.2646 29.9197 21.7351 31.9676 23.4289 33.3306C24.69 34.3453 25.1551 34.763 25.1551 34.763" fill="#002B5C"/>
<path d="M25.1551 34.7633C25.1235 34.7633 26.8173 36.1954 27.3833 36.7535C28.2522 37.6121 28.2455 38.8924 28.2455 39.5721C28.2455 40.2508 28.228 43.3782 28.228 44.1199C28.228 44.8607 27.3493 45.3275 26.7225 45.2959C26.095 45.2654 25.2637 44.8942 25.2637 44.1199L25.2815 38.3775H21.2825C21.2825 38.3775 21.2646 44.1199 21.2646 45.2963C21.2646 46.2286 22.5173 49.6322 26.7225 49.6478C30.927 49.6631 32.18 47.2768 32.18 45.2963C32.18 43.3164 32.1978 38.8576 32.1978 37.7755C32.1978 36.6941 31.7277 34.6461 30.0331 33.2828C28.7721 32.2691 28.1335 31.7117 28.1335 31.7117" fill="#002B5C"/>
<path d="M50.2482 49.3729H46.3262V25.2148H50.2482V26.2856C51.0623 25.606 51.4813 25.3563 52.9751 25.3563V29.2583C51.2527 29.2583 50.2482 30.0811 50.2482 31.3487C50.2482 32.4328 50.2482 49.3729 50.2482 49.3729Z" fill="#002B5C"/>
<path d="M60.7852 19.7815V25.3559H64.1729V29.2579H60.7852V49.3264H56.9274V29.2579H54.8105V25.3559H56.9274V19.7815H60.7852Z" fill="#002B5C"/>
<path d="M88.0477 23.6742C87.7719 23.3113 87.3775 23.5843 87.6344 23.9007C89.7688 26.5294 93.7163 34.9363 87.7716 45.1568C82.3561 54.4682 68.5811 64.688 44.9 63.9194C25.346 63.2852 6.89329 51.3203 7.07724 35.367C7.23798 21.4085 20.5493 2.55425 46.9886 1.73879C50.5014 1.63055 55.3192 1.67072 59.0375 2.21458C68.3729 3.57955 72.7459 5.11386 76.6865 6.88257C77.1916 7.10935 77.2373 6.72419 76.9393 6.54257C73.9885 4.75029 65.7412 0.389092 49.9489 0.0162245C26.907 -0.527306 3.74942 12.6157 0.743075 34.9137C-2.15397 56.4016 21.3069 71.4425 46.461 71.987C71.6147 72.5312 90.591 55.8495 92.3625 38.8111C93.4184 28.6593 88.0477 23.6742 88.0477 23.6742Z" fill="#FFF200"/>
<path d="M69.819 37.8057C69.5836 38.084 69.4424 38.3629 69.4424 39.1989C69.4424 40.0353 69.3956 43.7849 69.4424 44.4818C69.4901 45.1784 70.1018 45.4709 70.6187 45.4709C71.1362 45.4709 71.7482 45.1787 71.7482 44.4818C71.7482 43.7845 71.7482 36.3189 71.7482 36.3189C71.7482 36.3189 70.0544 37.5268 69.819 37.8057ZM75.7005 49.3264H71.7486C71.7486 49.3264 71.7765 48.0817 71.7486 48.1185C71.3245 48.676 70.195 49.2922 69.1602 49.3264C67.7492 49.3729 65.4908 48.597 65.5378 46.5387C65.5849 44.4821 65.5378 40.9646 65.5378 39.1063C65.5378 37.2479 66.4317 36.0406 67.2784 35.3899C68.1255 34.7398 68.9258 33.9963 69.7252 33.4389C70.5252 32.8814 71.7012 31.8754 71.7489 30.9769C71.795 30.0784 71.7489 30.4373 71.7489 29.7221C71.7489 28.5899 70.9957 28.3754 70.6194 28.3754C70.2427 28.3754 69.4431 28.5899 69.4431 29.6763V32.5563H65.5382C65.5382 32.5563 65.5382 31.0061 65.5382 28.5899C65.5382 26.1744 68.4557 24.7052 70.6194 24.7052C72.9242 24.7052 75.7009 26.2056 75.7009 28.5899C75.7005 30.6807 75.7005 49.3264 75.7005 49.3264Z" fill="#002B5C"/>
<path d="M40.3663 30.0784C40.3663 29.1786 39.5509 28.993 39.2684 28.993C38.9862 28.993 38.202 29.1185 38.202 30.0784V34.5983H40.3667C40.3663 34.5986 40.3663 30.6654 40.3663 30.0784ZM44.3183 38.3632H38.202V44.4821C38.202 45.1926 38.8299 45.5333 39.3003 45.5333C39.7708 45.5333 40.3667 45.1963 40.3667 44.4821V41.3192H44.3186V45.4712C44.3186 48.6926 41.7468 49.6176 39.3309 49.6535C37.2615 49.6847 34.2814 48.7248 34.2501 45.4413C34.2191 42.1596 34.2501 31.287 34.2501 28.5902C34.2501 25.7125 37.4185 24.7523 39.2058 24.7523C40.9935 24.7523 44.3183 25.7414 44.3183 28.5902C44.3183 30.6322 44.3183 38.3632 44.3183 38.3632Z" fill="#002B5C"/>
<path d="M89.3807 60.0901C89.6686 60.0901 89.9262 60.0695 89.9262 59.7289C89.9262 59.4546 89.6746 59.4042 89.4376 59.4042H88.9745V60.0898H89.3807V60.0901ZM88.9745 61.3342H88.6348V59.1196H89.488C90.0186 59.1196 90.2809 59.3125 90.2809 59.7491C90.2809 60.1459 90.0284 60.3176 89.6995 60.3587L90.3371 61.3342H89.9564L89.3649 60.3733H88.9742V61.3342H88.9745ZM89.3858 61.827C90.2651 61.827 90.9596 61.146 90.9596 60.2219C90.9596 59.3128 90.2655 58.6275 89.3858 58.6275C88.4956 58.6275 87.8015 59.3125 87.8015 60.2219C87.8015 61.146 88.4953 61.827 89.3858 61.827ZM87.4111 60.2219C87.4111 59.1199 88.3161 58.3071 89.3858 58.3071C90.4454 58.3071 91.3513 59.1196 91.3513 60.2219C91.3513 61.3346 90.4457 62.1467 89.3858 62.1467C88.3161 62.1464 87.4111 61.3342 87.4111 60.2219Z" fill="#002B5C"/>
</g>
<defs>
<clipPath id="clip0_2304_64898">
<rect width="92" height="72" fill="white" transform="translate(0.5)"/>
</clipPath>
</defs>
</svg>
