<svg width="213" height="59" viewBox="0 0 213 59" fill="none" xmlns="http://www.w3.org/2000/svg">
<g clip-path="url(#clip0_3408_61215)">
<path d="M27.1202 27.8075C27.8207 27.8075 28.1852 28.6395 27.706 29.1469L7.0248 51.0603L0 58.5L11.297 36.2132C11.5551 35.7018 11.2028 35.0971 10.6294 35.0646L1.16739 34.4801C0.606222 34.4436 0.253958 33.8632 0.487435 33.3558L14.279 3.66585L15.5365 0.962701C15.6676 0.682645 15.9502 0.5 16.2656 0.5H36.1931C36.8443 0.5 37.2253 1.22652 36.8484 1.75416L20.5214 24.6741L19.182 26.5533C18.8052 27.081 19.1861 27.8075 19.8374 27.8075H27.1202Z" fill="url(#paint0_linear_3408_61215)"/>
</g>
<path d="M62.427 9.4475C62.2173 9.7435 62.0015 9.95933 61.7795 10.095C61.5698 10.2307 61.317 10.2985 61.021 10.2985C60.7373 10.2985 60.4537 10.206 60.17 10.021C59.8863 9.836 59.5657 9.6325 59.208 9.4105C58.8627 9.1885 58.4618 8.985 58.0055 8.8C57.5492 8.615 57.0127 8.5225 56.396 8.5225C55.8287 8.5225 55.3292 8.60267 54.8975 8.763C54.4782 8.92333 54.1267 9.14533 53.843 9.429C53.5593 9.71267 53.3435 10.0457 53.1955 10.428C53.0598 10.8103 52.992 11.2297 52.992 11.686C52.992 12.1793 53.1277 12.5925 53.399 12.9255C53.6827 13.2585 54.0527 13.5545 54.509 13.8135C54.9777 14.0602 55.5018 14.2883 56.0815 14.498C56.6612 14.7077 57.2532 14.9358 57.8575 15.1825C58.4742 15.4292 59.0723 15.7128 59.652 16.0335C60.244 16.3542 60.7682 16.755 61.2245 17.236C61.6932 17.717 62.0632 18.2967 62.3345 18.975C62.6182 19.6533 62.76 20.4673 62.76 21.417C62.76 22.7737 62.5257 24.0502 62.057 25.2465C61.5883 26.4428 60.9162 27.4912 60.0405 28.3915C59.1648 29.2795 58.098 29.9887 56.84 30.519C55.5943 31.037 54.1883 31.296 52.622 31.296C51.845 31.296 51.0618 31.2097 50.2725 31.037C49.4955 30.8643 48.7432 30.6238 48.0155 30.3155C47.3002 29.9948 46.6342 29.6187 46.0175 29.187C45.4008 28.7553 44.8767 28.2743 44.445 27.744L46.591 24.932C46.7513 24.7223 46.961 24.5497 47.22 24.414C47.479 24.2783 47.738 24.2105 47.997 24.2105C48.3423 24.2105 48.6753 24.3338 48.996 24.5805C49.329 24.8148 49.6928 25.08 50.0875 25.376C50.4822 25.6597 50.9385 25.9248 51.4565 26.1715C51.9868 26.4058 52.6343 26.523 53.399 26.523C54.5213 26.523 55.3847 26.2208 55.989 25.6165C56.6057 24.9998 56.914 24.0933 56.914 22.897C56.914 22.342 56.7722 21.8857 56.4885 21.528C56.2172 21.1703 55.8533 20.8682 55.397 20.6215C54.953 20.3748 54.4412 20.159 53.8615 19.974C53.2818 19.7767 52.6898 19.567 52.0855 19.345C51.4812 19.123 50.8892 18.864 50.3095 18.568C49.7298 18.2597 49.2118 17.865 48.7555 17.384C48.3115 16.8907 47.9477 16.2925 47.664 15.5895C47.3927 14.8742 47.257 13.9985 47.257 12.9625C47.257 11.7662 47.479 10.6192 47.923 9.5215C48.3793 8.4115 49.0268 7.431 49.8655 6.58C50.7042 5.729 51.7217 5.05067 52.918 4.545C54.1143 4.03933 55.4587 3.7865 56.951 3.7865C57.7157 3.7865 58.4557 3.86667 59.171 4.027C59.8987 4.18733 60.577 4.40933 61.206 4.693C61.835 4.97667 62.4085 5.31583 62.9265 5.7105C63.4445 6.09283 63.8823 6.51217 64.24 6.9685L62.427 9.4475ZM86.181 31H80.113L81.519 19.53H71.788L70.382 31H64.314L67.644 4.0455H73.712L72.306 15.423H82.037L83.443 4.0455H89.511L86.181 31ZM96.6627 31H90.5947L93.8877 4.0455H99.9557L96.6627 31ZM108.129 21.9165L107.019 31H101.025L104.318 4.0455H113.235C114.838 4.0455 116.207 4.24283 117.342 4.6375C118.489 5.01983 119.426 5.55633 120.154 6.247C120.894 6.92533 121.437 7.73317 121.782 8.6705C122.127 9.5955 122.3 10.5945 122.3 11.6675C122.3 13.1352 122.072 14.498 121.615 15.756C121.171 17.0017 120.487 18.0808 119.562 18.9935C118.637 19.9062 117.465 20.6215 116.047 21.1395C114.629 21.6575 112.951 21.9165 111.015 21.9165H108.129ZM109.794 8.541L108.702 17.384H111.607C112.47 17.384 113.192 17.2607 113.771 17.014C114.363 16.755 114.838 16.3973 115.196 15.941C115.566 15.4723 115.831 14.9173 115.991 14.276C116.152 13.6347 116.232 12.9317 116.232 12.167C116.232 11.6367 116.158 11.1495 116.01 10.7055C115.874 10.2615 115.658 9.87917 115.362 9.5585C115.066 9.23783 114.69 8.99117 114.234 8.8185C113.79 8.6335 113.26 8.541 112.643 8.541H109.794Z" fill="#344E41"/>
<path d="M134.578 26.338C135.256 26.338 135.842 26.2887 136.336 26.19C136.841 26.079 137.273 25.9433 137.631 25.783C137.988 25.6227 138.29 25.45 138.537 25.265C138.784 25.0677 139.006 24.8888 139.203 24.7285C139.4 24.5682 139.585 24.4387 139.758 24.34C139.931 24.229 140.116 24.1735 140.313 24.1735C140.51 24.1735 140.671 24.2105 140.794 24.2845C140.93 24.3462 141.028 24.4202 141.09 24.5065L143.199 27.041C142.027 28.4347 140.634 29.4953 139.018 30.223C137.415 30.9383 135.589 31.296 133.542 31.296C131.84 31.296 130.329 31 129.01 30.408C127.702 29.8037 126.598 28.9773 125.698 27.929C124.798 26.8807 124.113 25.6412 123.645 24.2105C123.188 22.7675 122.96 21.2135 122.96 19.5485C122.96 18.0068 123.133 16.5453 123.478 15.164C123.823 13.7827 124.311 12.5062 124.94 11.3345C125.569 10.1628 126.321 9.10833 127.197 8.171C128.085 7.23367 129.065 6.43817 130.138 5.7845C131.211 5.13083 132.364 4.63133 133.598 4.286C134.831 3.92833 136.12 3.7495 137.464 3.7495C138.475 3.7495 139.394 3.84817 140.221 4.0455C141.059 4.2305 141.812 4.49567 142.478 4.841C143.156 5.174 143.76 5.57483 144.291 6.0435C144.821 6.51216 145.283 7.03016 145.678 7.5975L143.569 10.0395C143.421 10.2122 143.248 10.3663 143.051 10.502C142.854 10.6377 142.595 10.7055 142.274 10.7055C142.064 10.7055 141.873 10.6562 141.701 10.5575C141.528 10.4588 141.349 10.3417 141.164 10.206C140.991 10.058 140.794 9.89767 140.572 9.725C140.35 9.55233 140.085 9.39817 139.777 9.2625C139.468 9.1145 139.098 8.99117 138.667 8.8925C138.247 8.79383 137.748 8.7445 137.168 8.7445C136.033 8.7445 134.973 8.985 133.986 9.466C133.012 9.947 132.161 10.6377 131.433 11.538C130.718 12.426 130.157 13.5113 129.75 14.794C129.343 16.0643 129.139 17.4888 129.139 19.0675C129.139 20.2145 129.275 21.2382 129.546 22.1385C129.83 23.0388 130.212 23.8035 130.693 24.4325C131.174 25.0492 131.748 25.524 132.414 25.857C133.08 26.1777 133.801 26.338 134.578 26.338ZM167.724 31H163.062C162.544 31 162.124 30.8828 161.804 30.6485C161.495 30.4018 161.31 30.0812 161.249 29.6865L160.416 24.8395H151.259L149.261 29.6865C149.125 30.0318 148.86 30.3402 148.465 30.6115C148.07 30.8705 147.633 31 147.152 31H142.416L155.292 4.0455H161.471L167.724 31ZM152.942 20.7325H159.713L158.4 13.0365C158.289 12.3952 158.165 11.7477 158.03 11.094C157.906 10.428 157.801 9.82367 157.715 9.281C157.616 9.577 157.487 9.91617 157.327 10.2985C157.166 10.6685 157.006 11.0323 156.846 11.39C156.698 11.7477 156.55 12.0807 156.402 12.389C156.266 12.6973 156.167 12.9255 156.106 13.0735L152.942 20.7325ZM176.477 20.936L175.238 31H169.244L172.537 4.0455H180.714C182.366 4.0455 183.772 4.22433 184.932 4.582C186.103 4.92733 187.059 5.40833 187.799 6.025C188.539 6.64167 189.076 7.3755 189.409 8.2265C189.754 9.06516 189.927 9.97783 189.927 10.9645C189.927 11.9635 189.791 12.907 189.52 13.795C189.261 14.683 188.878 15.5032 188.373 16.2555C187.867 16.9955 187.244 17.6553 186.504 18.235C185.777 18.8023 184.944 19.271 184.007 19.641C184.377 19.8507 184.722 20.1035 185.043 20.3995C185.376 20.6955 185.635 21.0655 185.82 21.5095L189.742 31H184.303C183.797 31 183.372 30.9013 183.026 30.704C182.681 30.5067 182.44 30.223 182.305 29.853L179.382 21.8795C179.246 21.5342 179.061 21.2937 178.827 21.158C178.605 21.01 178.272 20.936 177.828 20.936H176.477ZM178.013 8.541L176.995 16.7735H179.197C180.06 16.7735 180.794 16.644 181.398 16.385C182.003 16.1137 182.49 15.756 182.86 15.312C183.242 14.868 183.513 14.35 183.674 13.758C183.846 13.166 183.933 12.5432 183.933 11.8895C183.933 11.3838 183.859 10.9275 183.711 10.5205C183.563 10.1012 183.328 9.74967 183.008 9.466C182.699 9.17 182.305 8.94183 181.824 8.7815C181.355 8.62116 180.8 8.541 180.159 8.541H178.013ZM212.348 4.0455L211.719 8.8185H204.874L202.136 31H196.142L198.843 8.8185H191.961L192.553 4.0455H212.348Z" fill="#E9ECEF"/>
<path d="M134.578 26.338C135.256 26.338 135.842 26.2887 136.336 26.19C136.841 26.079 137.273 25.9433 137.631 25.783C137.988 25.6227 138.29 25.45 138.537 25.265C138.784 25.0677 139.006 24.8888 139.203 24.7285C139.4 24.5682 139.585 24.4387 139.758 24.34C139.931 24.229 140.116 24.1735 140.313 24.1735C140.51 24.1735 140.671 24.2105 140.794 24.2845C140.93 24.3462 141.028 24.4202 141.09 24.5065L143.199 27.041C142.027 28.4347 140.634 29.4953 139.018 30.223C137.415 30.9383 135.589 31.296 133.542 31.296C131.84 31.296 130.329 31 129.01 30.408C127.702 29.8037 126.598 28.9773 125.698 27.929C124.798 26.8807 124.113 25.6412 123.645 24.2105C123.188 22.7675 122.96 21.2135 122.96 19.5485C122.96 18.0068 123.133 16.5453 123.478 15.164C123.823 13.7827 124.311 12.5062 124.94 11.3345C125.569 10.1628 126.321 9.10833 127.197 8.171C128.085 7.23367 129.065 6.43817 130.138 5.7845C131.211 5.13083 132.364 4.63133 133.598 4.286C134.831 3.92833 136.12 3.7495 137.464 3.7495C138.475 3.7495 139.394 3.84817 140.221 4.0455C141.059 4.2305 141.812 4.49567 142.478 4.841C143.156 5.174 143.76 5.57483 144.291 6.0435C144.821 6.51216 145.283 7.03016 145.678 7.5975L143.569 10.0395C143.421 10.2122 143.248 10.3663 143.051 10.502C142.854 10.6377 142.595 10.7055 142.274 10.7055C142.064 10.7055 141.873 10.6562 141.701 10.5575C141.528 10.4588 141.349 10.3417 141.164 10.206C140.991 10.058 140.794 9.89767 140.572 9.725C140.35 9.55233 140.085 9.39817 139.777 9.2625C139.468 9.1145 139.098 8.99117 138.667 8.8925C138.247 8.79383 137.748 8.7445 137.168 8.7445C136.033 8.7445 134.973 8.985 133.986 9.466C133.012 9.947 132.161 10.6377 131.433 11.538C130.718 12.426 130.157 13.5113 129.75 14.794C129.343 16.0643 129.139 17.4888 129.139 19.0675C129.139 20.2145 129.275 21.2382 129.546 22.1385C129.83 23.0388 130.212 23.8035 130.693 24.4325C131.174 25.0492 131.748 25.524 132.414 25.857C133.08 26.1777 133.801 26.338 134.578 26.338ZM167.724 31H163.062C162.544 31 162.124 30.8828 161.804 30.6485C161.495 30.4018 161.31 30.0812 161.249 29.6865L160.416 24.8395H151.259L149.261 29.6865C149.125 30.0318 148.86 30.3402 148.465 30.6115C148.07 30.8705 147.633 31 147.152 31H142.416L155.292 4.0455H161.471L167.724 31ZM152.942 20.7325H159.713L158.4 13.0365C158.289 12.3952 158.165 11.7477 158.03 11.094C157.906 10.428 157.801 9.82367 157.715 9.281C157.616 9.577 157.487 9.91617 157.327 10.2985C157.166 10.6685 157.006 11.0323 156.846 11.39C156.698 11.7477 156.55 12.0807 156.402 12.389C156.266 12.6973 156.167 12.9255 156.106 13.0735L152.942 20.7325ZM176.477 20.936L175.238 31H169.244L172.537 4.0455H180.714C182.366 4.0455 183.772 4.22433 184.932 4.582C186.103 4.92733 187.059 5.40833 187.799 6.025C188.539 6.64167 189.076 7.3755 189.409 8.2265C189.754 9.06516 189.927 9.97783 189.927 10.9645C189.927 11.9635 189.791 12.907 189.52 13.795C189.261 14.683 188.878 15.5032 188.373 16.2555C187.867 16.9955 187.244 17.6553 186.504 18.235C185.777 18.8023 184.944 19.271 184.007 19.641C184.377 19.8507 184.722 20.1035 185.043 20.3995C185.376 20.6955 185.635 21.0655 185.82 21.5095L189.742 31H184.303C183.797 31 183.372 30.9013 183.026 30.704C182.681 30.5067 182.44 30.223 182.305 29.853L179.382 21.8795C179.246 21.5342 179.061 21.2937 178.827 21.158C178.605 21.01 178.272 20.936 177.828 20.936H176.477ZM178.013 8.541L176.995 16.7735H179.197C180.06 16.7735 180.794 16.644 181.398 16.385C182.003 16.1137 182.49 15.756 182.86 15.312C183.242 14.868 183.513 14.35 183.674 13.758C183.846 13.166 183.933 12.5432 183.933 11.8895C183.933 11.3838 183.859 10.9275 183.711 10.5205C183.563 10.1012 183.328 9.74967 183.008 9.466C182.699 9.17 182.305 8.94183 181.824 8.7815C181.355 8.62116 180.8 8.541 180.159 8.541H178.013ZM212.348 4.0455L211.719 8.8185H204.874L202.136 31H196.142L198.843 8.8185H191.961L192.553 4.0455H212.348Z" fill="#588157"/>
<path d="M159.438 51.79C159.438 51.5993 159.471 51.4197 159.537 51.251C159.611 51.0823 159.71 50.9357 159.834 50.811C159.959 50.6863 160.102 50.5873 160.263 50.514C160.432 50.4407 160.615 50.404 160.813 50.404C161.004 50.404 161.18 50.4407 161.341 50.514C161.51 50.5873 161.657 50.6863 161.781 50.811C161.906 50.9357 162.005 51.0823 162.078 51.251C162.152 51.4197 162.188 51.5993 162.188 51.79C162.188 51.988 162.152 52.1713 162.078 52.34C162.005 52.5013 161.906 52.6443 161.781 52.769C161.657 52.8937 161.51 52.989 161.341 53.055C161.18 53.1283 161.004 53.165 160.813 53.165C160.615 53.165 160.432 53.1283 160.263 53.055C160.102 52.989 159.959 52.8937 159.834 52.769C159.71 52.6443 159.611 52.5013 159.537 52.34C159.471 52.1713 159.438 51.988 159.438 51.79ZM172.636 50.998C172.255 51.416 171.892 51.7643 171.547 52.043C171.21 52.3217 170.869 52.5453 170.524 52.714C170.179 52.8753 169.82 52.989 169.446 53.055C169.079 53.121 168.683 53.154 168.258 53.154C167.613 53.154 167.041 53.044 166.542 52.824C166.051 52.604 165.636 52.296 165.299 51.9C164.969 51.4967 164.716 51.0163 164.54 50.459C164.371 49.8943 164.287 49.2747 164.287 48.6C164.287 47.698 164.426 46.8327 164.705 46.004C164.991 45.1753 165.387 44.442 165.893 43.804C166.399 43.166 167 42.6563 167.697 42.275C168.394 41.8937 169.16 41.703 169.996 41.703C170.729 41.703 171.345 41.835 171.844 42.099C172.343 42.3557 172.779 42.7333 173.153 43.232L172.537 43.969C172.493 44.0277 172.438 44.0753 172.372 44.112C172.306 44.1487 172.233 44.167 172.152 44.167C172.049 44.167 171.947 44.123 171.844 44.035C171.749 43.9397 171.62 43.837 171.459 43.727C171.305 43.6097 171.107 43.507 170.865 43.419C170.63 43.3237 170.326 43.276 169.952 43.276C169.446 43.276 168.966 43.4153 168.511 43.694C168.064 43.9653 167.671 44.3393 167.334 44.816C166.997 45.2927 166.729 45.8573 166.531 46.51C166.34 47.1627 166.245 47.863 166.245 48.611C166.245 49.0657 166.296 49.48 166.399 49.854C166.502 50.2207 166.656 50.536 166.861 50.8C167.066 51.0567 167.316 51.2583 167.609 51.405C167.91 51.5443 168.258 51.614 168.654 51.614C168.984 51.614 169.277 51.581 169.534 51.515C169.791 51.4417 170.018 51.3537 170.216 51.251C170.414 51.1483 170.586 51.0383 170.733 50.921C170.887 50.7963 171.023 50.6827 171.14 50.58C171.265 50.4773 171.375 50.393 171.47 50.327C171.573 50.2537 171.675 50.217 171.778 50.217C171.925 50.217 172.049 50.2793 172.152 50.404L172.636 50.998ZM178.073 51.625C178.608 51.625 179.096 51.4783 179.536 51.185C179.976 50.8917 180.35 50.503 180.658 50.019C180.966 49.5277 181.204 48.963 181.373 48.325C181.541 47.687 181.626 47.0197 181.626 46.323C181.626 45.2963 181.424 44.5227 181.021 44.002C180.617 43.4813 180.034 43.221 179.272 43.221C178.729 43.221 178.238 43.3677 177.798 43.661C177.365 43.947 176.995 44.3357 176.687 44.827C176.379 45.311 176.14 45.872 175.972 46.51C175.803 47.148 175.719 47.8153 175.719 48.512C175.719 49.5387 175.917 50.316 176.313 50.844C176.716 51.3647 177.303 51.625 178.073 51.625ZM177.897 53.154C177.288 53.154 176.731 53.0513 176.225 52.846C175.719 52.6333 175.282 52.329 174.916 51.933C174.549 51.537 174.263 51.053 174.058 50.481C173.852 49.909 173.75 49.2563 173.75 48.523C173.75 47.5843 173.896 46.7007 174.19 45.872C174.483 45.0433 174.883 44.3173 175.389 43.694C175.902 43.0707 176.503 42.5793 177.193 42.22C177.889 41.8607 178.641 41.681 179.448 41.681C180.056 41.681 180.614 41.7873 181.12 42C181.626 42.2053 182.062 42.506 182.429 42.902C182.795 43.298 183.081 43.7857 183.287 44.365C183.492 44.937 183.595 45.586 183.595 46.312C183.595 47.2433 183.448 48.1233 183.155 48.952C182.861 49.7807 182.458 50.5067 181.945 51.13C181.439 51.7533 180.837 52.2483 180.141 52.615C179.444 52.9743 178.696 53.154 177.897 53.154ZM184.704 51.79C184.704 51.5993 184.737 51.4197 184.803 51.251C184.876 51.0823 184.975 50.9357 185.1 50.811C185.225 50.6863 185.368 50.5873 185.529 50.514C185.698 50.4407 185.881 50.404 186.079 50.404C186.27 50.404 186.446 50.4407 186.607 50.514C186.776 50.5873 186.922 50.6863 187.047 50.811C187.172 50.9357 187.271 51.0823 187.344 51.251C187.417 51.4197 187.454 51.5993 187.454 51.79C187.454 51.988 187.417 52.1713 187.344 52.34C187.271 52.5013 187.172 52.6443 187.047 52.769C186.922 52.8937 186.776 52.989 186.607 53.055C186.446 53.1283 186.27 53.165 186.079 53.165C185.881 53.165 185.698 53.1283 185.529 53.055C185.368 52.989 185.225 52.8937 185.1 52.769C184.975 52.6443 184.876 52.5013 184.803 52.34C184.737 52.1713 184.704 51.988 184.704 51.79ZM192.787 41.857L191.951 48.941C191.936 49.0877 191.921 49.227 191.907 49.359C191.899 49.491 191.896 49.6193 191.896 49.744C191.896 50.3453 192.006 50.7927 192.226 51.086C192.453 51.3793 192.809 51.526 193.293 51.526C193.63 51.526 193.975 51.4343 194.327 51.251C194.686 51.0677 195.031 50.8073 195.361 50.47C195.698 50.1327 196.01 49.7257 196.296 49.249C196.582 48.7723 196.831 48.2407 197.044 47.654L197.737 41.857H199.684L198.342 53H197.374C197.146 53 196.97 52.9487 196.846 52.846C196.721 52.7433 196.659 52.5857 196.659 52.373C196.659 52.3657 196.662 52.2997 196.67 52.175C196.677 52.0503 196.684 51.9147 196.692 51.768C196.706 51.6213 196.717 51.4857 196.725 51.361C196.739 51.2363 196.747 51.1703 196.747 51.163L196.824 50.272C196.23 51.218 195.566 51.9367 194.833 52.428C194.099 52.912 193.344 53.154 192.567 53.154C191.738 53.154 191.093 52.8717 190.631 52.307C190.176 51.7423 189.949 50.932 189.949 49.876C189.949 49.7293 189.952 49.579 189.96 49.425C189.967 49.271 189.982 49.1097 190.004 48.941L190.84 41.857H192.787ZM205.225 36.797L204.059 46.334H204.4C204.547 46.334 204.668 46.3157 204.763 46.279C204.859 46.235 204.965 46.1507 205.082 46.026L208.767 42.253C208.885 42.1357 208.998 42.0403 209.108 41.967C209.218 41.8937 209.361 41.857 209.537 41.857H211.264L206.963 46.224C206.853 46.3413 206.743 46.4513 206.633 46.554C206.531 46.6493 206.417 46.7337 206.292 46.807C206.41 46.895 206.509 46.9977 206.589 47.115C206.67 47.2323 206.751 47.3607 206.831 47.5L210.175 53H208.492C208.331 53 208.199 52.9707 208.096 52.912C208.001 52.8533 207.913 52.7543 207.832 52.615L204.994 48.05C204.899 47.9033 204.804 47.8043 204.708 47.753C204.62 47.7017 204.474 47.676 204.268 47.676H203.894L203.245 53H201.309L203.3 36.797H205.225Z" fill="#3B3B3B"/>
<defs>
<linearGradient id="paint0_linear_3408_61215" x1="18.4988" y1="58.5" x2="18.4988" y2="0.5" gradientUnits="userSpaceOnUse">
<stop stop-color="#3A5A40"/>
<stop offset="1" stop-color="#588157"/>
</linearGradient>
<clipPath id="clip0_3408_61215">
<rect width="37" height="58" fill="white" transform="translate(0 0.5)"/>
</clipPath>
</defs>
</svg>
