<svg width="129" height="25" viewBox="0 0 129 25" fill="none" xmlns="http://www.w3.org/2000/svg">
<path d="M69.8105 14.4301L54.6906 0.327953V24.0403H59.1895V10.8965L74.3094 24.9933V1.2863H69.8105V14.4301ZM34.744 0.0013671C33.0893 -0.0231944 31.4464 0.283425 29.9129 0.903046C28.3793 1.52267 26.9863 2.44267 25.8163 3.60853C24.6464 4.77438 23.7233 6.16235 23.1019 7.69015C22.4805 9.21794 22.1734 10.8545 22.1988 12.5027C22.1988 19.2325 27.9876 24.9986 34.744 24.9986C36.3983 25.0232 38.0407 24.7167 39.5739 24.0974C41.1071 23.4781 42.4998 22.5586 43.6697 21.3933C44.8396 20.2281 45.7628 18.8407 46.3845 17.3136C47.0062 15.7864 47.3139 14.1505 47.2893 12.5027C47.3139 10.8549 47.0062 9.21896 46.3845 7.6918C45.7628 6.16463 44.8396 4.7773 43.6697 3.61202C42.4998 2.44674 41.1071 1.52721 39.5739 0.907922C38.0407 0.288632 36.3983 -0.0178207 34.744 0.00672315M34.744 20.5121C33.6852 20.5221 32.6351 20.3218 31.655 19.9228C30.6749 19.5238 29.7844 18.9342 29.0358 18.1885C28.2871 17.4428 27.6952 16.5558 27.2946 15.5795C26.8941 14.6033 26.6929 13.5573 26.703 12.5027C26.703 8.01613 30.2398 4.49327 34.744 4.49327C39.2483 4.49327 42.785 8.01613 42.785 12.5027C42.785 16.9892 39.2483 20.5121 34.744 20.5121ZM14.4803 12.5027C13.1903 11.539 11.5777 10.8965 9.331 10.2594C4.82675 8.97447 4.82675 7.69489 4.82675 7.05778C4.82675 5.77285 6.43388 4.48792 8.686 4.48792C10.621 4.48792 12.2228 5.45162 12.8678 5.77285L13.1902 6.09409L16.727 3.52958L16.4045 3.20834C16.4045 3.20834 13.5128 0.00672315 8.686 0.00672315C6.43388 0.00672315 4.18175 0.649185 2.57463 1.92876C0.962125 3.21369 0 5.13038 0 7.05778C0 8.98518 0.9675 10.9019 2.57463 12.1814C3.86462 13.1451 5.46637 13.7876 7.7185 14.4301C12.2227 15.7097 12.2227 16.9892 12.2227 17.6317C12.2227 18.9113 10.6156 20.1908 8.3635 20.1908C6.43387 20.1908 4.82675 19.2271 4.18175 18.9113L3.85925 18.59L0.3225 21.1545L0.645 21.4758C0.645 21.4758 3.53675 24.6774 8.3635 24.6774C10.621 24.6774 12.8678 24.0349 14.4749 22.7554C16.0874 21.4704 17.0549 19.5537 17.0549 17.6317C17.0549 15.7043 16.0928 14.1035 14.4803 12.5027ZM94.256 0.00672315C92.6017 -0.0178207 90.9593 0.288632 89.4261 0.907922C87.893 1.52721 86.5002 2.44674 85.3303 3.61202C84.1604 4.7773 83.2372 6.16463 82.6155 7.6918C81.9938 9.21896 81.6861 10.8549 81.7107 12.5027C81.715 15.8155 83.0381 18.9914 85.3899 21.334C87.7416 23.6765 90.9301 24.9944 94.256 24.9986C95.9103 25.0232 97.5527 24.7167 99.0859 24.0974C100.619 23.4781 102.012 22.5586 103.182 21.3933C104.352 20.2281 105.275 18.8407 105.896 17.3136C106.518 15.7864 106.826 14.1505 106.801 12.5027C106.797 9.18985 105.474 6.01392 103.122 3.6714C100.77 1.32887 97.5819 0.0109731 94.256 0.00672315ZM94.256 20.5121C93.1972 20.5221 92.1471 20.3218 91.167 19.9228C90.1869 19.5238 89.2964 18.9342 88.5478 18.1885C87.7991 17.4428 87.2072 16.5558 86.8066 15.5795C86.4061 14.6033 86.205 13.5573 86.215 12.5027C86.215 8.01613 89.7517 4.49327 94.256 4.49327C98.7602 4.49327 102.297 8.01613 102.297 12.5027C102.297 16.9892 98.4377 20.5121 94.256 20.5121ZM114.52 12.1814C115.81 13.1451 117.422 13.7876 119.669 14.4301C124.173 15.7097 124.173 16.9892 124.173 17.6317C124.173 18.9113 122.566 20.1908 120.314 20.1908C118.379 20.1908 116.777 19.2271 116.132 18.9113H115.81L112.273 21.4758L112.595 21.797C112.595 21.797 115.487 24.9986 120.314 24.9986C122.566 24.9986 124.818 24.3562 126.425 23.0766C128.032 21.797 129 19.875 129 17.9476C129 16.0202 128.032 14.1035 126.425 12.8239C125.135 11.8602 123.534 11.2177 121.281 10.5753C116.777 9.29571 116.777 8.01613 116.777 7.37366C116.777 6.09408 118.384 4.81451 120.637 4.81451C122.566 4.81451 124.173 5.77821 124.818 6.09409L125.141 6.41532L128.678 3.85081L128.355 3.52958C128.355 3.52958 125.463 0.327953 120.637 0.327953C118.379 0.327953 116.132 0.97042 114.525 2.25C112.913 3.53493 111.945 5.45162 111.945 7.37366C111.628 9.30106 112.585 10.9019 114.52 12.1814Z" fill="#3B3B3B"/>
</svg>
