<svg width="112" height="22" viewBox="0 0 112 22" fill="none" xmlns="http://www.w3.org/2000/svg">
<path d="M39.9023 0C44.2003 0 47.6369 1.19956 50.2665 3.86642C52.0623 5.68165 53.0661 8.26986 53.0381 10.9841C53.0313 12.3227 52.7823 13.646 52.306 14.8746C51.8298 16.1031 51.1361 17.2116 50.2665 18.1336C47.8063 20.6588 43.9745 22 39.9019 22C35.8302 22 32.0689 20.6588 29.5661 18.1336C27.7424 16.3183 26.7241 13.7145 26.7521 10.9841C26.7521 8.286 27.7704 5.69728 29.5661 3.86642C31.8995 1.49906 36.0281 0 39.9023 0ZM39.9163 19.1118C42.0658 19.1118 44.0594 18.2753 45.4594 16.7288C46.8589 15.1667 47.481 13.2884 47.481 10.9841C47.481 8.77458 46.7885 6.70777 45.4589 5.23944C44.0879 3.72475 42.0373 2.87208 39.9163 2.87208C37.7953 2.87208 35.7453 3.72475 34.3597 5.23944C33.0307 6.70725 32.3377 8.77458 32.3377 10.9846C32.3097 13.115 33.0307 15.1829 34.3597 16.7293C35.7453 18.2602 37.7813 19.1118 39.9163 19.1118ZM17.3213 8.86886C18.0703 9.08971 18.7913 9.35848 19.4987 9.721C20.1519 10.0528 20.7496 10.5066 21.266 11.0628C22.1853 12.1358 22.708 13.5718 22.694 15.0552C22.7032 15.8384 22.5482 16.613 22.2413 17.3174C21.9345 18.0217 21.4843 18.6362 20.9267 19.1118C19.9387 19.9487 18.8153 20.5651 17.6181 20.927C15.8164 21.5576 13.9347 21.8561 12.047 21.8109C10.4043 21.8109 9.49575 21.5994 8.24928 21.3098L7.88995 21.2265C6.51795 20.8796 5.17535 20.4061 3.88828 19.7748C3.8302 19.7304 3.76075 19.7083 3.69041 19.7118C3.47855 19.7118 3.30868 19.917 3.30868 20.1535V21.2109H0.565615V13.5093H3.01188C3.02595 14.2893 3.24734 15.0472 3.64795 15.6865C4.63775 17.0444 5.69848 17.5653 6.71628 17.9758C8.42708 18.6071 10.2228 18.9383 12.0185 19.0014C14.5973 19.0014 16.1047 18.3034 16.4309 18.1523L16.4729 18.1331L16.5018 18.1211C16.7893 18.0034 17.9573 17.5257 17.9573 16.0814C17.9573 14.6526 16.8663 14.3416 16.1513 14.1385L16.0487 14.1083C15.2516 13.8687 13.426 13.6541 11.4301 13.4192L10.7179 13.3358C8.45555 13.0676 6.19315 12.6728 5.13288 12.4202C2.81028 11.8488 1.89328 10.9008 1.32488 10.3132L1.28661 10.2736C0.457179 9.28629 -0.00305025 7.9826 1.52158e-05 6.62912C1.52158e-05 4.04039 1.58388 2.47778 3.53501 1.51573C5.61355 0.473994 8.08781 0.0156275 10.2513 0.0156275C14.0831 0.0317744 17.1939 1.42041 18.3106 2.06786C18.7633 2.3361 18.9896 2.00483 18.9896 1.75221V0.97924H21.4499V7.68596H19.2439C19.0463 6.69061 18.5651 5.7935 17.8724 5.12901C17.4501 4.75051 16.9839 4.43742 16.4864 4.19822C14.6347 3.32993 12.6551 2.88823 10.647 2.91948C8.58295 2.91948 6.60335 3.36222 5.61355 4.04092C4.99148 4.46699 4.68021 5.00348 4.68021 5.63478C4.68021 6.53432 5.35875 6.89736 5.69848 7.00779C6.61641 7.31875 8.65155 7.54429 10.2345 7.72086C10.5779 7.75889 10.8999 7.79482 11.1846 7.82816C12.7115 8.00213 15.9073 8.47456 17.3213 8.86886ZM102.102 3.67787V1.18446H112V3.63047H109.78C108.974 3.63047 108.649 3.80444 108.041 4.56178L101.381 13.052C101.312 13.1567 101.282 13.2867 101.296 13.4155V17.282C101.307 17.4617 101.326 17.6407 101.353 17.8185C101.392 17.9327 101.454 18.0351 101.535 18.1174C101.616 18.1996 101.714 18.2594 101.819 18.2919C102.021 18.3233 102.224 18.339 102.427 18.3388H104.69V20.7859H92.6851V18.3393H94.8346C95.0379 18.3394 95.2409 18.3235 95.4422 18.2919C95.5485 18.2569 95.6467 18.1963 95.7298 18.1145C95.813 18.0326 95.879 17.9314 95.9233 17.8179C95.9512 17.6461 95.9653 17.4717 95.9653 17.2971V13.4312C95.9653 13.3051 95.9653 13.3051 95.8099 13.0999C93.618 10.3127 91.4217 7.5299 89.2211 4.75138C88.8673 4.34093 88.2593 3.67787 87.3264 3.67787H85.1909V1.23186H97.2664V3.67787H95.8099C95.4847 3.67787 95.2583 4.04091 95.5411 4.43573C95.5411 4.43573 99.5993 9.84862 99.6417 9.91164C99.6842 9.97519 99.7127 9.97519 99.7691 9.92727C99.8256 9.88039 103.94 4.48261 103.969 4.43573C104.036 4.3351 104.065 4.20889 104.049 4.08465C104.033 3.96041 103.973 3.84825 103.884 3.77267C103.8 3.71069 103.702 3.67772 103.601 3.67787H102.102ZM72.7767 3.66172H75.0391C76.0713 3.66172 76.2552 4.10342 76.2692 5.17693L76.3966 13.3358L64.3496 1.23082H55.7387V3.67735H57.6613C59.0473 3.67735 59.1463 4.52949 59.1463 5.28683V16.8179C59.1481 17.4872 59.1505 18.3544 58.2979 18.3544H55.9365V20.7853H66.0324V18.3388H63.5717C62.5823 18.3388 62.5399 17.8336 62.5254 16.7606V6.95987L76.3966 20.7687H79.9316L79.7477 5.16027C79.7617 4.02477 79.8327 3.64557 80.8789 3.64557H83.0844V1.19905H72.7767V3.66172Z" fill="#25268A"/>
</svg>
