<svg width="102" height="22" viewBox="0 0 102 22" fill="none" xmlns="http://www.w3.org/2000/svg">
<path fill-rule="evenodd" clip-rule="evenodd" d="M19.1986 16.818V8.67136H21.5418V6.34087H19.1986V1.73631H16.1529V6.34087H14.9718C14.6643 3.98158 12.9264 0.81897 7.80126 0.81897C1.79046 0.81897 0.681359 4.61675 0.681359 6.77161C0.681359 11.0272 3.57044 11.7274 6.56259 12.4553L8.5493 12.9402C10.5101 13.4251 11.9031 13.8287 11.9031 15.3369C11.9031 17.3841 9.86513 17.8419 8.03333 17.8419C4.65362 17.8419 4.13766 15.7947 4.11174 14.7173H0.397461C0.397461 17.1152 1.55839 21.1824 8.31723 21.1824C9.9423 21.1824 15.618 20.6705 15.618 14.8526C15.618 11.3785 13.2961 10.301 10.7681 9.65435L6.25336 8.4963C5.4794 8.30742 4.29256 7.98437 4.29256 6.4762C4.29256 4.72559 6.04662 4.1601 7.51736 4.1601C10.1346 4.1601 10.9103 5.38783 11.1752 6.34202H11.1303V8.67251H16.1529V17.7359C16.1529 19.5942 16.0199 20.8335 19.2793 20.8335H19.7641C20.3567 20.8335 20.9492 20.8064 21.5418 20.7793V17.9237C21.2723 17.9507 21.0028 17.9778 20.7609 17.9778C19.2257 17.9766 19.1986 17.6542 19.1986 16.818Z" fill="black"/>
<path fill-rule="evenodd" clip-rule="evenodd" d="M76.0898 17.8679V10.1111C76.0898 6.58284 72.3997 5.96322 70.3796 5.96322C67.6287 5.96322 64.7817 6.50741 64.0803 10.1889C63.1918 6.78958 59.9917 5.96322 57.9618 5.96322C53.9711 5.96322 51.8986 8.20907 51.2888 11.5865V1.33044H47.5181V11.636C46.7314 6.99401 43.4324 5.96322 40.9579 5.96322C36.119 5.96322 34.6592 9.24561 34.244 11.5392C33.4274 6.98134 30.1588 5.96322 27.7022 5.96322C21.4265 5.96322 20.834 11.4851 20.834 13.2087C20.834 19.1077 23.9315 21.0467 27.9717 21.0467C30.4226 21.0467 33.2777 19.9162 34.2745 16.468H30.3955C30.0995 17.4913 29.0221 18.0303 27.9717 18.0303C24.9278 18.0303 24.7124 15.6065 24.6047 14.5291H34.1478C34.5855 19.3991 37.5051 21.0467 41.2268 21.0467C43.6685 21.0467 46.5109 19.9243 47.5175 16.506V20.6695H51.2882V15.9256C51.8048 18.4875 53.4736 21.0467 57.7188 21.0467C61.0887 21.0467 62.772 19.3508 63.5822 17.7435C63.9738 20.074 65.9455 21.0467 67.8741 21.0467C70.4337 21.0467 71.6454 19.8621 72.508 18.9724C72.5892 19.7809 72.6416 19.9957 72.8575 20.6695H76.9242V20.104C76.467 19.9427 76.0898 19.565 76.0898 17.8679Z" fill="black"/>
<path fill-rule="evenodd" clip-rule="evenodd" d="M24.7119 12.0775C24.9273 10.1915 25.8705 9.05999 27.6482 9.05999C28.8598 9.05999 30.3415 9.76023 30.5569 12.0775H24.7119ZM40.9033 9.05999C42.1155 9.05999 43.5972 9.76023 43.8125 12.0775H37.9676C38.183 10.1915 39.1256 9.05999 40.9033 9.05999ZM47.5176 16.4672H43.6507C43.3541 17.4905 42.2767 18.0295 41.2269 18.0295C38.1829 18.0295 37.9676 15.6058 37.8599 14.5283H47.5176V16.4672ZM72.3993 15.5246C72.3993 17.2757 70.7022 18.352 69.0316 18.352C68.3049 18.352 67.2816 17.9483 67.2816 16.6291C67.2816 15.0668 68.4391 14.7161 69.8401 14.4742C71.4024 14.2312 72.0221 13.9893 72.3987 13.6928V15.5246H72.3993ZM71.0788 11.7803L67.6853 12.2923C65.736 12.5768 64.1962 13.5747 63.6894 15.4439H60.4387C60.4387 16.1177 59.792 17.9489 57.8802 17.9489C55.0256 17.9489 54.9715 14.8514 54.9715 13.2891C54.9715 11.512 55.59 9.14119 57.9608 9.14119C59.712 9.03292 60.3045 10.5146 60.4658 11.4579H64.2912C64.2779 11.2957 64.2594 11.134 64.2359 10.973H67.6047C67.7129 10.1374 68.0354 8.97937 69.9213 8.97937C70.8911 8.97937 72.3993 9.05999 72.3993 10.6494C72.3993 11.4579 71.6714 11.6997 71.0788 11.7803Z" fill="white"/>
<path fill-rule="evenodd" clip-rule="evenodd" d="M101.603 13.8549C101.603 7.3097 97.6974 5.96277 94.8699 5.96277C88.5942 5.96277 88.0011 11.4847 88.0011 13.2082C88.0011 13.4512 88.008 13.6839 88.0189 13.9136C85.9643 11.2964 80.1348 12.0824 80.1348 10.2189C80.1348 9.59931 80.3923 8.81787 82.3531 8.81787C84.3144 8.81787 84.6237 9.78762 84.7791 10.7032H88.3132C88.0287 6.66301 84.8298 5.96277 82.1475 5.96277C77.8642 5.96277 76.6014 8.65663 76.6014 10.7574C76.6014 16.118 85.1143 14.3127 85.1143 16.7106C85.1143 17.2496 84.6755 18.1917 82.8178 18.1917C80.5483 18.1917 79.8262 17.3031 79.8262 16.091H76.1113C76.215 19.9164 79.5935 21.0462 82.7158 21.0462C84.6663 21.0462 88.0494 20.4197 88.6362 17.1523C89.7419 20.0091 92.1881 21.0462 95.1394 21.0462C97.5914 21.0462 100.446 19.9158 101.442 16.4676H97.5643C97.2672 17.4909 96.1898 18.0299 95.1394 18.0299C92.096 18.0299 91.8812 15.6061 91.7729 14.5287H101.604V13.8549H101.603Z" fill="black"/>
<path fill-rule="evenodd" clip-rule="evenodd" d="M91.8799 12.0782C92.0947 10.1922 93.0374 9.06067 94.8156 9.06067C96.0278 9.06067 97.5095 9.76091 97.7254 12.0782H91.8799Z" fill="white"/>
</svg>
