<svg width="88" height="28" viewBox="0 0 88 28" fill="none" xmlns="http://www.w3.org/2000/svg">
<path fill-rule="evenodd" clip-rule="evenodd" d="M60.4946 16.9606H52.7343C52.5089 17.0169 52.6251 16.9888 52.4737 17.6049C52.0935 19.2 51.09 20.5203 49.4879 21.1788C47.6394 21.9323 44.988 21.9217 43.1958 21.126C39.2312 19.3619 38.3544 14.3022 39.7452 10.8516C40.4354 9.13338 41.7381 7.80243 43.4564 7.12288C45.2732 6.40107 48.0302 6.47149 49.7309 7.28836C51.3048 8.0489 52.1463 9.37985 52.4737 11.0347C52.5653 11.4889 52.5301 11.4256 53.016 11.422C55.4701 11.3939 58.0052 11.496 60.4453 11.4115C60.5615 9.74603 59.6284 7.38343 58.9242 6.26727C58.0545 4.89055 56.8856 3.7427 55.5229 2.88005C52.2871 0.827296 48.9105 0.225202 44.3402 0.520968C40.115 0.792086 36.9249 2.31317 34.7278 4.43986C29.911 9.11225 29.4005 18.8514 34.7454 23.8759L35.6221 24.6751C37.9319 26.6328 41.298 27.58 44.3648 27.8229C48.5091 28.1504 52.6005 27.4532 55.4807 25.5589C57.8186 24.0202 60.2693 21.1119 60.4946 16.95V16.9606ZM0 9.03831L9.96448 9.04535L9.97504 26.904L18.8762 26.911L18.8938 9.05944L28.8512 9.04887V1.85191L0.0281681 1.82727L0 9.03831ZM65.2691 26.9004L87.9445 26.918C88.0254 26.3547 88.0184 20.3267 87.9198 20.0204L73.8815 20.0098V1.83431L65.2797 1.80966C65.1529 2.47161 65.2409 21.552 65.2409 23.7702C65.2409 24.5836 65.1529 26.1857 65.2761 26.904L65.2691 26.9004Z" fill="#E64C3D"/>
<path fill-rule="evenodd" clip-rule="evenodd" d="M65.3147 26.829H87.8633L87.8879 20.1215C86.9443 20.1144 74.4024 20.2095 73.8813 20.0687C73.8074 19.8961 73.8109 19.9701 73.8109 19.7518V1.88965H65.3147L65.3076 26.822L65.3147 26.829Z" fill="#E64C3D"/>
</svg>
