<svg width="142" height="30" viewBox="0 0 142 30" fill="none" xmlns="http://www.w3.org/2000/svg">
<path d="M135.801 29.1074C136.034 29.1074 136.223 28.9191 136.223 28.6869V25.7704C136.223 25.5394 136.034 25.3521 135.801 25.3521H131.894C130.98 25.3521 128.566 25.305 127.235 24.6566C126.801 24.4442 126.472 24.2032 126.257 23.9174C126.059 23.6546 125.958 23.3216 125.958 22.9109V1.36452C125.958 1.13344 125.769 0.945068 125.536 0.945068H116.853C116.62 0.945068 116.435 1.13344 116.435 1.36452V22.2243C116.435 23.326 116.686 24.35 117.167 25.0597C117.687 25.8263 118.482 26.6028 119.533 27.1733C122.756 28.9169 128.603 29.1184 130.819 29.1074H135.801Z" fill="#DA0112"/>
<path d="M77.4346 0.944049C75.2175 0.930907 69.3699 1.13351 66.1488 2.87812C65.0964 3.44761 64.3027 4.22409 63.7809 4.99181C63.2998 5.70148 63.0488 6.72437 63.0488 8.08457V28.7943C63.0488 28.7943 63.2338 28.9827 63.4671 28.9827H72.1506C72.384 28.9827 72.5722 28.7943 72.5722 28.5632V12.1915H77.788C78.0203 12.1915 78.2096 12.0031 78.2096 11.7709V8.85667C78.2096 8.62449 78.0203 8.43612 77.788 8.43612H72.5722V7.13944C72.5722 6.72875 72.6735 6.39691 72.8727 6.13298C73.0874 5.84823 73.4154 5.6062 73.8503 5.39483C75.1801 4.74539 77.5942 4.69939 78.509 4.69939H82.4148C82.6493 4.69939 82.8386 4.51102 82.8386 4.27885V1.3635C82.8386 1.13132 82.6493 0.944049 82.4148 0.944049H77.4346Z" fill="#DA0112"/>
<path d="M21.1865 28.9826C21.4188 28.9826 21.6081 28.7943 21.6081 28.5632V4.75742H31.9582C32.1927 4.75742 32.381 4.56905 32.381 4.33687V1.42262C32.381 1.19044 32.1927 1.00208 31.9582 1.00208H1.77429C1.54091 1.00208 1.35156 1.19044 1.35156 1.42262V4.33687C1.35156 4.56905 1.54091 4.75742 1.77429 4.75742H12.1046V28.5632C12.1046 28.7943 12.2928 28.9826 12.5262 28.9826H21.1865Z" fill="#DA0112"/>
<path d="M58.6251 28.9826C58.8596 28.9826 59.0478 28.7942 59.0478 28.562V25.6467C59.0478 25.4145 58.8596 25.2261 58.6251 25.2261H41.954C41.0381 25.2261 38.6239 25.1801 37.2941 24.5307C36.8593 24.3193 36.5312 24.0784 36.3166 23.7926C36.1173 23.5275 36.016 23.1957 36.016 22.7872V21.2386H44.5189C46.736 21.2386 52.5837 21.1247 55.8048 19.5542C56.8572 19.0417 57.652 18.458 58.1716 17.7669C59.279 16.2961 59.3759 13.3501 58.1793 11.7588C57.6597 11.0678 56.8649 10.484 55.8125 9.97148C52.5914 8.39991 46.7437 8.28711 44.5266 8.28711H40.8785C38.6614 8.28711 32.8137 8.45796 29.5937 10.0295C28.5413 10.5432 27.7465 11.2419 27.2258 11.934C26.7448 12.5736 26.4971 13.4947 26.4971 14.488V22.7817C26.4971 23.775 26.7448 24.6961 27.2258 25.3357C27.7465 26.0278 28.5413 26.7265 29.5937 27.2402C32.8137 28.8106 38.6614 28.9935 40.8785 28.9826H58.6251ZM49.388 15.0421C49.388 15.4528 49.2856 15.7847 49.0863 16.0497C48.8717 16.3355 48.5436 16.5754 48.1088 16.7867C46.779 17.4351 44.3648 17.4822 43.4489 17.4822H36.005V14.2317C36.005 13.8221 36.1074 13.4903 36.3056 13.2252C36.5202 12.9405 36.8494 12.6985 37.2831 12.4871C38.6129 11.8388 41.0282 11.7917 41.943 11.7917H43.4489C44.3648 11.7917 46.779 11.8388 48.1088 12.4871C48.5436 12.6985 48.8717 12.9405 49.0863 13.2252C49.2856 13.4903 49.388 13.8221 49.388 14.2317V15.0421Z" fill="#DA0112"/>
<path d="M110.847 12.083C110.326 11.3908 109.533 10.691 108.479 10.1774C105.259 8.60687 99.4117 8.42398 97.1946 8.43603L92.6393 8.43384L92.6371 8.43603H82.6326C82.3993 8.43603 82.2099 8.6244 82.2099 8.85657V11.7708C82.2099 12.003 82.3993 12.1914 82.6326 12.1914H96.119C97.0349 12.1914 99.4502 12.2385 100.779 12.8868C101.214 13.0982 101.542 13.3391 101.756 13.625C101.956 13.8889 102.057 14.2218 102.057 14.6314V16.031H93.5541C91.337 16.031 85.4893 16.1449 82.2683 17.7154C81.2159 18.228 80.4222 18.8117 79.9004 19.5038C78.7181 21.0765 78.7103 24.0828 79.8926 25.6554C80.4133 26.3476 81.2092 26.9302 82.2606 27.4438C85.4816 29.0154 91.3293 29.1271 93.5453 29.1271H97.1946C99.4117 29.1271 105.259 28.9563 108.479 27.3858C109.533 26.8733 110.326 26.1734 110.847 25.4813C111.328 24.8428 111.576 23.9207 111.576 22.9273V14.6358C111.576 13.6436 111.328 12.7225 110.847 12.083ZM102.068 23.1825C102.068 23.5932 101.967 23.925 101.767 24.189C101.553 24.4759 101.225 24.7158 100.79 24.9282C99.4601 25.5755 97.0459 25.6226 96.13 25.6226H94.6241C93.7082 25.6226 91.293 25.5755 89.9631 24.9282C89.5294 24.7158 89.2014 24.4759 88.9867 24.189C88.7874 23.925 88.6862 23.5932 88.6862 23.1825V22.2275C88.6862 21.8168 88.7874 21.4839 88.9867 21.2211C89.2014 20.9352 89.5294 20.6943 89.9631 20.4818C91.293 19.8335 93.7082 19.7875 94.6241 19.7875H102.068V23.1825Z" fill="#DA0112"/>
<path d="M138.004 2.95035V2.28558H138.496C138.734 2.28558 138.963 2.30201 138.963 2.59113C138.963 2.93721 138.756 2.95035 138.461 2.95035H138.004ZM138.004 3.31614H138.32L138.94 4.2996H139.439L138.767 3.28766C139.202 3.23838 139.393 2.96021 139.393 2.61961C139.393 2.18592 139.132 1.9176 138.627 1.9176H137.573V4.2996H138.004V3.31614Z" fill="#DA0112"/>
<path d="M138.41 0.872803C137.173 0.872803 136.175 1.86831 136.175 3.0971C136.175 4.32588 137.173 5.32249 138.41 5.32249C139.645 5.32249 140.648 4.32588 140.648 3.0971C140.648 1.86831 139.645 0.872803 138.41 0.872803ZM138.41 4.90523C137.406 4.90523 136.592 4.09589 136.592 3.0971C136.592 2.0983 137.406 1.28897 138.41 1.28897C139.413 1.28897 140.227 2.0983 140.227 3.0971C140.227 4.09589 139.413 4.90523 138.41 4.90523Z" fill="#DA0112"/>
</svg>
