<svg width="102" height="54" viewBox="0 0 102 54" fill="none" xmlns="http://www.w3.org/2000/svg">
<path fill-rule="evenodd" clip-rule="evenodd" d="M79.1471 22.0074C76.3409 22.0074 74.2364 23.9844 74.2364 27.0329C74.2364 30.0497 76.2748 32.127 79.1471 32.127C82.0545 32.127 83.8918 30.1166 83.8918 27.0669C83.8918 24.0519 82.0545 22.0074 79.1471 22.0074ZM80.7511 29.5131C80.7511 29.9398 80.5821 30.3489 80.2813 30.6506C79.9805 30.9523 79.5725 31.1218 79.1471 31.1218C78.2793 31.1218 77.5771 30.418 77.5771 29.5131V24.4202C77.5768 24.2133 77.6173 24.0084 77.6961 23.8172C77.7749 23.626 77.8906 23.4523 78.0364 23.306C78.1822 23.1597 78.3554 23.0437 78.546 22.9645C78.7366 22.8854 78.9408 22.8448 79.1471 22.8449C80.016 22.8449 80.7511 23.5487 80.7511 24.4202V29.5131ZM68.7906 22.1746C68.0889 22.1746 67.1194 22.3089 66.6189 23.0127V22.1077C65.3494 22.3423 65.1483 22.4092 62.2087 22.4092V23.415C63.1776 23.415 63.7788 23.4818 63.7788 24.5545V34.0043C63.7449 35.2101 63.946 36.0816 62.1748 36.0816V37.1542H68.4562V36.0816H68.2562C67.0528 36.0816 66.6183 35.4452 66.6183 34.7409V31.2227C67.1861 31.9939 67.955 32.1616 68.6556 32.1616C71.3629 32.1276 72.8324 30.3177 72.8324 27.0675C72.8324 24.1182 71.6302 22.1746 68.7906 22.1746ZM69.4923 29.7811C69.4923 30.5183 68.9245 31.1218 68.1889 31.1218C67.4533 31.1218 66.8522 30.5183 66.8522 29.7811V24.6882C66.8522 23.951 67.4539 23.381 68.1889 23.381C68.924 23.381 69.4923 23.951 69.4923 24.6882V29.7811Z" fill="black"/>
<path fill-rule="evenodd" clip-rule="evenodd" d="M47.4742 26.0617C46.9398 26.5978 46.4386 27.1344 45.9375 27.6364V25.7603L47.2742 24.4202C47.3742 24.5539 47.4742 24.6213 47.4742 25.0231V26.0617ZM55.1923 18.8575C54.1782 19.7137 53.1867 20.5964 52.2189 21.5048V20.7002C51.9183 20.9348 50.8821 21.1694 50.4816 21.2028C51.7691 19.9109 53.1067 18.6702 54.4912 17.4834V18.8235L55.1923 18.8575Z" fill="#EBB53B"/>
<path fill-rule="evenodd" clip-rule="evenodd" d="M58.8669 15.741C65.1483 10.6475 71.9647 6.124 78.9471 3.04092C83.6906 1.09736 86.4302 0.293301 88.3692 2.43745C90.3065 4.54874 86.1308 11.4187 85.2613 12.289C84.1929 11.9541 83.7918 12.4902 83.7918 12.4902C84.1923 12.3559 84.894 12.6579 84.4262 13.73C84.2262 14.1323 83.4251 14.7017 83.0906 13.7634C82.6901 14.7686 81.7212 16.4776 80.5517 18.0522C76.6087 23.4472 71.1296 28.641 63.1449 35.7783C50.081 47.4397 43.3319 50.0542 38.7878 51.9632C35.5132 53.2024 27.194 55.0128 32.6404 44.9273C33.7759 42.3134 36.8166 37.9565 41.1596 32.9304H39.8234V32.4624C36.6161 36.2158 33.4754 40.337 31.4042 44.4247C29.7336 47.4069 26.4929 56.8227 38.5206 53.1707C42.463 51.9315 53.0545 46.8046 64.7144 36.315C77.0432 25.2576 83.2906 17.4165 85.4291 14.8366C85.8635 14.3334 86.298 13.5294 85.9647 12.9265C88.0692 9.77654 90.9754 3.20922 88.8709 1.19822C86.533 -1.04679 81.9217 0.427598 80.1505 1.09793C77.3771 2.20343 66.7534 7.33037 56.5296 15.7415L58.8669 15.741Z" fill="#EBB53B"/>
<path fill-rule="evenodd" clip-rule="evenodd" d="M37.6186 10.0111C37.5181 10.4463 37.2508 11.0832 35.6474 12.055C31.5712 14.4343 24.8226 14.6689 19.5435 14.5346C11.4249 14.3334 8.05027 12.4573 7.21525 11.7201C6.74745 11.2843 6.81412 10.882 7.34858 10.4803C8.85197 9.34077 14.1644 8.93902 17.6723 8.93902C21.1802 8.93902 25.1898 9.74366 25.1559 10.6814C25.1559 11.6532 23.2181 11.7869 22.7836 11.8209C22.483 11.8544 22.1491 11.7207 22.1491 11.5529C22.2164 11.2849 22.6836 11.2849 22.9175 11.2175C23.1181 11.184 23.2181 11.0163 23.2181 10.7817C23.2181 10.4803 22.3491 10.1788 21.648 10.078C19.6102 9.54192 16.9367 9.70907 15.5339 9.80994C13.0282 9.97767 11.2904 10.7477 11.2904 11.3518C11.2904 11.9207 12.7604 13.6302 20.0774 13.8642C29.4994 14.1657 33.9096 12.5576 36.048 11.0163C37.5181 9.8768 36.4158 9.10675 35.0124 8.40241C31.1706 6.59314 23.887 6.42542 20.2452 6.39199C16.1362 6.32513 9.28643 6.82773 6.37965 7.36377C5.74519 7.5315 5.87852 8.06753 6.78078 7.86637C7.84971 7.69865 15.3339 7.16261 18.9757 7.36377C22.6175 7.5315 27.061 7.43063 31.1706 9.47506C31.8717 9.91023 32.1056 10.6814 31.0367 11.2843C30.0011 11.8538 27.3282 13.1605 21.0802 13.1939C15.3333 13.2613 14.5983 12.289 14.0977 11.8872C13.8972 11.7195 13.8638 11.2169 14.6322 10.8146C15.1675 10.5712 15.7484 10.4454 16.3362 10.4457C16.8039 10.4457 16.9706 10.9489 16.4695 10.9823C15.9683 11.1154 15.4339 11.1829 15.4339 11.5518C15.4339 11.8532 15.7684 11.8872 16.1356 12.0209C16.4695 12.1552 18.2401 12.557 20.4791 12.557C23.7531 12.557 26.2593 12.0884 27.7294 11.2163C28.3305 10.9149 28.4972 9.94309 27.4621 9.60821C25.8582 9.07217 22.9847 8.13324 17.0045 8.13324C12.8955 8.13324 5.24464 8.77014 3.03898 9.37304C2.27062 9.60763 0.5 10.1102 0.5 11.0486C0.5 11.9864 1.70283 12.4221 2.27119 12.6233C5.51244 13.7628 14.6661 15.1363 18.2752 15.1697C28.3316 15.27 33.978 14.4325 37.4526 11.4503C37.7198 11.1149 38.1876 10.6128 38.2542 10.1097C38.3203 9.44163 37.7525 9.40762 37.6186 10.0111ZM27.9627 16.8464C30.4683 16.8464 31.1367 16.7801 32.1723 16.5115V23.5486C33.0746 22.0402 34.2435 22.0402 35.5802 22.0402C36.7158 22.0402 38.1864 23.0794 38.1864 25.3913V28.3412C38.1864 30.2168 38.287 30.954 39.5226 30.954H39.5559V31.8255H34.3107V30.954C35.2457 30.954 35.313 29.8825 35.313 29.011L35.3463 28.3412V25.4928C35.3463 24.2864 34.9452 23.5826 34.1768 23.5826C32.6062 23.5826 32.1723 24.8559 32.1723 26.5314V28.6427C32.239 30.0508 32.1723 30.9551 33.3412 30.9551V31.8266H27.8621V30.9551C29.0316 30.9551 29.3322 30.2854 29.3322 28.9781V18.9917C29.3322 18.0194 29.3655 17.7854 28.6638 17.9191C27.7616 18.1871 27.4943 18.6563 27.0932 19.8961L23.1842 32.2947H22.3152L19.3429 23.9175L16.3022 32.2947H15.4333L9.98813 19.0586C9.65366 17.9859 8.81863 17.8856 7.74914 17.8188V16.8464H14.6322V17.8188H14.3644C13.6299 17.8188 13.6633 18.0528 13.6633 18.522C13.6633 18.79 13.6966 19.0246 13.8972 19.7283L16.8373 27.77L18.8418 22.1411L18.0068 20.0632C17.5056 18.4545 17.3717 17.8182 15.835 17.8182V16.8459H22.0491V17.8182L21.7152 17.8516C21.2141 17.9185 21.1475 18.1531 21.1475 18.6223C21.1475 18.8569 21.1808 18.9911 21.3814 19.594L23.7203 27.2006L26.3266 18.9243C26.4938 18.1202 25.6915 17.8188 25.2576 17.7848V16.8464H27.9627ZM45.0689 19.2597C45.0689 20.1307 44.3339 20.8684 43.4316 20.8684C42.5633 20.8684 41.8616 20.1312 41.8616 19.2597C41.8616 18.3548 42.5966 17.6511 43.4316 17.6511C44.3339 17.6511 45.0689 18.3548 45.0689 19.2597ZM40.6927 31.8255H46.2051V30.8877C45.0023 30.8877 44.9017 30.2842 44.9017 28.3741V21.9739C44 22.2754 42.8638 22.3088 40.4582 22.3088V23.2806H40.8587C41.9282 23.2806 42.0949 24.4207 42.0949 24.4535V28.3741C42.0949 30.2508 41.9277 30.8877 40.6921 30.8877L40.6927 31.8255ZM51.5175 22.9451C52.4198 21.8396 53.9232 22.1745 54.0565 22.1745C55.0254 22.1745 55.526 23.2137 55.526 23.9175C55.526 24.8893 54.8915 25.6259 54.0232 25.6259C53.1881 25.6259 52.5537 25.0899 52.5537 24.2518C52.5537 23.9844 52.5864 23.8166 52.6859 23.6823C52.787 23.582 52.787 23.5486 52.787 23.5146C52.787 23.4812 52.8209 23.2472 52.7531 23.2472C52.6198 23.2472 52.3859 23.1129 52.0853 23.5146C51.5508 24.1515 51.5175 24.6875 51.5175 25.525V29.5465C51.5836 29.9822 51.6847 30.4842 52.1192 30.7534C52.3525 30.8871 52.3864 30.954 52.887 30.954V31.8255H47.3746V30.8877C48.5774 30.8877 48.678 30.3171 48.678 28.4404V24.4201C48.678 23.2137 48.1102 23.28 47.074 23.28V22.3422C49.413 22.3422 50.3813 22.3082 51.5175 22.0742V22.9451ZM99.896 28.5753C99.896 30.4508 100.297 30.7534 101.5 30.92V31.7575H95.4186V30.8871C96.622 30.7534 97.0226 30.4502 97.0226 28.5747V19.1589C97.0226 18.2205 96.4548 17.7848 95.7531 17.7513L95.4186 17.7848V16.813C97.7915 16.813 98.6926 16.8464 99.896 16.545V28.5753ZM90.1395 22.0074C87.3333 22.0074 85.2288 23.9844 85.2288 27.0328C85.2288 30.0496 87.2333 32.1269 90.1068 32.1269C93.013 32.1269 94.8836 30.1165 94.8836 27.0669C94.8842 24.0518 93.013 22.0074 90.1395 22.0074ZM91.7102 29.513C91.7102 30.4179 91.0085 31.1217 90.1401 31.1217C89.2718 31.1217 88.5373 30.4179 88.5373 29.513V24.4201C88.5373 23.5486 89.2712 22.8448 90.1401 22.8448C91.009 22.8448 91.7102 23.5486 91.7102 24.4201V29.513ZM60.1367 28.5753C60.1367 30.4508 60.5384 30.7534 61.7407 30.92V31.7575H55.6604V30.8871C56.8627 30.7534 57.2972 30.4502 57.2972 28.5747V19.1589C57.2644 18.2205 56.6955 17.7848 55.9949 17.7513L55.6604 17.7848V16.813C58.0661 16.813 58.9345 16.8464 60.1367 16.545V28.5753Z" fill="black"/>
</svg>
