<svg width="126" height="38" viewBox="0 0 126 38" fill="none" xmlns="http://www.w3.org/2000/svg">
<g clip-path="url(#clip0_2304_64596)">
<path d="M122.542 30.5386L114.92 20.2988L107.413 30.5386H104.343L113.438 18.1383L105.132 6.87341H108.202L114.915 16.0883L121.743 6.87341H124.813L116.513 18.1383L125.612 30.5386H122.542ZM81.0147 19.0477C80.5575 18.5905 79.9897 18.2488 79.422 18.0227C81.1303 17.1133 82.2658 15.2944 82.2658 13.2444C82.2658 11.7672 81.6981 6.87341 74.6437 6.87341H65.0872V17.1133H61.9017C61.4445 17.681 60.535 18.9321 60.1934 19.5049H65.0872V30.5386H74.6437C79.8792 30.5386 83.0647 27.9209 83.0647 23.5998C83.0597 21.776 82.3814 20.1832 81.0147 19.0477ZM67.7049 9.3756H74.6437C76.5781 9.3756 79.6481 9.83282 79.6481 13.1289C79.6481 15.631 77.8292 17.1133 74.6437 17.1133H67.7049V9.3756ZM74.6437 28.0364H67.7049V19.3893H74.6437C77.2615 19.3893 80.447 20.0727 80.447 23.4843C80.447 27.4687 76.8042 28.0364 74.6437 28.0364Z" fill="#177D3E"/>
<path d="M95.4644 6.30566C88.8673 6.30566 84.1996 11.4256 84.1996 18.706C84.1996 25.9865 88.8623 30.9908 95.4644 30.9908C102.067 30.9908 106.729 25.8709 106.729 18.706C106.724 11.4256 102.172 6.30566 95.4644 6.30566ZM95.4644 28.4887C90.46 28.4887 86.9329 24.3937 86.9329 18.706C86.9329 12.9028 90.46 8.92341 95.4644 8.92341C100.469 8.92341 103.996 13.0183 103.996 18.706C104.106 24.5093 100.579 28.4887 95.4644 28.4887ZM63.7199 30.5386L54.7311 18.1383L62.921 6.87343H59.851L53.1383 16.0883L46.4257 6.87343H43.2402L51.5456 18.1383L42.4463 30.5386H45.6318L53.1383 20.2988L60.6449 30.5386H63.7199Z" fill="#177D3E"/>
<path d="M38.3417 18.9975C38.3417 29.4634 29.6946 37.995 19.1131 37.995C8.53154 37.995 0 29.4685 0 18.9975C0 8.52651 8.6471 0 19.2286 0C29.8101 0 38.3417 8.53154 38.3417 18.9975Z" fill="#666666"/>
<path d="M38.3417 19.0003C38.3417 29.4663 29.6946 37.9978 19.1131 37.9978C8.53154 37.9978 0 29.4663 0 19.0003C0 8.53436 8.6471 -0.00219727 19.2286 -0.00219727C29.8101 -0.00219727 38.3417 8.53436 38.3417 19.0003Z" fill="url(#paint0_radial_2304_64596)"/>
<path d="M38.3417 19.0003C38.3417 29.4663 29.6946 37.9978 19.1131 37.9978C8.53154 37.9978 0 29.4663 0 19.0003C0 8.53436 8.6471 -0.00219727 19.2286 -0.00219727C29.8101 -0.00219727 38.3417 8.53436 38.3417 19.0003Z" fill="url(#paint1_radial_2304_64596)"/>
<path d="M38.3417 19.0003C38.3417 29.4663 29.6946 37.9978 19.1131 37.9978C8.53154 37.9978 0 29.4663 0 19.0003C0 8.53436 8.6471 -0.00219727 19.2286 -0.00219727C29.8101 -0.00219727 38.3417 8.53436 38.3417 19.0003Z" fill="url(#paint2_radial_2304_64596)"/>
<path d="M14.3551 10.7272C12.2901 13.3449 3.35156 23.7104 4.15548 30.7698C4.72827 31.4531 5.30105 32.1364 5.98941 32.7042C5.87384 27.3531 12.2951 21.5448 17.2241 17.1032L14.3551 10.7272Z" fill="#00A54D"/>
<path d="M14.3551 10.7272C12.2901 13.3449 3.35156 23.7104 4.15548 30.7698C4.72827 31.4531 5.30105 32.1364 5.98941 32.7042C5.87384 27.3531 12.2951 21.5448 17.2241 17.1032L14.3551 10.7272Z" fill="url(#paint3_linear_2304_64596)"/>
<path d="M9.15464 2.90916C8.00906 3.59249 6.97402 4.38635 6.05957 5.18524C9.15464 5.75301 12.1341 8.48631 13.8525 10.6519C15.3448 12.9279 16.1437 14.9779 17.1787 17.1435C17.8671 16.5757 18.5554 16.0079 19.3593 15.3196V5.97911C16.9476 4.61748 13.2797 2.7936 9.15464 2.90916Z" fill="#02A74D"/>
<path d="M9.15464 2.9041C8.00906 3.58743 6.97905 4.38632 6.05957 5.18018C9.15464 5.74794 12.1341 8.48125 13.8525 10.6468C15.3448 12.9229 16.1437 14.9729 17.1787 17.1384C17.8671 16.5706 18.5554 15.9978 19.3543 15.3145V5.97907C16.9476 4.61242 13.2797 2.79356 9.15464 2.9041Z" fill="url(#paint4_linear_2304_64596)"/>
<path d="M24.0718 10.7323C26.1268 13.3551 35.0402 23.7256 34.2363 30.7899C33.6635 31.4733 33.0957 32.1566 32.4074 32.7294C32.523 27.3733 26.1268 21.56 21.2129 17.1184L24.0718 10.7323Z" fill="#00A54D"/>
<path d="M24.0726 10.7323C26.1276 13.3551 35.041 23.7256 34.2422 30.7899C33.6694 31.4733 33.1016 32.1566 32.4132 32.7294C32.5288 27.3733 26.1276 21.56 21.2188 17.1184L24.0726 10.7323Z" fill="url(#paint5_linear_2304_64596)"/>
<path d="M29.2524 2.90416C30.3929 3.58748 31.4229 4.38637 32.3374 5.18526C29.2524 5.75302 26.2829 8.49136 24.5696 10.6569C23.0874 12.938 22.2834 14.988 21.2585 17.1535C20.5701 16.5807 19.8868 16.013 19.0879 15.3296V5.98415C21.374 4.61247 25.1424 2.78859 29.2524 2.90416Z" fill="#02A74D"/>
<path d="M29.2574 2.90416C30.398 3.58748 31.428 4.38637 32.3424 5.18526C29.2574 5.75302 26.2829 8.49136 24.5696 10.6569C23.0823 12.938 22.2834 14.988 21.2585 17.1535C20.5751 16.5858 19.8868 16.013 19.0879 15.3296V5.98415C21.374 4.61247 25.1424 2.78859 29.2574 2.90416Z" fill="url(#paint6_linear_2304_64596)"/>
</g>
<defs>
<radialGradient id="paint0_radial_2304_64596" cx="0" cy="0" r="1" gradientUnits="userSpaceOnUse" gradientTransform="translate(18.8695 16.9806) rotate(90) scale(27.6481 24.5511)">
<stop stop-color="white"/>
<stop offset="1" stop-color="white" stop-opacity="0"/>
</radialGradient>
<radialGradient id="paint1_radial_2304_64596" cx="0" cy="0" r="1" gradientUnits="userSpaceOnUse" gradientTransform="translate(18.8695 16.9806) rotate(90) scale(27.6481 24.5511)">
<stop stop-color="white"/>
<stop offset="1" stop-color="white" stop-opacity="0"/>
</radialGradient>
<radialGradient id="paint2_radial_2304_64596" cx="0" cy="0" r="1" gradientUnits="userSpaceOnUse" gradientTransform="translate(18.8695 16.9806) rotate(90) scale(27.6481 24.5511)">
<stop stop-color="white"/>
<stop offset="1" stop-color="white" stop-opacity="0"/>
</radialGradient>
<linearGradient id="paint3_linear_2304_64596" x1="12.2869" y1="24.2634" x2="7.78867" y2="18.9156" gradientUnits="userSpaceOnUse">
<stop stop-color="#97CA43"/>
<stop offset="1" stop-color="#97CA43" stop-opacity="0"/>
</linearGradient>
<linearGradient id="paint4_linear_2304_64596" x1="12.0882" y1="11.605" x2="16.1816" y2="2.3987" gradientUnits="userSpaceOnUse">
<stop stop-color="#97CA43"/>
<stop offset="1" stop-color="#97CA43" stop-opacity="0"/>
</linearGradient>
<linearGradient id="paint5_linear_2304_64596" x1="28.6822" y1="22.246" x2="24.1698" y2="16.9259" gradientUnits="userSpaceOnUse">
<stop stop-color="#97CA43"/>
<stop offset="1" stop-color="#97CA43" stop-opacity="0"/>
</linearGradient>
<linearGradient id="paint6_linear_2304_64596" x1="23.3864" y1="9.35312" x2="26.9116" y2="3.58061" gradientUnits="userSpaceOnUse">
<stop stop-color="#97CA43"/>
<stop offset="1" stop-color="#97CA43" stop-opacity="0"/>
</linearGradient>
<clipPath id="clip0_2304_64596">
<rect width="125.612" height="38" fill="white"/>
</clipPath>
</defs>
</svg>
