<svg width="77" height="32" viewBox="0 0 77 32" fill="none" xmlns="http://www.w3.org/2000/svg">
<path d="M27.4698 0L27.4762 0.0192001L36.4403 24.4064V1.2704H32.7507V1.0464H45.4557C51.5611 1.0464 55.8218 4.1696 55.8218 8.6464C55.8218 11.9104 52.9022 14.624 48.5613 15.3952L47.7625 15.4944L48.5645 15.5776C51.1986 15.8784 53.2904 16.6848 54.7727 17.9776L54.7823 17.9872L61.4107 0H61.6353L61.6417 0.0192001L73.0505 31.0528H77V31.2768H64.4297V31.0528H68.1322L64.3784 20.848H56.765V20.8544L56.8068 20.9728C57.1083 21.872 57.2623 22.816 57.2527 23.7664V27.5936C57.2527 29.5616 58.1222 31.5552 59.7873 31.5552C60.7626 31.5552 61.5423 31.2128 62.4727 30.3648L62.6042 30.4864C61.5968 31.5488 60.3744 32 58.5425 32C57.1629 32 55.9758 31.6672 55.0261 31.0144L54.8465 30.8864C53.5952 29.9392 52.7803 28.3968 52.4306 26.2944L52.3728 25.9552L52.3151 25.4432L52.3087 25.3536L50.2104 31.0496H53.1878V31.2736H46.9572V31.0496H49.9666L52.2702 24.7968V24.7808C52.2462 24.4122 52.2323 24.043 52.2285 23.6736V20.9408C52.2285 17.584 49.726 15.6608 45.3626 15.6608H41.0731V31.0528H44.7883V31.2768H30.2642V31.0528H33.9666L30.2129 20.848H19.8018L16.0866 30.9408L16.2406 30.9152C21.1205 30.0768 23.3631 26.3616 23.3952 22.4512H23.6197V31.2768H0L17.5335 1.2704H10.4848C4.63925 1.2704 1.99558 5.7728 1.95388 10.2624H1.7325V1.0464H23.0166L22.8883 1.2704L5.48304 31.0528H14.6396C14.8674 31.0528 15.092 31.0432 15.3198 31.024L15.5508 31.0048L15.8395 30.9728L27.242 0H27.4665H27.4698ZM59.1777 6.704L54.9652 18.1472L54.9876 18.1696L55.2026 18.3808C55.8218 19.0112 56.3159 19.7568 56.6528 20.5696L56.6752 20.624H64.295L59.1777 6.704ZM25.0154 6.704L19.8853 20.624H30.1327L25.0154 6.704ZM44.3488 1.2704H41.0763V15.4368H45.3626C49.7035 15.4368 51.0317 13.8592 51.0317 8.6944C51.0317 3.84 48.7218 1.2704 44.3488 1.2704Z" fill="black"/>
</svg>
